# base_link.dae material logo_001-effect
# rgba 1 1 1 1
v 0.087337 0.141052 0.040985
v 0.102705 0.141052 0.040985
v 0.086715 0.145712 0.020263
v 0.086715 0.146462 0.013213
v 0.079653 0.146462 0.013213
v 0.079653 0.145712 0.020263
v 0.086715 0.144586 0.027262
v 0.079653 0.144586 0.027262
v 0.086715 0.143046 0.034182
v 0.079653 0.143046 0.034182
v 0.087337 0.141866 0.038419
v 0.080492 0.141053 0.040985
v 0.087337 0.138775 0.047102
v 0.089442 0.141052 0.040985
v 0.095021 0.140694 0.042044
v 0.095021 0.138681 0.047329
v 0.102705 0.142727 0.035397
v 0.098686 0.141052 0.040985
v 0.102705 0.140335 0.043062
v 0.110157 0.145712 0.020263
v 0.110157 0.146462 0.013213
v 0.103037 0.146462 0.013213
v 0.103037 0.145712 0.020263
v 0.103037 0.144586 0.027262
v 0.110157 0.144586 0.027262
v 0.102922 0.143047 0.034183
v 0.110157 0.143046 0.034182
v 0.110163 0.141053 0.040984
v 0.103732 0.140829 0.041650
v 0.104137 0.138847 0.046928
v 0.110389 0.138847 0.046928
v 0.086715 0.145639 0.020802
v 0.079653 0.145708 0.020296
v 0.086715 0.144378 0.028328
v 0.079653 0.144574 0.027326
v 0.086752 0.142631 0.035754
v 0.079653 0.143023 0.034274
v 0.080503 0.141043 0.041014
v 0.082208 0.140019 0.043931
v 0.084889 0.139178 0.046115
v 0.088981 0.141161 0.040657
v 0.087757 0.141609 0.039260
v 0.094364 0.140681 0.042080
v 0.090611 0.140860 0.041558
v 0.091741 0.138559 0.047619
v 0.102623 0.142639 0.035723
v 0.101021 0.141693 0.038986
v 0.098072 0.140949 0.041293
v 0.098643 0.139143 0.046199
v 0.110157 0.145731 0.020118
v 0.103037 0.145639 0.020802
v 0.110157 0.144640 0.026974
v 0.103038 0.144378 0.028328
v 0.110157 0.143155 0.033754
v 0.110159 0.141238 0.040422
v 0.126133 0.145686 0.020455
v 0.126133 0.144377 0.028331
v 0.126133 0.142536 0.036100
v 0.126133 0.140103 0.043703
v 0.126133 0.137010 0.051062
v 0.148533 0.145686 0.020455
v 0.126133 0.146267 0.015408
v 0.121149 0.145686 0.020455
v 0.118728 0.144377 0.028331
v 0.118666 0.142536 0.036100
v 0.118666 0.140103 0.043702
v 0.118666 0.137010 0.051061
v 0.118666 0.133180 0.058063
v 0.126133 0.133180 0.058063
v 0.130919 0.145685 0.020456
v 0.133600 0.145839 0.019275
v 0.133600 0.146498 0.012766
v 0.126434 0.144377 0.028331
v 0.126306 0.142536 0.036099
v 0.126306 0.140103 0.043702
v 0.126306 0.137010 0.051061
v 0.126306 0.133180 0.058063
v 0.141066 0.145852 0.019168
v 0.141066 0.146497 0.012774
v 0.144167 0.145685 0.020456
v 0.148533 0.146265 0.015421
v 0.148533 0.144584 0.027270
v 0.153516 0.145686 0.020455
v 0.148698 0.144377 0.028331
v 0.155938 0.144377 0.028331
v 0.148823 0.142536 0.036099
v 0.156000 0.142536 0.036100
v 0.148823 0.140103 0.043702
v 0.156000 0.140103 0.043702
v 0.148823 0.137010 0.051061
v 0.156000 0.137010 0.051061
v 0.148823 0.133180 0.058063
v 0.156000 0.133180 0.058063
v 0.126007 0.146259 0.015489
v 0.120716 0.145582 0.021211
v 0.118705 0.144306 0.028681
v 0.118666 0.142463 0.036361
v 0.118666 0.140039 0.043875
v 0.118666 0.136969 0.051146
v 0.133212 0.145825 0.019392
v 0.133384 0.146495 0.012798
v 0.127148 0.144949 0.025260
v 0.129481 0.145528 0.021593
v 0.126306 0.143150 0.033772
v 0.126306 0.143716 0.031416
v 0.126306 0.140641 0.042195
v 0.126306 0.141966 0.038083
v 0.126306 0.137351 0.050339
v 0.126306 0.139070 0.046383
v 0.126306 0.135343 0.054340
v 0.137555 0.145900 0.018776
v 0.141897 0.145823 0.019402
v 0.141273 0.146495 0.012805
v 0.145629 0.145526 0.021606
v 0.147978 0.144949 0.025261
v 0.148652 0.146258 0.015497
v 0.153950 0.145582 0.021211
v 0.148823 0.143721 0.031396
v 0.148823 0.143150 0.033772
v 0.155961 0.144306 0.028681
v 0.148823 0.141966 0.038083
v 0.148823 0.140641 0.042195
v 0.156000 0.142463 0.036361
v 0.148823 0.139070 0.046383
v 0.148823 0.137351 0.050339
v 0.156000 0.140039 0.043875
v 0.148823 0.135343 0.054340
v 0.156000 0.136969 0.051146
v 0.071028 0.145732 0.020114
v 0.071028 0.146462 0.013213
v 0.063909 0.146462 0.013213
v 0.063909 0.145732 0.020114
v 0.071028 0.144641 0.026967
v 0.063909 0.144641 0.026967
v 0.071028 0.143157 0.033746
v 0.063909 0.143157 0.033746
v 0.071028 0.141240 0.040415
v 0.063909 0.141240 0.040415
v 0.063909 0.138847 0.046928
v 0.071028 0.138847 0.046928
v 0.071028 0.145046 0.024694
v 0.063909 0.145046 0.024694
v 0.071028 0.142567 0.035987
v 0.063909 0.142567 0.035987
v 0.067469 0.135008 0.054954
v 0.067468 0.137038 0.051002
v 0.063099 0.135008 0.054954
v 0.067440 0.132731 0.058768
v 0.067468 0.132731 0.058768
v 0.071838 0.135008 0.054954
v 0.065203 0.136826 0.051442
v 0.064264 0.136519 0.052068
v 0.063584 0.136092 0.052916
v 0.063098 0.135026 0.054921
v 0.063584 0.133896 0.056892
v 0.065178 0.133020 0.058318
v 0.071360 0.136075 0.052949
v 0.070682 0.136502 0.052102
v 0.069746 0.136813 0.051469
v 0.067478 0.137038 0.051002
v 0.069703 0.133017 0.058322
v 0.071325 0.133881 0.056918
v 0.050499 0.145780 0.019742
v 0.050499 0.144640 0.026977
v 0.050499 0.143060 0.034129
v 0.050499 0.140995 0.041156
v 0.050499 0.138396 0.048002
v 0.043746 0.146513 0.012562
v 0.036993 0.146458 0.013271
v 0.036993 0.145887 0.018890
v 0.043746 0.145822 0.019416
v 0.043746 0.140829 0.041650
v 0.036993 0.140829 0.041650
v 0.036993 0.138847 0.046928
v 0.043746 0.138847 0.046928
v 0.044077 0.145780 0.019742
v 0.050499 0.146161 0.016465
v 0.045097 0.144640 0.026977
v 0.045097 0.143060 0.034129
v 0.045097 0.140996 0.041156
v 0.045097 0.140829 0.041650
v 0.045097 0.138847 0.046928
v 0.045097 0.138396 0.048002
v 0.045097 0.135206 0.054593
v 0.050499 0.135206 0.054593
v 0.051901 0.145780 0.019742
v 0.052217 0.144640 0.026977
v 0.052217 0.143060 0.034129
v 0.052217 0.140996 0.041156
v 0.052217 0.138396 0.048002
v 0.052217 0.138847 0.046928
v 0.057252 0.138847 0.046928
v 0.057252 0.140829 0.041650
v 0.052217 0.140829 0.041650
v 0.052217 0.135206 0.054593
v 0.042772 0.146520 0.012477
v 0.041269 0.145938 0.018468
v 0.043299 0.145862 0.019092
v 0.050397 0.146177 0.016319
v 0.048290 0.146376 0.014226
v 0.044123 0.145773 0.019797
v 0.044681 0.145651 0.020714
v 0.045097 0.145007 0.024928
v 0.045097 0.144207 0.029167
v 0.045097 0.143250 0.033374
v 0.045097 0.142127 0.037538
v 0.051663 0.145889 0.018869
v 0.052217 0.145060 0.024614
v 0.052217 0.143951 0.030366
v 0.052217 0.142549 0.036053
v 0.018317 0.141052 0.040985
v 0.024471 0.145712 0.020263
v 0.024471 0.144586 0.027262
v 0.024471 0.143046 0.034182
v 0.024471 0.141052 0.040985
v 0.018317 0.141080 0.040902
v 0.018106 0.141052 0.040985
v 0.012162 0.140902 0.041433
v 0.012162 0.138670 0.047354
v 0.018317 0.138867 0.046880
v 0.024471 0.146462 0.013213
v 0.023275 0.146462 0.013213
v 0.023275 0.145712 0.020263
v 0.023275 0.144586 0.027262
v 0.023157 0.143047 0.034183
v 0.024143 0.140866 0.041542
v 0.024472 0.138901 0.046799
v 0.030337 0.145712 0.020263
v 0.030337 0.146462 0.013213
v 0.030337 0.144586 0.027262
v 0.030337 0.143046 0.034182
v 0.030347 0.141053 0.040985
v 0.024491 0.138847 0.046928
v 0.030626 0.138847 0.046928
v 0.017335 0.140969 0.041236
v 0.015053 0.138572 0.047587
v 0.017908 0.138807 0.047027
v 0.023275 0.145946 0.018396
v 0.023275 0.145232 0.023555
v 0.023275 0.144307 0.028679
v 0.023206 0.143156 0.033754
v 0.021528 0.141860 0.038442
v 0.019680 0.141317 0.040177
v 0.020480 0.139322 0.045752
v 0.022586 0.140042 0.043867
v 0.030337 0.145731 0.020118
v 0.030337 0.144640 0.026975
v 0.030337 0.143155 0.033755
v 0.030341 0.141237 0.040424
v -0.037574 0.145791 0.019660
v -0.037574 0.141100 0.040841
v -0.053231 0.145791 0.019660
v -0.053231 0.141100 0.040841
v -0.037574 0.146323 0.014816
v -0.032636 0.145791 0.019659
v -0.030013 0.144670 0.026814
v -0.037122 0.144671 0.026814
v -0.037574 0.145019 0.024853
v -0.037061 0.143121 0.033888
v -0.037038 0.143161 0.033731
v -0.037574 0.143161 0.033731
v -0.037574 0.144304 0.028692
v -0.036923 0.144304 0.028692
v -0.029996 0.143121 0.033888
v -0.037574 0.142515 0.036177
v -0.032587 0.141100 0.040841
v -0.037574 0.139394 0.045569
v -0.045403 0.146519 0.012490
v -0.041231 0.145791 0.019660
v -0.045402 0.145970 0.018199
v -0.045402 0.143161 0.033731
v -0.045402 0.144304 0.028692
v -0.040700 0.141100 0.040841
v -0.045403 0.140585 0.042355
v -0.045403 0.138559 0.047619
v -0.053231 0.146434 0.013553
v -0.051792 0.145791 0.019660
v -0.053231 0.145583 0.021208
v -0.053231 0.143161 0.033731
v -0.053231 0.144304 0.028692
v -0.053231 0.142325 0.036852
v -0.050529 0.141100 0.040841
v -0.053231 0.139271 0.045880
v -0.059849 0.145791 0.019660
v -0.054403 0.145254 0.023419
v -0.060307 0.145657 0.020672
v -0.053882 0.143161 0.033731
v -0.053865 0.143121 0.033888
v -0.060845 0.143121 0.033888
v -0.060944 0.144304 0.028692
v -0.058527 0.141100 0.040841
v -0.034225 0.146041 0.017576
v -0.037515 0.144985 0.025050
v -0.030577 0.145120 0.024251
v -0.029780 0.143639 0.031754
v -0.031535 0.141698 0.038970
v -0.036223 0.139733 0.044692
v -0.041905 0.145843 0.019247
v -0.040620 0.146448 0.013391
v -0.039119 0.145512 0.021710
v -0.038018 0.142176 0.037369
v -0.040201 0.141234 0.040432
v -0.043259 0.138620 0.047474
v -0.043607 0.140652 0.042163
v -0.049232 0.145942 0.018432
v -0.045490 0.145971 0.018190
v -0.048258 0.146518 0.012509
v -0.052452 0.145712 0.020263
v -0.050932 0.141209 0.040509
v -0.053032 0.142167 0.037399
v -0.050902 0.138880 0.046850
v -0.047492 0.140650 0.042171
v -0.055574 0.146329 0.014750
v -0.060422 0.142522 0.036151
v -0.057151 0.140443 0.042759
v -0.092177 0.145607 0.021034
v -0.092177 0.144284 0.028789
v -0.092177 0.142442 0.036438
v -0.092177 0.140022 0.043923
v -0.092177 0.136959 0.051167
v -0.098926 0.142442 0.036438
v -0.105676 0.142442 0.036438
v -0.112425 0.145607 0.021034
v -0.112425 0.144284 0.028789
v -0.112425 0.142442 0.036438
v -0.112425 0.140022 0.043923
v -0.112425 0.136959 0.051167
v -0.092177 0.146462 0.013213
v -0.085428 0.146462 0.013213
v -0.085428 0.145607 0.021034
v -0.085428 0.144284 0.028789
v -0.085428 0.142442 0.036437
v -0.085428 0.140022 0.043922
v -0.085428 0.136959 0.051167
v -0.085428 0.133180 0.058064
v -0.092177 0.133180 0.058064
v -0.093011 0.145607 0.021034
v -0.093011 0.145844 0.019236
v -0.098926 0.145844 0.019236
v -0.098926 0.146462 0.013213
v -0.093011 0.144285 0.028789
v -0.098926 0.142991 0.034398
v -0.093011 0.142991 0.034398
v -0.093011 0.140022 0.043922
v -0.093011 0.141316 0.040180
v -0.098926 0.141316 0.040180
v -0.093011 0.136959 0.051167
v -0.098926 0.136215 0.052675
v -0.093011 0.136215 0.052675
v -0.098926 0.133180 0.058064
v -0.105676 0.145819 0.019434
v -0.105676 0.146462 0.013213
v -0.105675 0.143040 0.034209
v -0.105676 0.141170 0.040630
v -0.105675 0.136441 0.052224
v -0.105675 0.133189 0.058049
v -0.109125 0.145607 0.021034
v -0.112425 0.146335 0.014685
v -0.111364 0.144285 0.028789
v -0.109199 0.140022 0.043923
v -0.112425 0.141813 0.038595
v -0.110086 0.142108 0.037604
v -0.112425 0.142335 0.036815
v -0.107608 0.136959 0.051167
v -0.112424 0.134327 0.056159
v -0.118213 0.145607 0.021034
v -0.118975 0.144285 0.028789
v -0.113219 0.142442 0.036438
v -0.116881 0.140022 0.043923
v -0.116611 0.136959 0.051167
v -0.085428 0.145381 0.022598
v -0.085428 0.143611 0.031874
v -0.085428 0.141060 0.040962
v -0.085428 0.137623 0.049749
v -0.091995 0.133180 0.058064
v -0.092622 0.146462 0.013213
v -0.098155 0.145844 0.019236
v -0.098155 0.142991 0.034398
v -0.097604 0.141316 0.040180
v -0.093011 0.139011 0.046528
v -0.098563 0.133180 0.058064
v -0.097604 0.136215 0.052675
v -0.099816 0.146462 0.013213
v -0.103298 0.145844 0.019236
v -0.103298 0.142991 0.034398
v -0.102197 0.141316 0.040180
v -0.105130 0.133181 0.058062
v -0.102197 0.136215 0.052675
v -0.107008 0.146459 0.013256
v -0.108238 0.145694 0.020394
v -0.111220 0.145099 0.024377
v -0.110154 0.145449 0.022140
v -0.108246 0.143271 0.033290
v -0.110174 0.143677 0.031587
v -0.111230 0.144164 0.029372
v -0.108390 0.140537 0.042495
v -0.106641 0.141031 0.041048
v -0.108359 0.137311 0.050425
v -0.109331 0.138142 0.048589
v -0.109354 0.139848 0.044388
v -0.111427 0.134009 0.056702
v -0.106625 0.136644 0.051816
v -0.113762 0.146262 0.015466
v -0.118182 0.145618 0.020957
v -0.119098 0.144459 0.027916
v -0.118230 0.143751 0.031265
v -0.116238 0.143041 0.034201
v -0.113036 0.141700 0.038962
v -0.115402 0.141013 0.041103
v -0.116862 0.140044 0.043862
v -0.117320 0.138873 0.046866
v -0.115916 0.136241 0.052623
v -0.133239 0.145590 0.021162
v -0.133239 0.136677 0.051748
v -0.140996 0.144232 0.029043
v -0.148752 0.142337 0.036811
v -0.148752 0.141148 0.040695
v -0.148752 0.138321 0.048177
v -0.148752 0.136677 0.051748
v -0.133239 0.146462 0.013213
v -0.125483 0.146462 0.013213
v -0.125483 0.145976 0.018141
v -0.128466 0.145590 0.021161
v -0.133239 0.144828 0.025953
v -0.131841 0.138321 0.048177
v -0.131387 0.138803 0.047034
v -0.129285 0.138321 0.048177
v -0.126791 0.136677 0.051748
v -0.133239 0.133581 0.057415
v -0.137549 0.145590 0.021162
v -0.135670 0.145844 0.019236
v -0.140996 0.145844 0.019236
v -0.140996 0.146462 0.013213
v -0.140995 0.145049 0.024675
v -0.136342 0.144233 0.029041
v -0.140995 0.143187 0.033626
v -0.140995 0.132764 0.058718
v -0.140995 0.135842 0.053400
v -0.134783 0.136677 0.051749
v -0.148752 0.145844 0.019236
v -0.148752 0.146462 0.013213
v -0.145319 0.144233 0.029042
v -0.148752 0.143467 0.032484
v -0.144259 0.142337 0.036811
v -0.147493 0.141149 0.040695
v -0.148752 0.138429 0.047925
v -0.148688 0.138321 0.048177
v -0.148752 0.133715 0.057193
v -0.146304 0.136677 0.051748
v -0.156508 0.145844 0.019236
v -0.156508 0.146462 0.013213
v -0.152644 0.142337 0.036811
v -0.155169 0.141148 0.040695
v -0.156082 0.138321 0.048177
v -0.156196 0.139841 0.044407
v -0.148882 0.139841 0.044407
v -0.154847 0.136677 0.051748
v -0.126004 0.137531 0.049950
v -0.133239 0.137341 0.050361
v -0.148752 0.140101 0.043708
v -0.129529 0.145435 0.022233
v -0.130174 0.134580 0.055718
v -0.133583 0.144765 0.026297
v -0.137644 0.143959 0.030329
v -0.136831 0.136154 0.052794
v -0.139651 0.135860 0.053364
v -0.137204 0.132931 0.058457
v -0.141108 0.145030 0.024789
v -0.141709 0.143010 0.034324
v -0.146559 0.143969 0.030286
v -0.145706 0.141889 0.038342
v -0.142543 0.135908 0.053272
v -0.145247 0.136342 0.052423
v -0.144977 0.132995 0.058357
v -0.151858 0.142602 0.035857
v -0.151851 0.134801 0.055326
v -0.134387 0.136820 0.051455
v -0.148577 0.140339 0.043051
v -0.155757 0.140620 0.042255
v -0.147416 0.137195 0.050672
v -0.148637 0.138244 0.048354
v -0.155798 0.137772 0.049421
v -0.016133 0.140898 0.041446
v -0.008194 0.144304 0.028692
v -0.000254 0.144304 0.028692
v -0.000254 0.143161 0.033731
v -0.008194 0.143161 0.033731
v -0.000304 0.142801 0.035122
v -0.000254 0.142861 0.034897
v -0.000254 0.142801 0.035122
v -0.000254 0.140898 0.041445
v -0.004658 0.140898 0.041446
v -0.000254 0.139471 0.045372
v -0.008194 0.138560 0.047617
v -0.008194 0.140587 0.042351
v -0.016133 0.143161 0.033731
v -0.016133 0.144304 0.028692
v -0.016133 0.142234 0.037168
v -0.012593 0.140898 0.041446
v -0.016133 0.139248 0.045938
v -0.023660 0.142801 0.035122
v -0.023957 0.144304 0.028692
v -0.016895 0.143161 0.033731
v -0.016690 0.142802 0.035123
v -0.021158 0.140898 0.041446
v -0.000254 0.143936 0.030437
v -0.001797 0.141754 0.038788
v -0.000254 0.141994 0.037992
v -0.004938 0.140850 0.041589
v -0.007268 0.138578 0.047575
v -0.013253 0.141031 0.041049
v -0.015878 0.142051 0.037798
v -0.009173 0.140592 0.042337
v -0.014619 0.138979 0.046607
v -0.023491 0.142586 0.035917
v -0.020472 0.140574 0.042388
v 0.005912 0.145355 0.022768
v -0.000254 0.146304 0.015025
v -0.000254 0.145355 0.022768
v -0.000254 0.144789 0.026167
v 0.000064 0.144304 0.028692
v 0.007242 0.143936 0.030438
v -0.000051 0.143161 0.033731
v 0.005883 0.141994 0.037992
v 0.004675 0.145722 0.020190
v -0.000254 0.145832 0.019334
v 0.006988 0.144653 0.026904
v 0.006984 0.143110 0.033933
v 0.004645 0.141228 0.040453
v -0.015632 0.145832 0.019334
v -0.004763 0.145832 0.019334
v -0.007943 0.145963 0.018256
v -0.007943 0.146517 0.012522
v -0.014361 0.145832 0.019334
v -0.015631 0.146453 0.013332
v -0.015631 0.145688 0.020441
v -0.022695 0.145832 0.019334
v -0.017416 0.145254 0.023419
v -0.023320 0.145657 0.020672
v -0.006524 0.146504 0.012688
v -0.006274 0.145916 0.018653
v -0.003368 0.145701 0.020347
v -0.001331 0.145318 0.023007
v -0.013244 0.146500 0.012740
v -0.012956 0.145917 0.018643
v -0.009614 0.145976 0.018141
v -0.019393 0.146275 0.015327
v -0.015715 0.145676 0.020535
v 0.015123 -0.145692 0.019334
v 0.004255 -0.145692 0.019334
v 0.007435 -0.145823 0.018256
v 0.007435 -0.146377 0.012522
v -0.000254 -0.146164 0.015025
v -0.000254 -0.145692 0.019334
v -0.000254 -0.144649 0.026167
v 0.013853 -0.145692 0.019334
v 0.015123 -0.146313 0.013332
v 0.015123 -0.145548 0.020441
v 0.022187 -0.145692 0.019334
v 0.016908 -0.145114 0.023419
v 0.022812 -0.145517 0.020672
v 0.006016 -0.146364 0.012688
v 0.005766 -0.145776 0.018652
v 0.002860 -0.145561 0.020347
v 0.000823 -0.145178 0.023007
v -0.000254 -0.145215 0.022768
v 0.012735 -0.146360 0.012740
v 0.012448 -0.145777 0.018643
v 0.009106 -0.145836 0.018141
v 0.018884 -0.146135 0.015327
v 0.015207 -0.145536 0.020535
v 0.015625 -0.140758 0.041446
v 0.007686 -0.144164 0.028692
v -0.000254 -0.144164 0.028692
v -0.000254 -0.143021 0.033731
v 0.007686 -0.143021 0.033731
v -0.000205 -0.142661 0.035122
v -0.000254 -0.142721 0.034897
v -0.000254 -0.142661 0.035122
v -0.000254 -0.140758 0.041445
v 0.004150 -0.140758 0.041446
v -0.000254 -0.139331 0.045372
v 0.007686 -0.138420 0.047617
v 0.007686 -0.140447 0.042351
v 0.015625 -0.143021 0.033731
v 0.015625 -0.144164 0.028692
v 0.015625 -0.142094 0.037168
v 0.012085 -0.140758 0.041446
v 0.015625 -0.139108 0.045938
v 0.023152 -0.142661 0.035122
v 0.023449 -0.144164 0.028692
v 0.016387 -0.143021 0.033731
v 0.016182 -0.142662 0.035123
v 0.020650 -0.140758 0.041446
v -0.000254 -0.143796 0.030437
v 0.001289 -0.141614 0.038788
v -0.000254 -0.141854 0.037992
v 0.004430 -0.140710 0.041589
v 0.006760 -0.138438 0.047575
v 0.012745 -0.140891 0.041049
v 0.015370 -0.141911 0.037798
v 0.008665 -0.140452 0.042337
v 0.014111 -0.138839 0.046607
v 0.022983 -0.142446 0.035917
v 0.019964 -0.140434 0.042388
v -0.006420 -0.145215 0.022768
v -0.000572 -0.144164 0.028692
v -0.007750 -0.143796 0.030438
v -0.000457 -0.143021 0.033731
v -0.006391 -0.141854 0.037992
v -0.005183 -0.145582 0.020190
v -0.007496 -0.144513 0.026904
v -0.007492 -0.142970 0.033933
v -0.005153 -0.141088 0.040453
v -0.126641 -0.145546 0.020455
v -0.126641 -0.144237 0.028331
v -0.126641 -0.142396 0.036100
v -0.126641 -0.139963 0.043703
v -0.126641 -0.136870 0.051062
v -0.149041 -0.145546 0.020455
v -0.126641 -0.146127 0.015408
v -0.121657 -0.145546 0.020455
v -0.119236 -0.144237 0.028331
v -0.119174 -0.142396 0.036100
v -0.119174 -0.139963 0.043702
v -0.119174 -0.136870 0.051062
v -0.119174 -0.133040 0.058064
v -0.126641 -0.133040 0.058064
v -0.131427 -0.145545 0.020456
v -0.134108 -0.145699 0.019275
v -0.134108 -0.146358 0.012767
v -0.126942 -0.144237 0.028331
v -0.126814 -0.142396 0.036099
v -0.126814 -0.139963 0.043702
v -0.126814 -0.136870 0.051061
v -0.126814 -0.133040 0.058064
v -0.141574 -0.145712 0.019168
v -0.141574 -0.146357 0.012774
v -0.144676 -0.145545 0.020456
v -0.149041 -0.146125 0.015421
v -0.149041 -0.144444 0.027270
v -0.154025 -0.145546 0.020455
v -0.149206 -0.144237 0.028331
v -0.156446 -0.144237 0.028331
v -0.149331 -0.142396 0.036099
v -0.156508 -0.142396 0.036100
v -0.149331 -0.139963 0.043702
v -0.156508 -0.139963 0.043703
v -0.149331 -0.136870 0.051061
v -0.156508 -0.136870 0.051062
v -0.149331 -0.133040 0.058064
v -0.156508 -0.133040 0.058064
v -0.126515 -0.146119 0.015489
v -0.121224 -0.145442 0.021211
v -0.119213 -0.144166 0.028681
v -0.119174 -0.142323 0.036361
v -0.119174 -0.139899 0.043876
v -0.119174 -0.136829 0.051146
v -0.133720 -0.145685 0.019392
v -0.133892 -0.146355 0.012798
v -0.127656 -0.144809 0.025260
v -0.129989 -0.145388 0.021593
v -0.126814 -0.143010 0.033772
v -0.126814 -0.143576 0.031416
v -0.126814 -0.140501 0.042195
v -0.126814 -0.141826 0.038083
v -0.126814 -0.137211 0.050339
v -0.126814 -0.138930 0.046383
v -0.126814 -0.135203 0.054340
v -0.138063 -0.145760 0.018776
v -0.142405 -0.145683 0.019402
v -0.141781 -0.146355 0.012805
v -0.146137 -0.145386 0.021606
v -0.148486 -0.144809 0.025261
v -0.149160 -0.146118 0.015497
v -0.154458 -0.145442 0.021211
v -0.149331 -0.143581 0.031396
v -0.149331 -0.143010 0.033772
v -0.156469 -0.144166 0.028681
v -0.149331 -0.141826 0.038083
v -0.149331 -0.140501 0.042195
v -0.156508 -0.142323 0.036361
v -0.149331 -0.138930 0.046383
v -0.149331 -0.137211 0.050339
v -0.156508 -0.139899 0.043876
v -0.149331 -0.135203 0.054340
v -0.156508 -0.136829 0.051146
v -0.087845 -0.140912 0.040985
v -0.103213 -0.140912 0.040985
v -0.087223 -0.145572 0.020263
v -0.087223 -0.146322 0.013213
v -0.080161 -0.146322 0.013213
v -0.080161 -0.145572 0.020263
v -0.087223 -0.144446 0.027262
v -0.080161 -0.144446 0.027262
v -0.087223 -0.142906 0.034182
v -0.080161 -0.142906 0.034182
v -0.087845 -0.141726 0.038419
v -0.081000 -0.140913 0.040985
v -0.087845 -0.138635 0.047102
v -0.089950 -0.140912 0.040985
v -0.095529 -0.140554 0.042044
v -0.095529 -0.138541 0.047329
v -0.103213 -0.142587 0.035397
v -0.099194 -0.140912 0.040985
v -0.103213 -0.140195 0.043062
v -0.110665 -0.145572 0.020263
v -0.110665 -0.146322 0.013213
v -0.103546 -0.146322 0.013213
v -0.103546 -0.145572 0.020263
v -0.103546 -0.144446 0.027262
v -0.110665 -0.144446 0.027262
v -0.103430 -0.142907 0.034183
v -0.110665 -0.142906 0.034182
v -0.110671 -0.140913 0.040984
v -0.104240 -0.140689 0.041651
v -0.104645 -0.138707 0.046928
v -0.110897 -0.138707 0.046928
v -0.087223 -0.145499 0.020802
v -0.080161 -0.145568 0.020296
v -0.087223 -0.144238 0.028328
v -0.080161 -0.144434 0.027326
v -0.087260 -0.142491 0.035754
v -0.080161 -0.142883 0.034274
v -0.081011 -0.140903 0.041014
v -0.082716 -0.139879 0.043931
v -0.085397 -0.139038 0.046115
v -0.089489 -0.141021 0.040657
v -0.088265 -0.141469 0.039260
v -0.094872 -0.140541 0.042080
v -0.091119 -0.140720 0.041558
v -0.092249 -0.138419 0.047619
v -0.103131 -0.142499 0.035723
v -0.101529 -0.141553 0.038986
v -0.098580 -0.140809 0.041293
v -0.099151 -0.139003 0.046200
v -0.110665 -0.145591 0.020118
v -0.103546 -0.145499 0.020802
v -0.110665 -0.144500 0.026974
v -0.103546 -0.144238 0.028328
v -0.110665 -0.143015 0.033754
v -0.110668 -0.141098 0.040422
v -0.071536 -0.145592 0.020114
v -0.071536 -0.146322 0.013213
v -0.064417 -0.146322 0.013213
v -0.064417 -0.145592 0.020114
v -0.071536 -0.144501 0.026967
v -0.064417 -0.144501 0.026967
v -0.071536 -0.143017 0.033746
v -0.064417 -0.143017 0.033746
v -0.071536 -0.141100 0.040415
v -0.064417 -0.141100 0.040415
v -0.064417 -0.138707 0.046928
v -0.071536 -0.138707 0.046928
v -0.071536 -0.144906 0.024694
v -0.064417 -0.144906 0.024694
v -0.071536 -0.142427 0.035987
v -0.064417 -0.142427 0.035987
v -0.067977 -0.134868 0.054954
v -0.067977 -0.136898 0.051002
v -0.063607 -0.134868 0.054954
v -0.067948 -0.132591 0.058768
v -0.067977 -0.132591 0.058768
v -0.072347 -0.134868 0.054954
v -0.065711 -0.136686 0.051442
v -0.064772 -0.136379 0.052068
v -0.064092 -0.135952 0.052916
v -0.063607 -0.134886 0.054921
v -0.064092 -0.133756 0.056892
v -0.065686 -0.132880 0.058318
v -0.071868 -0.135935 0.052949
v -0.071190 -0.136362 0.052103
v -0.070254 -0.136673 0.051469
v -0.067986 -0.136898 0.051002
v -0.070211 -0.132877 0.058322
v -0.071833 -0.133741 0.056918
v -0.051007 -0.145640 0.019742
v -0.051007 -0.144500 0.026977
v -0.051007 -0.142920 0.034129
v -0.051007 -0.140855 0.041156
v -0.051007 -0.138256 0.048002
v -0.044254 -0.146373 0.012562
v -0.037501 -0.146318 0.013271
v -0.037501 -0.145747 0.018890
v -0.044254 -0.145682 0.019416
v -0.044254 -0.140689 0.041650
v -0.037501 -0.140689 0.041650
v -0.037501 -0.138707 0.046928
v -0.044254 -0.138707 0.046928
v -0.044585 -0.145640 0.019742
v -0.051007 -0.146022 0.016465
v -0.045605 -0.144500 0.026977
v -0.045605 -0.142920 0.034129
v -0.045605 -0.140856 0.041156
v -0.045605 -0.140689 0.041650
v -0.045605 -0.138707 0.046928
v -0.045605 -0.138256 0.048002
v -0.045605 -0.135066 0.054593
v -0.051007 -0.135066 0.054593
v -0.052409 -0.145640 0.019742
v -0.052725 -0.144500 0.026977
v -0.052725 -0.142920 0.034129
v -0.052725 -0.140856 0.041156
v -0.052725 -0.138256 0.048002
v -0.052725 -0.138707 0.046928
v -0.057760 -0.138707 0.046928
v -0.057760 -0.140689 0.041650
v -0.052725 -0.140689 0.041650
v -0.052725 -0.135066 0.054593
v -0.043280 -0.146380 0.012477
v -0.041777 -0.145798 0.018468
v -0.043807 -0.145722 0.019092
v -0.050905 -0.146037 0.016319
v -0.048798 -0.146236 0.014226
v -0.044631 -0.145633 0.019797
v -0.045189 -0.145511 0.020714
v -0.045605 -0.144867 0.024928
v -0.045605 -0.144067 0.029167
v -0.045605 -0.143110 0.033374
v -0.045605 -0.141987 0.037538
v -0.052171 -0.145749 0.018869
v -0.052725 -0.144920 0.024614
v -0.052725 -0.143811 0.030367
v -0.052725 -0.142409 0.036053
v -0.018825 -0.140912 0.040985
v -0.024980 -0.145572 0.020263
v -0.024980 -0.144446 0.027262
v -0.024980 -0.142906 0.034182
v -0.024980 -0.140912 0.040985
v -0.018825 -0.140940 0.040902
v -0.018614 -0.140912 0.040985
v -0.012670 -0.140762 0.041433
v -0.012670 -0.138530 0.047354
v -0.018825 -0.138727 0.046880
v -0.024980 -0.146322 0.013213
v -0.023783 -0.146322 0.013213
v -0.023783 -0.145572 0.020263
v -0.023783 -0.144446 0.027262
v -0.023665 -0.142907 0.034183
v -0.024652 -0.140726 0.041542
v -0.024980 -0.138761 0.046799
v -0.030845 -0.145572 0.020263
v -0.030845 -0.146322 0.013213
v -0.030845 -0.144446 0.027262
v -0.030845 -0.142906 0.034182
v -0.030855 -0.140913 0.040985
v -0.024999 -0.138707 0.046928
v -0.031134 -0.138707 0.046928
v -0.017843 -0.140829 0.041236
v -0.015561 -0.138432 0.047587
v -0.018416 -0.138667 0.047027
v -0.023783 -0.145806 0.018396
v -0.023783 -0.145093 0.023555
v -0.023783 -0.144167 0.028679
v -0.023714 -0.143016 0.033754
v -0.022036 -0.141720 0.038442
v -0.020189 -0.141177 0.040177
v -0.020988 -0.139182 0.045752
v -0.023094 -0.139902 0.043867
v -0.030845 -0.145591 0.020118
v -0.030845 -0.144500 0.026975
v -0.030845 -0.143015 0.033755
v -0.030849 -0.141097 0.040424
v 0.037066 -0.145651 0.019660
v 0.037066 -0.140960 0.040841
v 0.052723 -0.145651 0.019660
v 0.052723 -0.140960 0.040841
v 0.037066 -0.146183 0.014816
v 0.032128 -0.145651 0.019659
v 0.029505 -0.144530 0.026814
v 0.036614 -0.144531 0.026814
v 0.037066 -0.144879 0.024853
v 0.036553 -0.142981 0.033888
v 0.036530 -0.143021 0.033731
v 0.037066 -0.143021 0.033731
v 0.037066 -0.144164 0.028692
v 0.036415 -0.144164 0.028692
v 0.029488 -0.142981 0.033888
v 0.037066 -0.142375 0.036177
v 0.032079 -0.140960 0.040841
v 0.037066 -0.139254 0.045569
v 0.044895 -0.146379 0.012490
v 0.040723 -0.145651 0.019660
v 0.044894 -0.145830 0.018199
v 0.044894 -0.143021 0.033731
v 0.044894 -0.144164 0.028692
v 0.040192 -0.140960 0.040841
v 0.044895 -0.140445 0.042355
v 0.044894 -0.138419 0.047619
v 0.052723 -0.146294 0.013553
v 0.051284 -0.145651 0.019660
v 0.052723 -0.145443 0.021208
v 0.052723 -0.143021 0.033731
v 0.052723 -0.144164 0.028692
v 0.052723 -0.142185 0.036852
v 0.050021 -0.140960 0.040841
v 0.052723 -0.139131 0.045880
v 0.059341 -0.145651 0.019660
v 0.053895 -0.145114 0.023419
v 0.059799 -0.145517 0.020672
v 0.053374 -0.143021 0.033731
v 0.053357 -0.142981 0.033888
v 0.060337 -0.142981 0.033888
v 0.060436 -0.144164 0.028692
v 0.058019 -0.140960 0.040841
v 0.033717 -0.145901 0.017576
v 0.037007 -0.144845 0.025050
v 0.030068 -0.144980 0.024251
v 0.029272 -0.143499 0.031754
v 0.031027 -0.141558 0.038970
v 0.035715 -0.139593 0.044692
v 0.041397 -0.145703 0.019247
v 0.040112 -0.146308 0.013391
v 0.038611 -0.145372 0.021710
v 0.037510 -0.142036 0.037369
v 0.039693 -0.141094 0.040432
v 0.042751 -0.138480 0.047474
v 0.043099 -0.140512 0.042163
v 0.048724 -0.145802 0.018432
v 0.044982 -0.145831 0.018190
v 0.047750 -0.146378 0.012509
v 0.051944 -0.145572 0.020263
v 0.050424 -0.141069 0.040509
v 0.052524 -0.142027 0.037399
v 0.050394 -0.138740 0.046849
v 0.046984 -0.140510 0.042171
v 0.055066 -0.146189 0.014750
v 0.059914 -0.142382 0.036151
v 0.056643 -0.140303 0.042759
v 0.091669 -0.145467 0.021034
v 0.091669 -0.144144 0.028789
v 0.091669 -0.142302 0.036438
v 0.091669 -0.139882 0.043923
v 0.091669 -0.136819 0.051167
v 0.098418 -0.142302 0.036438
v 0.105168 -0.142302 0.036438
v 0.111917 -0.145467 0.021034
v 0.111917 -0.144144 0.028789
v 0.111917 -0.142302 0.036438
v 0.111917 -0.139882 0.043923
v 0.111917 -0.136819 0.051167
v 0.091669 -0.146322 0.013213
v 0.084920 -0.146322 0.013213
v 0.084920 -0.145467 0.021034
v 0.084920 -0.144144 0.028789
v 0.084920 -0.142302 0.036437
v 0.084920 -0.139882 0.043922
v 0.084920 -0.136819 0.051167
v 0.084920 -0.133040 0.058063
v 0.091669 -0.133040 0.058064
v 0.092503 -0.145467 0.021034
v 0.092503 -0.145704 0.019236
v 0.098418 -0.145704 0.019236
v 0.098418 -0.146322 0.013213
v 0.092503 -0.144145 0.028789
v 0.098418 -0.142851 0.034398
v 0.092503 -0.142851 0.034398
v 0.092503 -0.139882 0.043922
v 0.092503 -0.141176 0.040180
v 0.098418 -0.141176 0.040180
v 0.092503 -0.136819 0.051167
v 0.098418 -0.136075 0.052675
v 0.092503 -0.136075 0.052675
v 0.098418 -0.133040 0.058064
v 0.105167 -0.145679 0.019434
v 0.105168 -0.146322 0.013213
v 0.105167 -0.142900 0.034208
v 0.105168 -0.141030 0.040630
v 0.105167 -0.136301 0.052224
v 0.105167 -0.133049 0.058049
v 0.108617 -0.145467 0.021034
v 0.111917 -0.146195 0.014685
v 0.110856 -0.144145 0.028789
v 0.108691 -0.139882 0.043923
v 0.111917 -0.141673 0.038595
v 0.109578 -0.141968 0.037604
v 0.111916 -0.142195 0.036815
v 0.107100 -0.136819 0.051167
v 0.111916 -0.134187 0.056159
v 0.117704 -0.145467 0.021034
v 0.118467 -0.144144 0.028789
v 0.112711 -0.142302 0.036438
v 0.116373 -0.139882 0.043923
v 0.116103 -0.136819 0.051167
v 0.084920 -0.145241 0.022598
v 0.084920 -0.143471 0.031874
v 0.084920 -0.140920 0.040962
v 0.084920 -0.137483 0.049749
v 0.091487 -0.133040 0.058064
v 0.092114 -0.146322 0.013213
v 0.097647 -0.145704 0.019236
v 0.097647 -0.142851 0.034398
v 0.097096 -0.141176 0.040180
v 0.092503 -0.138871 0.046528
v 0.098054 -0.133040 0.058064
v 0.097096 -0.136075 0.052675
v 0.099308 -0.146322 0.013213
v 0.102790 -0.145704 0.019236
v 0.102790 -0.142851 0.034398
v 0.101689 -0.141176 0.040180
v 0.104622 -0.133041 0.058062
v 0.101689 -0.136075 0.052675
v 0.106500 -0.146319 0.013256
v 0.107730 -0.145554 0.020394
v 0.110712 -0.144959 0.024377
v 0.109646 -0.145309 0.022140
v 0.107738 -0.143131 0.033289
v 0.109666 -0.143537 0.031587
v 0.110722 -0.144024 0.029372
v 0.107882 -0.140397 0.042495
v 0.106133 -0.140891 0.041048
v 0.107851 -0.137171 0.050425
v 0.108823 -0.138002 0.048589
v 0.108846 -0.139708 0.044388
v 0.110919 -0.133869 0.056702
v 0.106117 -0.136504 0.051816
v 0.113254 -0.146122 0.015466
v 0.117674 -0.145478 0.020957
v 0.118590 -0.144319 0.027916
v 0.117722 -0.143611 0.031265
v 0.115730 -0.142901 0.034201
v 0.112528 -0.141560 0.038962
v 0.114893 -0.140873 0.041103
v 0.116354 -0.139904 0.043862
v 0.116812 -0.138733 0.046866
v 0.115408 -0.136101 0.052623
v 0.132731 -0.145450 0.021162
v 0.132731 -0.136537 0.051748
v 0.140487 -0.144092 0.029043
v 0.148244 -0.142197 0.036811
v 0.148244 -0.141008 0.040695
v 0.148244 -0.138181 0.048177
v 0.148244 -0.136537 0.051748
v 0.132731 -0.146322 0.013213
v 0.124975 -0.146322 0.013213
v 0.124975 -0.145836 0.018141
v 0.127958 -0.145450 0.021161
v 0.132730 -0.144688 0.025953
v 0.131332 -0.138181 0.048177
v 0.130879 -0.138663 0.047034
v 0.128777 -0.138181 0.048177
v 0.126283 -0.136537 0.051748
v 0.132731 -0.133441 0.057415
v 0.137041 -0.145450 0.021162
v 0.135162 -0.145704 0.019236
v 0.140487 -0.145704 0.019236
v 0.140487 -0.146322 0.013213
v 0.140487 -0.144909 0.024675
v 0.135834 -0.144093 0.029041
v 0.140487 -0.143047 0.033626
v 0.140487 -0.132624 0.058718
v 0.140487 -0.135702 0.053400
v 0.134275 -0.136537 0.051749
v 0.148244 -0.145704 0.019236
v 0.148244 -0.146322 0.013213
v 0.144811 -0.144093 0.029042
v 0.148244 -0.143327 0.032484
v 0.143751 -0.142197 0.036810
v 0.146985 -0.141009 0.040695
v 0.148244 -0.138289 0.047925
v 0.148180 -0.138181 0.048177
v 0.148244 -0.133575 0.057193
v 0.145796 -0.136537 0.051748
v 0.156000 -0.145704 0.019236
v 0.156000 -0.146322 0.013213
v 0.152136 -0.142197 0.036811
v 0.154661 -0.141008 0.040695
v 0.155574 -0.138181 0.048177
v 0.155688 -0.139701 0.044407
v 0.148374 -0.139701 0.044407
v 0.154339 -0.136537 0.051748
v 0.125496 -0.137391 0.049950
v 0.132731 -0.137201 0.050361
v 0.148244 -0.139961 0.043708
v 0.129021 -0.145296 0.022233
v 0.129666 -0.134440 0.055718
v 0.133075 -0.144625 0.026297
v 0.137136 -0.143819 0.030329
v 0.136323 -0.136014 0.052794
v 0.139143 -0.135720 0.053364
v 0.136696 -0.132791 0.058457
v 0.140600 -0.144890 0.024789
v 0.141201 -0.142870 0.034324
v 0.146051 -0.143829 0.030286
v 0.145198 -0.141749 0.038341
v 0.142035 -0.135768 0.053272
v 0.144739 -0.136202 0.052423
v 0.144469 -0.132855 0.058357
v 0.151350 -0.142462 0.035857
v 0.151343 -0.134661 0.055326
v 0.133879 -0.136680 0.051455
v 0.148069 -0.140199 0.043051
v 0.155249 -0.140481 0.042255
v 0.146908 -0.137055 0.050672
v 0.148129 -0.138104 0.048354
v 0.155290 -0.137632 0.049421
vn -0.0002 0.9913 0.1317
vn -0.0000 0.9967 0.0809
vn 0.0000 0.9967 0.0809
vn -0.0002 0.9913 0.1317
vn -0.0000 0.9823 0.1871
vn -0.0000 0.9908 0.1356
vn -0.0000 0.9913 0.1318
vn -0.0000 0.9823 0.1871
vn 0.0000 0.9687 0.2481
vn 0.0000 0.9806 0.1960
vn -0.0000 0.9822 0.1876
vn -0.0000 0.9687 0.2481
vn -0.0000 0.9573 0.2890
vn 0.0000 0.9648 0.2630
vn -0.0000 0.9685 0.2490
vn 0.0000 0.9490 0.3153
vn 0.0000 0.9490 0.3153
vn -0.0000 0.9452 0.3266
vn -0.0000 0.9450 0.3270
vn -0.0000 0.9469 0.3214
vn -0.0000 0.9490 0.3153
vn -0.0000 0.9236 0.3833
vn -0.0000 0.9211 0.3893
vn 0.0000 0.9225 0.3859
vn -0.0000 0.9490 0.3154
vn -0.0000 0.9479 0.3186
vn -0.0000 0.9279 0.3727
vn -0.0000 0.9413 0.3375
vn 0.0000 0.9490 0.3153
vn 0.0000 0.9687 0.2481
vn -0.0000 0.9657 0.2596
vn -0.0000 0.9490 0.3153
vn 0.0000 0.9509 0.3095
vn 0.0000 0.9687 0.2482
vn 0.0000 0.9824 0.1870
vn -0.0000 0.9806 0.1960
vn 0.0000 0.9697 0.2441
vn 0.0000 0.9823 0.1871
vn 0.0000 0.9913 0.1318
vn -0.0000 0.9908 0.1356
vn 0.0000 0.9828 0.1847
vn -0.0000 0.9913 0.1317
vn -0.0000 0.9914 0.1305
vn 0.0000 0.9967 0.0809
vn -0.0000 0.9967 0.0809
vn 0.0000 0.9466 0.3224
vn -0.0000 0.9245 0.3812
vn -0.0000 0.9245 0.3812
vn 0.0000 0.9649 0.2627
vn -0.0000 0.9556 0.2948
vn 0.0000 0.9489 0.3157
vn 0.0000 0.9378 0.3471
vn -0.0000 0.9283 0.3718
vn -0.0000 0.9501 0.3119
vn -0.0000 0.9547 0.2976
vn 0.0000 0.9954 0.0961
vn -0.0000 0.9953 0.0967
vn -0.0000 0.9911 0.1330
vn -0.0000 0.9911 0.1330
vn 0.0000 0.9806 0.1961
vn -0.0000 0.9853 0.1706
vn -0.0000 0.9899 0.1417
vn 0.0000 0.9911 0.1330
vn -0.0000 0.9806 0.1961
vn -0.0000 0.9806 0.1961
vn 0.0000 0.9800 0.1990
vn 0.0000 0.9639 0.2664
vn -0.0000 0.9639 0.2663
vn 0.0000 0.9388 0.3446
vn 0.0000 0.9446 0.3282
vn 0.0000 0.9583 0.2857
vn -0.0000 0.9639 0.2663
vn -0.0000 0.9383 0.3458
vn 0.0000 0.9388 0.3446
vn -0.0000 0.9380 0.3465
vn -0.0000 0.9021 0.4316
vn -0.0000 0.9020 0.4317
vn 0.0000 0.8474 0.5310
vn -0.0000 0.8474 0.5310
vn -0.0000 0.8800 0.4749
vn 0.0000 0.9020 0.4317
vn 0.0000 0.9015 0.4328
vn 0.0000 0.8474 0.5310
vn -0.0000 0.9063 0.4226
vn -0.0000 0.9271 0.3749
vn 0.0000 0.9632 0.2688
vn -0.0000 0.9697 0.2443
vn 0.0000 0.9748 0.2229
vn 0.0000 0.9903 0.1387
vn -0.0000 0.9922 0.1250
vn -0.0000 0.9923 0.1242
vn 0.0000 0.9970 0.0778
vn 0.0000 0.9970 0.0780
vn -0.0000 0.9927 0.1204
vn 0.0000 0.9924 0.1233
vn -0.0000 0.9970 0.0779
vn 0.0000 0.9921 0.1251
vn 0.0000 0.9911 0.1329
vn 0.0000 0.9911 0.1330
vn -0.0000 0.9954 0.0963
vn -0.0000 0.9969 0.0781
vn 0.0000 0.9823 0.1871
vn 0.0000 0.9806 0.1961
vn 0.0000 0.9806 0.1960
vn 0.0000 0.9903 0.1387
vn 0.0000 0.9911 0.1330
vn -0.0000 0.9749 0.2227
vn -0.0000 0.9697 0.2443
vn 0.0000 0.9639 0.2663
vn 0.0000 0.9639 0.2663
vn 0.0000 0.9800 0.1990
vn -0.0000 0.9583 0.2857
vn -0.0000 0.9446 0.3282
vn 0.0000 0.9388 0.3446
vn 0.0000 0.9388 0.3446
vn -0.0000 0.9632 0.2688
vn -0.0000 0.9271 0.3749
vn 0.0000 0.9064 0.4225
vn 0.0000 0.9020 0.4317
vn -0.0000 0.9020 0.4317
vn 0.0000 0.9381 0.3465
vn -0.0000 0.8800 0.4749
vn -0.0000 0.8474 0.5310
vn -0.0000 0.8474 0.5310
vn -0.0000 0.9015 0.4327
vn 0.0000 0.9953 0.0968
vn -0.0000 0.9899 0.1417
vn -0.0000 0.9853 0.1706
vn -0.0000 0.9915 0.1304
vn -0.0000 0.9967 0.0809
vn 0.0000 0.9967 0.0809
vn -0.0000 0.9915 0.1304
vn -0.0000 0.9828 0.1848
vn -0.0000 0.9861 0.1660
vn -0.0000 0.9861 0.1660
vn 0.0000 0.9828 0.1848
vn -0.0000 0.9697 0.2441
vn -0.0000 0.9697 0.2441
vn -0.0000 0.9509 0.3096
vn -0.0000 0.9642 0.2652
vn -0.0000 0.9642 0.2652
vn -0.0000 0.9509 0.3096
vn 0.0000 0.9245 0.3812
vn -0.0000 0.9245 0.3812
vn 0.0000 0.9024 0.4309
vn 0.0000 0.8997 0.4365
vn 0.0000 0.8957 0.4446
vn -0.0000 0.8901 0.4557
vn 0.0000 0.8757 0.4829
vn 0.0000 0.8754 0.4834
vn -0.0000 0.8754 0.4834
vn -0.0000 0.8398 0.5429
vn 0.0000 0.8446 0.5354
vn 0.0000 0.8587 0.5125
vn -0.0000 0.8754 0.4834
vn -0.0000 0.8589 0.5121
vn 0.0000 0.8447 0.5353
vn -0.0000 0.8398 0.5430
vn -0.0000 0.8899 0.4562
vn 0.0000 0.8955 0.4451
vn 0.0000 0.8995 0.4369
vn 0.0000 0.9024 0.4309
vn 0.0000 0.9971 0.0765
vn -0.0000 0.9971 0.0759
vn 0.0000 0.9967 0.0813
vn 0.0000 0.9926 0.1213
vn 0.0000 0.9930 0.1182
vn 0.0000 0.9924 0.1228
vn 0.0000 0.9921 0.1252
vn -0.0000 0.9918 0.1276
vn -0.0000 0.9918 0.1276
vn -0.0000 0.9946 0.1036
vn -0.0000 0.9947 0.1026
vn 0.0000 0.9961 0.0879
vn -0.0000 0.9828 0.1847
vn -0.0000 0.9862 0.1654
vn -0.0000 0.9918 0.1276
vn -0.0000 0.9828 0.1847
vn 0.0000 0.9828 0.1847
vn 0.0000 0.9791 0.2032
vn -0.0000 0.9706 0.2406
vn 0.0000 0.9689 0.2476
vn -0.0000 0.9689 0.2476
vn 0.0000 0.9484 0.3172
vn -0.0000 0.9640 0.2659
vn -0.0000 0.9689 0.2476
vn -0.0000 0.9484 0.3171
vn 0.0000 0.9484 0.3172
vn 0.0000 0.9466 0.3224
vn -0.0000 0.9466 0.3224
vn -0.0000 0.9245 0.3812
vn 0.0000 0.9245 0.3812
vn -0.0000 0.9192 0.3939
vn -0.0000 0.9191 0.3941
vn -0.0000 0.8782 0.4784
vn -0.0000 0.8782 0.4784
vn -0.0000 0.9191 0.3939
vn 0.0000 0.8782 0.4784
vn 0.0000 0.9466 0.3224
vn 0.0000 0.9245 0.3812
vn 0.0000 0.9245 0.3812
vn -0.0000 0.9245 0.3812
vn -0.0000 0.9466 0.3224
vn 0.0000 0.9466 0.3224
vn 0.0000 0.9599 0.2803
vn -0.0000 0.9769 0.2136
vn 0.0000 0.9926 0.1211
vn 0.0000 0.9918 0.1280
vn 0.0000 0.9909 0.1349
vn 0.0000 0.9858 0.1679
vn -0.0000 0.9493 0.3145
vn -0.0000 0.9490 0.3153
vn 0.0000 0.9490 0.3153
vn -0.0000 0.9247 0.3806
vn 0.0000 0.9300 0.3676
vn -0.0000 0.9381 0.3464
vn 0.0000 0.9470 0.3212
vn 0.0000 0.9251 0.3797
vn -0.0000 0.9490 0.3153
vn 0.0000 0.9490 0.3154
vn -0.0000 0.9509 0.3095
vn 0.0000 0.9687 0.2481
vn -0.0000 0.9687 0.2481
vn -0.0000 0.9823 0.1871
vn 0.0000 0.9800 0.1990
vn 0.0000 0.9697 0.2441
vn -0.0000 0.9687 0.2481
vn 0.0000 0.9823 0.1871
vn -0.0000 0.9824 0.1870
vn 0.0000 0.9828 0.1847
vn -0.0001 0.9913 0.1317
vn -0.0000 0.9913 0.1315
vn -0.0000 0.9967 0.0809
vn 0.0000 0.9967 0.0809
vn 0.0000 0.9931 0.1176
vn 0.0000 0.9913 0.1315
vn 0.0000 0.9914 0.1305
vn 0.0000 0.9967 0.0809
vn 0.0000 0.9876 0.1569
vn -0.0000 0.9697 0.2442
vn 0.0000 0.9245 0.3812
vn -0.0000 0.9245 0.3812
vn -0.0000 0.9481 0.3180
vn -0.0000 0.9474 0.3201
vn -0.0000 0.9224 0.3862
vn 0.0000 0.9212 0.3890
vn -0.0000 0.9240 0.3824
vn -0.0000 0.9572 0.2893
vn 0.0000 0.9517 0.3070
vn 0.0000 0.9919 0.1270
vn -0.0000 0.9919 0.1270
vn -0.0000 0.9938 0.1116
vn 0.0000 0.9958 0.0920
vn 0.0000 0.9919 0.1270
vn 0.0000 0.9898 0.1426
vn 0.0000 0.9859 0.1673
vn -0.0000 0.9932 0.1162
vn 0.0000 0.9923 0.1239
vn 0.0000 0.9966 0.0821
vn -0.0000 0.9971 0.0760
vn 0.0000 0.9919 0.1270
vn -0.0000 0.9919 0.1270
vn 0.0000 0.9930 0.1179
vn 0.0000 0.9932 0.1161
vn 0.0000 0.9971 0.0761
vn -0.0000 0.9965 0.0832
vn 0.0000 0.9919 0.1270
vn -0.0000 0.9909 0.1346
vn -0.0000 0.9878 0.1559
vn 0.0000 0.9903 0.1387
vn -0.0000 0.9958 0.0915
vn -0.0000 0.9913 0.1315
vn -0.0000 0.9856 0.1689
vn -0.0000 0.9831 0.1831
vn -0.0000 0.9831 0.1833
vn 0.0000 0.9867 0.1625
vn 0.0000 0.9694 0.2454
vn -0.0000 0.9741 0.2259
vn -0.0000 0.9800 0.1991
vn 0.0000 0.9800 0.1991
vn 0.0000 0.9698 0.2439
vn -0.0000 0.9698 0.2439
vn 0.0000 0.9694 0.2454
vn 0.0000 0.9800 0.1991
vn -0.0000 0.9698 0.2439
vn 0.0000 0.9800 0.1991
vn -0.0000 0.9698 0.2439
vn -0.0000 0.9800 0.1992
vn -0.0000 0.9694 0.2454
vn 0.0000 0.9694 0.2454
vn -0.0000 0.9698 0.2439
vn 0.0000 0.9638 0.2668
vn 0.0000 0.9495 0.3139
vn -0.0000 0.9495 0.3138
vn -0.0000 0.9619 0.2735
vn 0.0000 0.9294 0.3690
vn -0.0000 0.9249 0.3803
vn 0.0000 0.9211 0.3894
vn -0.0000 0.9440 0.3299
vn 0.0000 0.9447 0.3279
vn 0.0000 0.9495 0.3139
vn -0.0000 0.9218 0.3876
vn -0.0000 0.9308 0.3655
vn 0.0000 0.9495 0.3139
vn -0.0000 0.9495 0.3138
vn 0.0000 0.9447 0.3278
vn -0.0000 0.9637 0.2670
vn 0.0000 0.9604 0.2786
vn -0.0000 0.9509 0.3096
vn -0.0000 0.9346 0.3556
vn -0.0000 0.9495 0.3138
vn 0.0000 0.9506 0.3104
vn 0.0000 0.9603 0.2790
vn 0.0000 0.9425 0.3343
vn -0.0000 0.9556 0.2946
vn -0.0001 0.9905 0.1375
vn -0.0001 0.9905 0.1375
vn -0.0000 0.9967 0.0809
vn -0.0000 0.9967 0.0809
vn 0.0000 0.9798 0.2000
vn 0.0001 0.9905 0.1374
vn -0.0000 0.9798 0.2000
vn -0.0000 0.9630 0.2696
vn -0.0000 0.9630 0.2696
vn -0.0000 0.9682 0.2501
vn -0.0000 0.9682 0.2501
vn 0.0000 0.9682 0.2501
vn 0.0000 0.9379 0.3470
vn -0.0000 0.9379 0.3470
vn -0.0000 0.9491 0.3151
vn -0.0000 0.9630 0.2696
vn -0.0000 0.9014 0.4330
vn -0.0000 0.9379 0.3470
vn -0.0000 0.9264 0.3766
vn -0.0000 0.9014 0.4330
vn -0.0000 0.8474 0.5310
vn -0.0000 0.8474 0.5310
vn -0.0000 0.8474 0.5310
vn 0.0000 0.8917 0.4526
vn 0.0000 0.8917 0.4526
vn -0.0000 0.8917 0.4526
vn 0.0000 0.8475 0.5308
vn 0.0000 0.8474 0.5310
vn 0.0000 0.8917 0.4526
vn -0.0000 0.8947 0.4466
vn 0.0000 0.9014 0.4330
vn 0.0000 0.8655 0.5009
vn 0.0000 0.8607 0.5092
vn -0.0000 0.8973 0.4414
vn -0.0000 0.9014 0.4330
vn -0.0000 0.9014 0.4330
vn -0.0000 0.8921 0.4519
vn 0.0000 0.9379 0.3470
vn -0.0000 0.9379 0.3470
vn -0.0000 0.9248 0.3805
vn -0.0000 0.9568 0.2908
vn 0.0000 0.9556 0.2945
vn 0.0000 0.9486 0.3166
vn 0.0000 0.9381 0.3463
vn 0.0000 0.9630 0.2696
vn -0.0000 0.9630 0.2696
vn -0.0000 0.9620 0.2732
vn -0.0000 0.9597 0.2810
vn -0.0000 0.9379 0.3470
vn -0.0000 0.9435 0.3314
vn -0.0000 0.9488 0.3160
vn -0.0000 0.9502 0.3116
vn -0.0000 0.9630 0.2696
vn 0.0000 0.9798 0.2000
vn 0.0000 0.9798 0.2000
vn 0.0000 0.9751 0.2216
vn -0.0000 0.9687 0.2483
vn -0.0000 0.9905 0.1374
vn 0.0000 0.9905 0.1374
vn -0.0000 0.9813 0.1926
vn 0.0000 0.9958 0.0911
vn -0.0000 0.9953 0.0966
vn 0.0000 0.9906 0.1368
vn -0.0000 0.9967 0.0809
vn -0.0000 0.9967 0.0812
vn -0.0000 0.9905 0.1374
vn -0.0000 0.9912 0.1325
vn -0.0000 0.9921 0.1253
vn -0.0000 0.9967 0.0809
vn -0.0000 0.9967 0.0809
vn -0.0000 0.9923 0.1238
vn -0.0000 0.9923 0.1239
vn 0.0000 0.9798 0.2000
vn 0.0000 0.9865 0.1635
vn 0.0000 0.9893 0.1459
vn 0.0000 0.9687 0.2484
vn 0.0000 0.9708 0.2399
vn 0.0000 0.9745 0.2245
vn 0.0000 0.9788 0.2050
vn -0.0000 0.9058 0.4236
vn 0.0000 0.9161 0.4010
vn -0.0000 0.9359 0.3522
vn -0.0000 0.8474 0.5310
vn -0.0000 0.8474 0.5310
vn -0.0000 0.9014 0.4330
vn 0.0000 0.9097 0.4152
vn -0.0000 0.9517 0.3070
vn 0.0000 0.9517 0.3070
vn -0.0000 0.9682 0.2501
vn 0.0000 0.9517 0.3070
vn -0.0000 0.9517 0.3070
vn 0.0000 0.9739 0.2270
vn -0.0000 0.9798 0.2000
vn 0.0000 0.9967 0.0809
vn -0.0000 0.9923 0.1238
vn 0.0000 0.9923 0.1239
vn -0.0000 0.9888 0.1495
vn -0.0000 0.9904 0.1384
vn -0.0000 0.9904 0.1384
vn -0.0000 0.9933 0.1158
vn -0.0000 0.9967 0.0809
vn 0.0000 0.9967 0.0809
vn -0.0000 0.9794 0.2021
vn -0.0000 0.9794 0.2021
vn 0.0000 0.9838 0.1790
vn 0.0000 0.9843 0.1762
vn -0.0000 0.9904 0.1384
vn 0.0000 0.9861 0.1659
vn -0.0000 0.9620 0.2732
vn 0.0000 0.9620 0.2732
vn 0.0000 0.9684 0.2494
vn 0.0000 0.9700 0.2430
vn 0.0000 0.9794 0.2022
vn 0.0000 0.9771 0.2129
vn 0.0000 0.9726 0.2325
vn -0.0000 0.9500 0.3123
vn 0.0000 0.9620 0.2732
vn 0.0000 0.9500 0.3123
vn 0.0001 0.9358 0.3524
vn -0.0000 0.9387 0.3446
vn 0.0000 0.9444 0.3288
vn 0.0000 0.9359 0.3524
vn -0.0000 0.9182 0.3960
vn -0.0000 0.9195 0.3930
vn 0.0000 0.9183 0.3960
vn -0.0001 0.8978 0.4405
vn 0.0000 0.9116 0.4111
vn 0.0000 0.8978 0.4405
vn 0.0000 0.8725 0.4887
vn -0.0000 0.8561 0.5169
vn 0.0000 0.8868 0.4622
vn -0.0000 0.8877 0.4605
vn -0.0000 0.8934 0.4492
vn -0.0000 0.8978 0.4405
vn 0.0000 0.8443 0.5359
vn 0.0000 0.8403 0.5421
vn -0.0000 0.8978 0.4405
vn -0.0000 0.8978 0.4405
vn 0.0000 0.8909 0.4541
vn 0.0000 0.8870 0.4617
vn 0.0000 0.8432 0.5376
vn -0.0000 0.8539 0.5204
vn 0.0003 0.9061 0.4230
vn -0.0000 0.8996 0.4367
vn -0.0000 0.9182 0.3960
vn -0.0000 0.8978 0.4405
vn -0.0000 0.9086 0.4177
vn 0.0000 0.9183 0.3960
vn -0.0000 0.9240 0.3824
vn -0.0000 0.8693 0.4944
vn -0.0000 0.9044 0.4267
vn -0.0000 0.9173 0.3982
vn 0.0001 0.9182 0.3960
vn 0.0000 0.9414 0.3374
vn -0.0000 0.9500 0.3123
vn 0.0000 0.9645 0.2640
vn -0.0000 0.9575 0.2883
vn 0.0000 0.9860 0.1668
vn -0.0000 0.9770 0.2133
vn -0.0000 0.9967 0.0809
vn -0.0000 0.9923 0.1238
vn 0.0000 0.9923 0.1238
vn 0.0000 0.9967 0.0809
vn -0.0000 0.9923 0.1238
vn 0.0000 0.9967 0.0809
vn 0.0000 0.9923 0.1238
vn -0.0000 0.9892 0.1466
vn -0.0000 0.9698 0.2439
vn 0.0000 0.9698 0.2439
vn -0.0000 0.9768 0.2143
vn -0.0000 0.9800 0.1991
vn -0.0000 0.9800 0.1991
vn 0.0000 0.9886 0.1508
vn 0.0001 0.9840 0.1781
vn -0.0000 0.9800 0.1991
vn 0.0000 0.9768 0.2143
vn 0.0000 0.9829 0.1840
vn 0.0000 0.9886 0.1507
vn 0.0000 0.9922 0.1246
vn -0.0000 0.9912 0.1322
vn -0.0000 0.9883 0.1526
vn 0.0004 0.9922 0.1245
vn -0.0000 0.9956 0.0934
vn 0.0000 0.9970 0.0773
vn 0.0000 0.9971 0.0762
vn -0.0000 0.9932 0.1166
vn -0.0000 0.9928 0.1195
vn 0.0000 0.9970 0.0777
vn -0.0000 0.9967 0.0817
vn 0.0000 0.9922 0.1246
vn -0.0000 0.9922 0.1246
vn -0.0000 0.9928 0.1195
vn -0.0000 0.9933 0.1158
vn -0.0000 0.9922 0.1246
vn 0.0000 0.9909 0.1347
vn 0.0000 0.9878 0.1559
vn -0.0000 0.9910 0.1336
vn 0.0000 0.9911 0.1329
vn -0.0000 0.9954 0.0955
vn 0.0000 0.9914 0.1310
vn 0.0000 0.9698 0.2440
vn -0.0000 0.9670 0.2548
vn 0.0000 0.9664 0.2570
vn 0.0000 0.9586 0.2848
vn 0.0000 0.9586 0.2848
vn 0.0000 0.9693 0.2459
vn 0.0001 0.9473 0.3203
vn -0.0000 0.9317 0.3633
vn 0.0000 0.9508 0.3098
vn 0.0000 0.9473 0.3202
vn -0.0000 0.9468 0.3217
vn -0.0000 0.9440 0.3299
vn -0.0000 0.9211 0.3893
vn 0.0000 0.9213 0.3888
vn -0.0000 0.9441 0.3297
vn -0.0000 0.9474 0.3202
vn 0.0000 0.9474 0.3202
vn -0.0000 0.9292 0.3697
vn 0.0000 0.9260 0.3775
vn 0.0000 0.9473 0.3202
vn -0.0000 0.9439 0.3302
vn 0.0000 0.9610 0.2767
vn 0.0000 0.9664 0.2569
vn -0.0000 0.9664 0.2570
vn -0.0000 0.9644 0.2645
vn 0.0000 0.9698 0.2440
vn 0.0000 0.9698 0.2439
vn 0.0000 0.9800 0.1991
vn -0.0000 0.9800 0.1992
vn 0.0000 0.9487 0.3160
vn -0.0000 0.9592 0.2829
vn -0.0000 0.9664 0.2570
vn -0.0000 0.9562 0.2928
vn -0.0004 -0.9922 0.1245
vn 0.0000 -0.9956 0.0934
vn 0.0000 -0.9970 0.0773
vn 0.0000 -0.9971 0.0762
vn 0.0000 -0.9932 0.1166
vn 0.0000 -0.9928 0.1195
vn 0.0000 -0.9922 0.1246
vn 0.0000 -0.9970 0.0777
vn 0.0000 -0.9967 0.0817
vn -0.0000 -0.9922 0.1246
vn 0.0000 -0.9922 0.1246
vn 0.0000 -0.9928 0.1195
vn 0.0000 -0.9933 0.1158
vn -0.0000 -0.9922 0.1246
vn -0.0000 -0.9909 0.1346
vn -0.0000 -0.9878 0.1559
vn 0.0000 -0.9910 0.1336
vn -0.0000 -0.9911 0.1329
vn 0.0000 -0.9954 0.0955
vn -0.0000 -0.9886 0.1507
vn -0.0000 -0.9914 0.1310
vn 0.0000 -0.9886 0.1508
vn -0.0000 -0.9840 0.1781
vn 0.0000 -0.9800 0.1991
vn 0.0000 -0.9800 0.1991
vn 0.0000 -0.9768 0.2143
vn -0.0001 -0.9768 0.2143
vn -0.0000 -0.9829 0.1840
vn 0.0000 -0.9698 0.2439
vn -0.0000 -0.9698 0.2440
vn 0.0000 -0.9670 0.2548
vn -0.0000 -0.9664 0.2569
vn 0.0000 -0.9586 0.2848
vn -0.0000 -0.9586 0.2848
vn 0.0000 -0.9693 0.2459
vn -0.0001 -0.9473 0.3203
vn -0.0000 -0.9317 0.3633
vn -0.0000 -0.9508 0.3098
vn -0.0000 -0.9473 0.3202
vn 0.0000 -0.9468 0.3217
vn 0.0000 -0.9440 0.3299
vn 0.0000 -0.9211 0.3893
vn 0.0000 -0.9213 0.3888
vn -0.0000 -0.9441 0.3297
vn -0.0000 -0.9474 0.3202
vn -0.0000 -0.9474 0.3202
vn 0.0000 -0.9292 0.3697
vn 0.0000 -0.9260 0.3775
vn 0.0000 -0.9473 0.3202
vn 0.0000 -0.9439 0.3303
vn -0.0000 -0.9610 0.2767
vn 0.0000 -0.9664 0.2569
vn 0.0000 -0.9664 0.2570
vn 0.0000 -0.9644 0.2645
vn 0.0000 -0.9698 0.2440
vn 0.0000 -0.9698 0.2439
vn -0.0000 -0.9800 0.1991
vn 0.0000 -0.9800 0.1992
vn 0.0000 -0.9800 0.1991
vn 0.0000 -0.9698 0.2439
vn 0.0000 -0.9488 0.3160
vn 0.0000 -0.9591 0.2829
vn 0.0000 -0.9664 0.2569
vn -0.0000 -0.9562 0.2928
vn 0.0000 -0.9912 0.1322
vn 0.0000 -0.9883 0.1526
vn -0.0000 -0.9954 0.0961
vn -0.0000 -0.9953 0.0967
vn 0.0000 -0.9911 0.1330
vn 0.0000 -0.9911 0.1330
vn 0.0000 -0.9806 0.1961
vn 0.0000 -0.9853 0.1706
vn 0.0000 -0.9899 0.1417
vn 0.0000 -0.9911 0.1330
vn -0.0000 -0.9806 0.1961
vn -0.0000 -0.9806 0.1961
vn -0.0000 -0.9800 0.1990
vn -0.0000 -0.9639 0.2664
vn 0.0000 -0.9639 0.2663
vn -0.0000 -0.9388 0.3446
vn -0.0000 -0.9446 0.3281
vn 0.0000 -0.9583 0.2857
vn 0.0000 -0.9639 0.2663
vn 0.0000 -0.9383 0.3458
vn -0.0000 -0.9388 0.3445
vn -0.0000 -0.9380 0.3465
vn -0.0000 -0.9020 0.4317
vn -0.0000 -0.9020 0.4317
vn -0.0000 -0.8474 0.5310
vn -0.0000 -0.8474 0.5310
vn -0.0000 -0.8800 0.4749
vn 0.0000 -0.9020 0.4317
vn -0.0000 -0.9015 0.4328
vn -0.0000 -0.8474 0.5310
vn -0.0000 -0.9063 0.4226
vn 0.0000 -0.9271 0.3749
vn 0.0000 -0.9632 0.2688
vn 0.0000 -0.9697 0.2443
vn 0.0000 -0.9748 0.2229
vn 0.0000 -0.9903 0.1387
vn 0.0000 -0.9922 0.1250
vn -0.0000 -0.9923 0.1242
vn 0.0000 -0.9970 0.0778
vn -0.0000 -0.9970 0.0780
vn 0.0000 -0.9927 0.1204
vn -0.0000 -0.9924 0.1233
vn 0.0000 -0.9970 0.0779
vn 0.0000 -0.9921 0.1251
vn -0.0000 -0.9911 0.1330
vn -0.0000 -0.9911 0.1330
vn 0.0000 -0.9954 0.0963
vn 0.0000 -0.9969 0.0781
vn -0.0000 -0.9823 0.1871
vn -0.0000 -0.9806 0.1961
vn -0.0000 -0.9806 0.1961
vn -0.0000 -0.9903 0.1387
vn -0.0000 -0.9911 0.1330
vn -0.0000 -0.9749 0.2228
vn 0.0000 -0.9697 0.2443
vn -0.0000 -0.9639 0.2663
vn -0.0000 -0.9639 0.2663
vn -0.0000 -0.9800 0.1990
vn -0.0000 -0.9583 0.2857
vn -0.0000 -0.9446 0.3282
vn -0.0000 -0.9388 0.3446
vn -0.0000 -0.9388 0.3446
vn -0.0000 -0.9632 0.2688
vn -0.0000 -0.9271 0.3749
vn 0.0000 -0.9063 0.4225
vn -0.0000 -0.9020 0.4317
vn 0.0000 -0.9020 0.4317
vn 0.0000 -0.9381 0.3465
vn -0.0000 -0.8800 0.4749
vn -0.0000 -0.8474 0.5310
vn 0.0000 -0.8474 0.5310
vn 0.0000 -0.9015 0.4327
vn 0.0000 -0.9953 0.0968
vn 0.0000 -0.9899 0.1417
vn -0.0000 -0.9853 0.1706
vn 0.0001 -0.9913 0.1317
vn 0.0000 -0.9967 0.0809
vn -0.0000 -0.9967 0.0809
vn 0.0002 -0.9913 0.1317
vn -0.0000 -0.9823 0.1871
vn 0.0000 -0.9908 0.1356
vn 0.0000 -0.9913 0.1318
vn 0.0000 -0.9824 0.1870
vn -0.0000 -0.9687 0.2481
vn -0.0000 -0.9806 0.1960
vn 0.0000 -0.9822 0.1876
vn 0.0000 -0.9687 0.2481
vn -0.0000 -0.9573 0.2891
vn 0.0000 -0.9648 0.2630
vn 0.0000 -0.9685 0.2490
vn -0.0000 -0.9490 0.3154
vn -0.0000 -0.9490 0.3154
vn 0.0000 -0.9452 0.3266
vn 0.0000 -0.9450 0.3270
vn 0.0000 -0.9469 0.3214
vn 0.0000 -0.9490 0.3153
vn -0.0000 -0.9236 0.3833
vn 0.0000 -0.9211 0.3893
vn -0.0000 -0.9225 0.3859
vn -0.0000 -0.9490 0.3154
vn -0.0000 -0.9479 0.3186
vn -0.0000 -0.9279 0.3727
vn -0.0000 -0.9413 0.3375
vn -0.0000 -0.9490 0.3153
vn 0.0000 -0.9687 0.2481
vn 0.0000 -0.9657 0.2596
vn -0.0000 -0.9490 0.3153
vn 0.0000 -0.9509 0.3095
vn 0.0000 -0.9687 0.2481
vn -0.0000 -0.9824 0.1870
vn 0.0000 -0.9806 0.1960
vn -0.0000 -0.9697 0.2441
vn -0.0000 -0.9823 0.1871
vn -0.0000 -0.9913 0.1319
vn -0.0000 -0.9908 0.1356
vn -0.0000 -0.9828 0.1847
vn -0.0000 -0.9913 0.1319
vn -0.0000 -0.9914 0.1305
vn -0.0000 -0.9967 0.0809
vn 0.0000 -0.9967 0.0809
vn -0.0000 -0.9466 0.3224
vn -0.0000 -0.9245 0.3812
vn -0.0000 -0.9245 0.3812
vn 0.0000 -0.9649 0.2627
vn 0.0000 -0.9556 0.2948
vn -0.0000 -0.9489 0.3157
vn -0.0000 -0.9378 0.3471
vn 0.0000 -0.9283 0.3718
vn 0.0000 -0.9501 0.3119
vn -0.0000 -0.9547 0.2976
vn 0.0000 -0.9915 0.1303
vn 0.0000 -0.9967 0.0809
vn -0.0000 -0.9967 0.0809
vn -0.0000 -0.9915 0.1303
vn 0.0000 -0.9828 0.1847
vn 0.0000 -0.9861 0.1660
vn 0.0000 -0.9861 0.1660
vn -0.0000 -0.9828 0.1847
vn 0.0000 -0.9697 0.2441
vn -0.0000 -0.9697 0.2441
vn 0.0000 -0.9509 0.3095
vn 0.0000 -0.9642 0.2652
vn 0.0000 -0.9642 0.2652
vn 0.0000 -0.9509 0.3095
vn -0.0000 -0.9245 0.3812
vn 0.0000 -0.9245 0.3812
vn -0.0000 -0.9024 0.4309
vn -0.0000 -0.8997 0.4366
vn -0.0000 -0.8957 0.4446
vn 0.0000 -0.8901 0.4557
vn -0.0000 -0.8757 0.4829
vn 0.0000 -0.8754 0.4834
vn 0.0000 -0.8754 0.4834
vn 0.0000 -0.8398 0.5429
vn -0.0000 -0.8446 0.5354
vn -0.0000 -0.8587 0.5125
vn -0.0000 -0.8754 0.4834
vn 0.0000 -0.8589 0.5121
vn -0.0000 -0.8447 0.5353
vn 0.0000 -0.8398 0.5430
vn -0.0000 -0.8899 0.4562
vn 0.0000 -0.8955 0.4451
vn -0.0000 -0.8995 0.4369
vn 0.0000 -0.9024 0.4309
vn -0.0000 -0.9971 0.0765
vn 0.0000 -0.9971 0.0759
vn -0.0000 -0.9967 0.0813
vn 0.0000 -0.9926 0.1213
vn -0.0000 -0.9930 0.1182
vn -0.0000 -0.9924 0.1228
vn 0.0000 -0.9921 0.1252
vn 0.0000 -0.9918 0.1276
vn -0.0000 -0.9918 0.1276
vn -0.0000 -0.9946 0.1036
vn 0.0000 -0.9947 0.1026
vn -0.0000 -0.9961 0.0879
vn -0.0000 -0.9828 0.1847
vn -0.0000 -0.9862 0.1654
vn -0.0000 -0.9918 0.1276
vn 0.0000 -0.9828 0.1847
vn -0.0000 -0.9828 0.1847
vn -0.0000 -0.9791 0.2032
vn 0.0000 -0.9706 0.2406
vn -0.0000 -0.9689 0.2476
vn -0.0000 -0.9689 0.2476
vn -0.0000 -0.9484 0.3172
vn 0.0000 -0.9640 0.2658
vn -0.0000 -0.9689 0.2476
vn -0.0000 -0.9484 0.3172
vn -0.0000 -0.9484 0.3172
vn -0.0000 -0.9466 0.3224
vn 0.0000 -0.9466 0.3224
vn -0.0000 -0.9245 0.3812
vn -0.0000 -0.9245 0.3812
vn -0.0000 -0.9191 0.3939
vn -0.0000 -0.9192 0.3939
vn 0.0000 -0.8782 0.4784
vn 0.0000 -0.8782 0.4784
vn 0.0000 -0.9191 0.3939
vn -0.0000 -0.8782 0.4784
vn -0.0000 -0.9466 0.3224
vn -0.0000 -0.9245 0.3812
vn -0.0000 -0.9245 0.3812
vn 0.0000 -0.9245 0.3812
vn 0.0000 -0.9466 0.3224
vn -0.0000 -0.9466 0.3224
vn -0.0000 -0.9599 0.2803
vn 0.0000 -0.9769 0.2136
vn -0.0000 -0.9926 0.1211
vn -0.0000 -0.9918 0.1280
vn -0.0000 -0.9909 0.1349
vn -0.0000 -0.9858 0.1679
vn -0.0000 -0.9493 0.3144
vn -0.0000 -0.9490 0.3153
vn -0.0000 -0.9490 0.3153
vn 0.0000 -0.9247 0.3806
vn -0.0000 -0.9300 0.3676
vn 0.0000 -0.9381 0.3464
vn 0.0000 -0.9470 0.3212
vn 0.0000 -0.9251 0.3797
vn 0.0000 -0.9490 0.3153
vn -0.0000 -0.9490 0.3154
vn -0.0000 -0.9509 0.3095
vn -0.0000 -0.9687 0.2481
vn 0.0000 -0.9687 0.2481
vn 0.0000 -0.9823 0.1871
vn -0.0000 -0.9800 0.1990
vn 0.0000 -0.9697 0.2441
vn 0.0000 -0.9687 0.2481
vn -0.0000 -0.9823 0.1871
vn -0.0000 -0.9823 0.1871
vn -0.0000 -0.9828 0.1847
vn 0.0001 -0.9913 0.1317
vn 0.0000 -0.9913 0.1315
vn 0.0000 -0.9967 0.0809
vn 0.0000 -0.9967 0.0809
vn -0.0000 -0.9931 0.1176
vn -0.0000 -0.9913 0.1315
vn -0.0000 -0.9914 0.1305
vn -0.0000 -0.9967 0.0809
vn -0.0000 -0.9876 0.1569
vn 0.0000 -0.9697 0.2442
vn -0.0000 -0.9245 0.3812
vn 0.0000 -0.9245 0.3812
vn 0.0000 -0.9481 0.3180
vn -0.0000 -0.9474 0.3201
vn 0.0000 -0.9224 0.3862
vn -0.0000 -0.9212 0.3890
vn 0.0000 -0.9240 0.3824
vn 0.0000 -0.9572 0.2893
vn 0.0000 -0.9517 0.3069
vn -0.0001 -0.9919 0.1271
vn 0.0000 -0.9919 0.1270
vn -0.0000 -0.9938 0.1116
vn -0.0000 -0.9958 0.0920
vn -0.0000 -0.9919 0.1270
vn -0.0000 -0.9898 0.1426
vn -0.0000 -0.9859 0.1673
vn 0.0000 -0.9932 0.1162
vn -0.0000 -0.9923 0.1239
vn 0.0000 -0.9966 0.0821
vn 0.0000 -0.9971 0.0760
vn -0.0000 -0.9919 0.1270
vn -0.0000 -0.9919 0.1270
vn 0.0000 -0.9930 0.1179
vn 0.0000 -0.9932 0.1161
vn 0.0000 -0.9971 0.0761
vn 0.0000 -0.9965 0.0832
vn -0.0000 -0.9919 0.1270
vn 0.0000 -0.9909 0.1346
vn 0.0000 -0.9878 0.1559
vn -0.0000 -0.9903 0.1388
vn 0.0000 -0.9958 0.0915
vn 0.0000 -0.9913 0.1315
vn 0.0000 -0.9856 0.1689
vn 0.0000 -0.9831 0.1832
vn 0.0000 -0.9831 0.1833
vn -0.0000 -0.9867 0.1625
vn -0.0000 -0.9694 0.2454
vn -0.0000 -0.9742 0.2259
vn -0.0000 -0.9800 0.1991
vn -0.0000 -0.9800 0.1991
vn 0.0000 -0.9698 0.2439
vn 0.0000 -0.9698 0.2439
vn -0.0000 -0.9694 0.2454
vn -0.0000 -0.9800 0.1991
vn 0.0000 -0.9698 0.2439
vn 0.0000 -0.9800 0.1991
vn 0.0000 -0.9698 0.2439
vn -0.0000 -0.9800 0.1992
vn 0.0000 -0.9694 0.2455
vn -0.0000 -0.9694 0.2454
vn 0.0000 -0.9698 0.2439
vn -0.0000 -0.9638 0.2668
vn -0.0000 -0.9495 0.3139
vn -0.0000 -0.9495 0.3139
vn -0.0000 -0.9618 0.2736
vn 0.0000 -0.9294 0.3690
vn 0.0000 -0.9249 0.3803
vn 0.0000 -0.9211 0.3894
vn 0.0000 -0.9440 0.3299
vn 0.0000 -0.9447 0.3279
vn 0.0000 -0.9495 0.3139
vn 0.0000 -0.9218 0.3876
vn -0.0000 -0.9308 0.3655
vn -0.0000 -0.9495 0.3139
vn 0.0000 -0.9495 0.3138
vn -0.0000 -0.9447 0.3278
vn 0.0000 -0.9637 0.2670
vn 0.0000 -0.9604 0.2787
vn 0.0000 -0.9509 0.3096
vn 0.0000 -0.9346 0.3556
vn 0.0000 -0.9495 0.3138
vn -0.0000 -0.9506 0.3104
vn 0.0000 -0.9603 0.2790
vn -0.0000 -0.9425 0.3343
vn -0.0000 -0.9556 0.2946
vn 0.0001 -0.9905 0.1375
vn 0.0001 -0.9905 0.1374
vn 0.0000 -0.9967 0.0809
vn 0.0000 -0.9967 0.0809
vn -0.0000 -0.9798 0.2000
vn -0.0001 -0.9905 0.1374
vn 0.0000 -0.9798 0.2000
vn 0.0000 -0.9630 0.2696
vn 0.0000 -0.9630 0.2696
vn 0.0000 -0.9682 0.2501
vn 0.0000 -0.9682 0.2501
vn -0.0000 -0.9682 0.2501
vn -0.0000 -0.9379 0.3470
vn -0.0000 -0.9379 0.3470
vn -0.0000 -0.9490 0.3151
vn -0.0000 -0.9630 0.2695
vn 0.0000 -0.9014 0.4330
vn 0.0000 -0.9379 0.3470
vn 0.0000 -0.9264 0.3765
vn -0.0000 -0.9014 0.4330
vn 0.0000 -0.8474 0.5310
vn 0.0000 -0.8474 0.5310
vn 0.0000 -0.8474 0.5310
vn -0.0000 -0.8917 0.4526
vn -0.0000 -0.8917 0.4526
vn 0.0000 -0.8917 0.4526
vn -0.0000 -0.8475 0.5308
vn -0.0000 -0.8474 0.5310
vn -0.0000 -0.8917 0.4526
vn 0.0000 -0.8947 0.4466
vn -0.0000 -0.9014 0.4330
vn -0.0000 -0.8655 0.5009
vn -0.0000 -0.8607 0.5092
vn 0.0000 -0.8973 0.4414
vn -0.0000 -0.9014 0.4330
vn 0.0000 -0.9014 0.4330
vn 0.0000 -0.8921 0.4519
vn 0.0000 -0.9379 0.3470
vn 0.0000 -0.9379 0.3470
vn 0.0000 -0.9248 0.3805
vn -0.0000 -0.9568 0.2908
vn -0.0000 -0.9556 0.2945
vn 0.0000 -0.9486 0.3166
vn -0.0000 -0.9381 0.3463
vn 0.0000 -0.9630 0.2695
vn -0.0000 -0.9630 0.2695
vn 0.0000 -0.9620 0.2732
vn 0.0000 -0.9597 0.2810
vn 0.0000 -0.9379 0.3470
vn 0.0000 -0.9435 0.3314
vn 0.0000 -0.9488 0.3160
vn 0.0000 -0.9502 0.3116
vn -0.0000 -0.9630 0.2696
vn -0.0000 -0.9798 0.2000
vn -0.0000 -0.9798 0.1999
vn 0.0000 -0.9751 0.2216
vn 0.0000 -0.9687 0.2483
vn 0.0000 -0.9905 0.1374
vn 0.0000 -0.9905 0.1374
vn 0.0000 -0.9813 0.1926
vn 0.0000 -0.9958 0.0911
vn 0.0000 -0.9953 0.0966
vn -0.0000 -0.9906 0.1368
vn -0.0000 -0.9967 0.0809
vn -0.0000 -0.9967 0.0812
vn 0.0000 -0.9905 0.1374
vn 0.0000 -0.9912 0.1325
vn 0.0000 -0.9921 0.1253
vn 0.0000 -0.9967 0.0809
vn 0.0000 -0.9967 0.0809
vn 0.0000 -0.9923 0.1238
vn 0.0000 -0.9923 0.1239
vn 0.0000 -0.9798 0.2000
vn -0.0000 -0.9865 0.1635
vn -0.0000 -0.9893 0.1459
vn 0.0000 -0.9687 0.2484
vn 0.0000 -0.9708 0.2399
vn 0.0000 -0.9745 0.2245
vn 0.0000 -0.9788 0.2050
vn -0.0000 -0.9058 0.4236
vn -0.0000 -0.9161 0.4010
vn -0.0000 -0.9359 0.3522
vn -0.0000 -0.8474 0.5310
vn 0.0000 -0.8474 0.5310
vn -0.0000 -0.9014 0.4330
vn -0.0000 -0.9097 0.4152
vn 0.0000 -0.9517 0.3070
vn -0.0000 -0.9517 0.3070
vn 0.0000 -0.9682 0.2501
vn -0.0000 -0.9517 0.3070
vn 0.0000 -0.9517 0.3070
vn -0.0000 -0.9739 0.2270
vn 0.0000 -0.9798 0.2000
vn -0.0000 -0.9967 0.0809
vn 0.0000 -0.9923 0.1238
vn -0.0000 -0.9923 0.1239
vn 0.0000 -0.9888 0.1494
vn 0.0000 -0.9904 0.1384
vn 0.0000 -0.9904 0.1384
vn -0.0000 -0.9933 0.1158
vn 0.0000 -0.9967 0.0809
vn 0.0000 -0.9967 0.0809
vn 0.0000 -0.9794 0.2021
vn -0.0000 -0.9794 0.2021
vn 0.0000 -0.9838 0.1790
vn -0.0000 -0.9844 0.1762
vn 0.0000 -0.9904 0.1384
vn 0.0000 -0.9861 0.1659
vn 0.0000 -0.9620 0.2732
vn 0.0000 -0.9620 0.2732
vn 0.0000 -0.9684 0.2495
vn 0.0000 -0.9700 0.2430
vn 0.0000 -0.9793 0.2022
vn -0.0000 -0.9771 0.2129
vn -0.0000 -0.9726 0.2325
vn 0.0000 -0.9500 0.3123
vn -0.0000 -0.9620 0.2732
vn 0.0000 -0.9500 0.3123
vn 0.0001 -0.9359 0.3522
vn 0.0000 -0.9388 0.3446
vn -0.0000 -0.9444 0.3288
vn -0.0000 -0.9358 0.3524
vn 0.0000 -0.9182 0.3961
vn -0.0000 -0.9195 0.3930
vn -0.0000 -0.9183 0.3960
vn 0.0000 -0.8978 0.4405
vn -0.0000 -0.9116 0.4111
vn -0.0000 -0.8978 0.4405
vn -0.0000 -0.8725 0.4887
vn -0.0000 -0.8561 0.5169
vn -0.0000 -0.8868 0.4622
vn 0.0000 -0.8877 0.4605
vn 0.0000 -0.8934 0.4492
vn -0.0000 -0.8978 0.4405
vn -0.0000 -0.8443 0.5359
vn -0.0000 -0.8403 0.5421
vn -0.0000 -0.8978 0.4405
vn 0.0000 -0.8978 0.4405
vn -0.0000 -0.8909 0.4541
vn -0.0000 -0.8870 0.4617
vn -0.0000 -0.8432 0.5376
vn 0.0000 -0.8539 0.5204
vn 0.0001 -0.9062 0.4228
vn 0.0000 -0.8996 0.4367
vn -0.0000 -0.9182 0.3960
vn 0.0000 -0.8978 0.4405
vn 0.0000 -0.9086 0.4177
vn -0.0000 -0.9183 0.3960
vn 0.0000 -0.9240 0.3824
vn 0.0000 -0.8693 0.4944
vn 0.0000 -0.9044 0.4267
vn 0.0000 -0.9173 0.3982
vn -0.0000 -0.9182 0.3962
vn -0.0000 -0.9414 0.3374
vn -0.0000 -0.9500 0.3123
vn -0.0000 -0.9645 0.2640
vn -0.0000 -0.9575 0.2883
vn -0.0000 -0.9860 0.1668
vn 0.0000 -0.9770 0.2133
vn 0.0000 -0.9967 0.0809
vn 0.0000 -0.9923 0.1238
vn -0.0000 -0.9923 0.1238
vn -0.0000 -0.9967 0.0809
vn 0.0000 -0.9923 0.1238
vn -0.0000 -0.9967 0.0809
vn -0.0000 -0.9923 0.1238
vn 0.0000 -0.9892 0.1466
f 3//1 4//2 5//3
f 3//1 5//3 6//4
f 7//5 32//6 3//1
f 7//5 3//1 6//4
f 7//5 6//4 33//7
f 7//5 33//7 8//8
f 9//9 34//10 7//5
f 9//9 7//5 8//8
f 9//9 8//8 35//11
f 9//9 35//11 10//12
f 11//13 36//14 9//9
f 11//13 9//9 10//12
f 11//13 10//12 37//15
f 11//13 37//15 12//16
f 11//13 12//16 1//17
f 15//18 43//19 44//20
f 15//18 44//20 14//21
f 15//18 14//21 1//17
f 15//18 1//17 13//22
f 15//18 13//22 45//23
f 15//18 45//23 16//24
f 18//25 48//26 15//18
f 18//25 15//18 16//24
f 18//25 16//24 49//27
f 18//25 49//27 19//28
f 18//25 19//28 2//29
f 26//30 17//31 2//29
f 26//30 2//29 28//32
f 26//30 28//32 55//33
f 26//30 55//33 27//34
f 24//35 53//36 26//30
f 24//35 26//30 27//34
f 24//35 27//34 54//37
f 24//35 54//37 25//38
f 23//39 51//40 24//35
f 23//39 24//35 25//38
f 23//39 25//38 52//41
f 23//39 52//41 20//42
f 20//42 50//43 21//44
f 20//42 21//44 22//45
f 20//42 22//45 23//39
f 19//28 29//46 30//47
f 19//28 30//47 31//48
f 19//28 31//48 28//32
f 19//28 28//32 2//29
f 17//31 46//49 47//50
f 17//31 47//50 18//25
f 17//31 18//25 2//29
f 12//16 38//51 39//52
f 12//16 39//52 40//53
f 12//16 40//53 13//22
f 12//16 13//22 1//17
f 14//21 41//54 42//55
f 14//21 42//55 11//13
f 14//21 11//13 1//17
f 62//56 94//57 63//58
f 62//56 63//58 56//59
f 73//60 102//61 103//62
f 73//60 103//62 70//63
f 73//60 70//63 56//59
f 73//60 56//59 57//64
f 64//65 96//66 65//67
f 64//65 65//67 58//68
f 64//65 58//68 57//64
f 75//69 106//70 107//71
f 75//69 107//71 74//72
f 75//69 74//72 58//68
f 75//69 58//68 59//73
f 66//74 98//75 67//76
f 66//74 67//76 60//77
f 66//74 60//77 59//73
f 69//78 77//79 110//80
f 69//78 110//80 76//81
f 69//78 76//81 60//77
f 67//76 99//82 68//83
f 67//76 68//83 69//78
f 67//76 69//78 60//77
f 76//81 108//84 109//85
f 76//81 109//85 75//69
f 76//81 75//69 59//73
f 76//81 59//73 60//77
f 65//67 97//86 66//74
f 65//67 66//74 59//73
f 65//67 59//73 58//68
f 74//72 104//87 105//88
f 74//72 105//88 73//60
f 74//72 73//60 57//64
f 74//72 57//64 58//68
f 63//58 95//89 64//65
f 63//58 64//65 57//64
f 63//58 57//64 56//59
f 70//63 100//90 71//91
f 70//63 71//91 72//92
f 70//63 72//92 101//93
f 70//63 101//93 62//56
f 70//63 62//56 56//59
f 71//91 111//94 78//95
f 71//91 78//95 79//96
f 71//91 79//96 72//92
f 78//95 112//97 80//98
f 78//95 80//98 61//99
f 78//95 61//99 81//100
f 78//95 81//100 113//101
f 78//95 113//101 79//96
f 82//102 84//103 85//104
f 82//102 85//104 117//105
f 82//102 117//105 83//106
f 82//102 83//106 61//99
f 84//103 118//107 119//108
f 84//103 119//108 86//109
f 84//103 86//109 87//110
f 84//103 87//110 120//111
f 84//103 120//111 85//104
f 86//109 121//112 122//113
f 86//109 122//113 88//114
f 86//109 88//114 89//115
f 86//109 89//115 123//116
f 86//109 123//116 87//110
f 88//114 124//117 125//118
f 88//114 125//118 90//119
f 88//114 90//119 91//120
f 88//114 91//120 126//121
f 88//114 126//121 89//115
f 90//119 127//122 92//123
f 90//119 92//123 93//124
f 90//119 93//124 128//125
f 90//119 128//125 91//120
f 83//106 116//126 81//100
f 83//106 81//100 61//99
f 80//98 114//127 115//128
f 80//98 115//128 82//102
f 80//98 82//102 61//99
f 129//129 130//130 131//131
f 129//129 131//131 132//132
f 133//133 141//134 129//129
f 133//133 129//129 132//132
f 133//133 132//132 142//135
f 133//133 142//135 134//136
f 135//137 133//133 134//136
f 135//137 134//136 136//138
f 137//139 143//140 135//137
f 137//139 135//137 136//138
f 137//139 136//138 144//141
f 137//139 144//141 138//142
f 138//142 139//143 140//144
f 138//142 140//144 137//139
f 146//145 151//146 152//147
f 146//145 152//147 153//148
f 146//145 153//148 154//149
f 146//145 154//149 147//150
f 146//145 147//150 145//151
f 149//152 161//153 162//154
f 149//152 162//154 150//155
f 149//152 150//155 145//151
f 147//150 155//156 156//157
f 147//150 156//157 148//158
f 147//150 148//158 149//152
f 147//150 149//152 145//151
f 150//155 157//159 158//160
f 150//155 158//160 159//161
f 150//155 159//161 160//162
f 150//155 160//162 146//145
f 150//155 146//145 145//151
f 168//163 196//164 169//165
f 168//163 169//165 170//166
f 168//163 170//166 197//167
f 168//163 197//167 198//168
f 168//163 198//168 171//169
f 171//169 176//170 163//171
f 171//169 163//171 177//172
f 171//169 177//172 199//173
f 171//169 199//173 200//174
f 171//169 200//174 168//163
f 187//175 208//176 186//177
f 187//175 186//177 163//171
f 187//175 163//171 164//178
f 178//179 204//180 205//181
f 178//179 205//181 179//182
f 178//179 179//182 165//183
f 178//179 165//183 164//178
f 189//184 210//185 188//186
f 189//184 188//186 165//183
f 189//184 165//183 166//187
f 180//188 181//189 172//190
f 180//188 172//190 175//191
f 180//188 175//191 182//192
f 180//188 182//192 183//193
f 180//188 183//193 167//194
f 180//188 167//194 166//187
f 185//195 195//196 190//197
f 185//195 190//197 167//194
f 183//193 184//198 185//195
f 183//193 185//195 167//194
f 172//190 173//199 174//200
f 172//190 174//200 175//191
f 190//197 191//201 192//202
f 190//197 192//202 193//203
f 190//197 193//203 194//204
f 190//197 194//204 189//184
f 190//197 189//184 166//187
f 190//197 166//187 167//194
f 179//182 206//205 180//188
f 179//182 180//188 166//187
f 179//182 166//187 165//183
f 188//186 209//206 187//175
f 188//186 187//175 164//178
f 188//186 164//178 165//183
f 186//177 207//207 177//172
f 186//177 177//172 163//171
f 176//170 201//208 202//209
f 176//170 202//209 203//210
f 176//170 203//210 178//179
f 176//170 178//179 164//178
f 176//170 164//178 163//171
f 216//211 217//212 211//213
f 220//214 244//215 245//216
f 220//214 245//216 226//217
f 220//214 226//217 227//218
f 220//214 227//218 215//219
f 220//214 215//219 211//213
f 232//220 249//221 231//222
f 232//220 231//222 214//223
f 232//220 214//223 215//219
f 224//224 240//225 241//226
f 224//224 241//226 225//227
f 224//224 225//227 214//223
f 224//224 214//223 213//228
f 230//229 247//230 228//231
f 230//229 228//231 212//232
f 230//229 212//232 213//228
f 221//233 222//234 238//235
f 221//233 238//235 223//236
f 221//233 223//236 212//232
f 228//231 246//237 229//238
f 228//231 229//238 221//233
f 228//231 221//233 212//232
f 223//236 239//239 224//224
f 223//236 224//224 213//228
f 223//236 213//228 212//232
f 231//222 248//240 230//229
f 231//222 230//229 213//228
f 231//222 213//228 214//223
f 227//218 233//241 234//242
f 227//218 234//242 232//220
f 227//218 232//220 215//219
f 217//212 235//243 218//244
f 217//212 218//244 219//245
f 217//212 219//245 236//246
f 217//212 236//246 237//247
f 217//212 237//247 220//214
f 217//212 220//214 211//213
f 225//227 242//248 243//249
f 225//227 243//249 216//211
f 225//227 216//211 211//213
f 225//227 211//213 215//219
f 225//227 215//219 214//223
f 250//250 255//251 292//252
f 250//250 292//252 254//253
f 250//250 269//254 300//255
f 250//250 300//255 258//256
f 270//257 298//258 269//254
f 270//257 269//254 250//250
f 270//257 250//250 254//253
f 270//257 254//253 299//259
f 270//257 299//259 268//260
f 252//261 277//262 305//263
f 252//261 305//263 306//264
f 252//261 306//264 270//257
f 252//261 270//257 268//260
f 252//261 268//260 307//265
f 252//261 307//265 276//266
f 252//261 284//267 286//268
f 252//261 286//268 285//269
f 252//261 285//269 278//270
f 252//261 276//266 313//271
f 252//261 313//271 284//267
f 252//261 278//270 308//272
f 252//261 308//272 277//262
f 250//250 258//256 293//273
f 250//250 293//273 257//274
f 250//250 257//274 256//275
f 250//250 256//275 294//276
f 250//250 294//276 255//251
f 264//277 295//278 256//275
f 264//277 256//275 257//274
f 264//277 257//274 263//279
f 264//277 263//279 262//280
f 264//277 262//280 261//281
f 264//277 261//281 260//282
f 264//277 260//282 259//283
f 262//280 272//284 271//285
f 262//280 271//285 261//281
f 272//284 280//286 279//287
f 272//284 279//287 271//285
f 280//286 290//288 289//289
f 280//286 289//289 288//290
f 280//286 288//290 287//291
f 280//286 287//291 279//287
f 289//289 314//292 291//293
f 289//289 291//293 253//294
f 289//289 253//294 281//295
f 289//289 281//295 288//290
f 253//294 283//296 311//297
f 253//294 311//297 275//298
f 253//294 275//298 274//299
f 253//294 274//299 312//300
f 253//294 312//300 282//301
f 275//298 303//302 267//303
f 275//298 267//303 251//304
f 275//298 251//304 273//305
f 275//298 273//305 304//306
f 275//298 304//306 274//299
f 251//304 265//307 301//308
f 251//304 301//308 302//309
f 251//304 302//309 273//305
f 251//304 267//303 297//310
f 251//304 297//310 266//311
f 253//294 282//301 309//312
f 253//294 309//312 310//313
f 253//294 310//313 281//295
f 253//294 291//293 315//314
f 253//294 315//314 283//296
f 251//304 266//311 296//315
f 251//304 296//315 264//277
f 251//304 264//277 259//283
f 251//304 259//283 265//307
f 316//316 330//317 329//318
f 316//316 329//318 328//319
f 317//320 316//316 337//321
f 317//320 337//321 341//322
f 321//323 318//324 317//320
f 321//323 317//320 341//322
f 321//323 341//322 343//325
f 321//323 343//325 378//326
f 321//323 378//326 342//327
f 318//324 319//328 333//329
f 318//324 333//329 373//330
f 318//324 373//330 332//331
f 320//332 319//328 344//333
f 320//332 344//333 380//334
f 320//332 380//334 347//335
f 350//336 381//337 336//338
f 350//336 336//338 320//332
f 350//336 320//332 347//335
f 350//336 347//335 349//339
f 350//336 349//339 382//340
f 350//336 382//340 348//341
f 356//342 387//343 350//336
f 356//342 350//336 348//341
f 356//342 348//341 388//344
f 356//342 388//344 355//345
f 327//346 365//347 401//348
f 327//346 401//348 356//342
f 327//346 356//342 355//345
f 327//346 355//345 402//349
f 327//346 402//349 364//350
f 327//346 370//351 412//352
f 327//346 412//352 365//347
f 327//346 326//353 369//354
f 327//346 369//354 411//355
f 327//346 411//355 370//351
f 326//353 361//356 408//357
f 326//353 408//357 409//358
f 326//353 409//358 410//359
f 326//353 410//359 369//354
f 322//360 325//361 363//362
f 322//360 363//362 362//363
f 322//360 362//363 361//356
f 322//360 361//356 326//353
f 322//360 326//353 360//364
f 322//360 360//364 396//365
f 322//360 396//365 397//366
f 322//360 397//366 354//367
f 325//361 368//368 363//362
f 325//361 324//369 367//370
f 325//361 367//370 406//371
f 325//361 406//371 407//372
f 325//361 407//372 368//368
f 324//369 323//373 366//374
f 324//369 366//374 405//375
f 324//369 405//375 367//370
f 323//373 358//376 403//377
f 323//373 403//377 404//378
f 323//373 404//378 366//374
f 352//379 389//380 358//376
f 352//379 358//376 323//373
f 352//379 323//373 357//381
f 352//379 357//381 390//382
f 352//379 390//382 351//383
f 340//384 383//385 352//379
f 340//384 352//379 351//383
f 340//384 351//383 384//386
f 340//384 384//386 339//387
f 323//373 324//369 359//388
f 323//373 359//388 391//389
f 323//373 391//389 392//390
f 323//373 392//390 357//381
f 324//369 325//361 322//360
f 324//369 322//360 353//391
f 324//369 353//391 393//392
f 324//369 393//392 394//393
f 324//369 394//393 395//394
f 324//369 395//394 359//388
f 326//353 327//346 364//350
f 326//353 364//350 398//395
f 326//353 398//395 399//396
f 326//353 399//396 400//397
f 326//353 400//397 360//364
f 320//332 336//338 375//398
f 320//332 375//398 335//399
f 320//332 335//399 334//400
f 319//328 320//332 334//400
f 319//328 334//400 374//401
f 319//328 374//401 333//329
f 321//323 322//360 354//367
f 321//323 354//367 386//402
f 321//323 386//402 346//403
f 322//360 321//323 342//327
f 322//360 342//327 385//404
f 322//360 385//404 353//391
f 319//328 318//324 321//323
f 319//328 321//323 346//403
f 319//328 346//403 379//405
f 319//328 379//405 345//406
f 319//328 345//406 344//333
f 317//320 318//324 332//331
f 317//320 332//331 372//407
f 317//320 372//407 331//408
f 316//316 328//319 376//409
f 316//316 376//409 340//384
f 316//316 340//384 339//387
f 316//316 339//387 377//410
f 316//316 377//410 338//411
f 316//316 338//411 337//321
f 316//316 317//320 331//408
f 316//316 331//408 371//412
f 316//316 371//412 330//317
f 413//413 423//414 422//415
f 413//413 422//415 421//416
f 413//413 421//416 420//417
f 415//418 435//419 463//420
f 415//418 463//420 424//421
f 415//418 424//421 413//413
f 415//418 413//413 430//422
f 415//418 430//422 434//423
f 416//424 444//425 469//426
f 416//424 469//426 436//427
f 416//424 436//427 415//418
f 416//424 415//418 442//428
f 416//424 442//428 470//429
f 416//424 470//429 443//430
f 417//431 416//424 452//432
f 417//431 452//432 453//433
f 456//434 460//435 417//431
f 456//434 417//431 453//433
f 456//434 453//433 479//436
f 456//434 479//436 455//437
f 418//438 446//439 456//434
f 418//438 456//434 455//437
f 418//438 455//437 454//440
f 419//441 418//438 454//440
f 419//441 454//440 482//442
f 419//441 482//442 457//443
f 419//441 457//443 476//444
f 419//441 476//444 448//445
f 438//446 472//447 473//448
f 438//446 473//448 449//449
f 438//446 449//449 419//441
f 438//446 419//441 448//445
f 438//446 448//445 474//450
f 438//446 474//450 437//451
f 414//452 439//453 465//454
f 414//452 465//454 466//455
f 414//452 466//455 438//446
f 414//452 438//446 437//451
f 414//452 437//451 467//456
f 414//452 467//456 429//457
f 414//452 459//458 477//459
f 414//452 477//459 439//453
f 425//460 459//458 414//452
f 425//460 414//452 428//461
f 425//460 428//461 458//462
f 425//460 458//462 427//463
f 427//463 426//464 425//460
f 414//452 429//457 462//465
f 414//452 462//465 428//461
f 418//438 419//441 449//449
f 418//438 449//449 480//466
f 418//438 480//466 481//467
f 418//438 481//467 447//468
f 418//438 447//468 446//439
f 417//431 460//435 478//469
f 417//431 478//469 445//470
f 416//424 443//430 475//471
f 416//424 475//471 452//432
f 416//424 417//431 445//470
f 416//424 445//470 471//472
f 416//424 471//472 444//425
f 415//418 434//423 468//473
f 415//418 468//473 442//428
f 415//418 436//427 464//474
f 415//418 464//474 435//419
f 413//413 420//417 433//475
f 413//413 433//475 432//476
f 413//413 432//476 431//477
f 413//413 431//477 430//422
f 433//475 441//478 440//479
f 433//475 440//479 432//476
f 441//478 451//480 450//481
f 441//478 450//481 440//479
f 413//413 424//421 461//482
f 413//413 461//482 423//414
f 487//483 486//484 506//485
f 487//483 506//485 485//486
f 487//483 485//486 484//487
f 519//488 520//489 521//490
f 519//488 521//490 485//486
f 519//488 485//486 506//485
f 519//488 506//485 522//491
f 519//488 522//491 527//492
f 519//488 527//492 517//493
f 531//494 542//495 543//496
f 531//494 543//496 520//489
f 531//494 520//489 519//488
f 531//494 519//488 526//497
f 526//497 518//498 540//499
f 526//497 540//499 533//500
f 526//497 533//500 532//501
f 526//497 532//501 541//502
f 526//497 541//502 531//494
f 533//500 544//503 535//504
f 533//500 535//504 530//505
f 533//500 530//505 534//506
f 533//500 534//506 545//507
f 533//500 545//507 546//508
f 533//500 546//508 532//501
f 530//505 537//509 539//510
f 530//505 539//510 538//511
f 530//505 538//511 548//512
f 530//505 548//512 536//513
f 530//505 536//513 534//506
f 530//505 535//504 547//514
f 530//505 547//514 537//509
f 517//493 525//515 518//498
f 517//493 518//498 526//497
f 517//493 526//497 519//488
f 506//485 486//484 523//516
f 506//485 523//516 489//517
f 506//485 489//517 490//518
f 506//485 490//518 508//519
f 506//485 508//519 524//520
f 506//485 524//520 528//521
f 506//485 528//521 522//491
f 508//519 491//522 493//523
f 508//519 493//523 529//524
f 508//519 529//524 524//520
f 492//525 509//526 495//527
f 492//525 495//527 494//528
f 492//525 494//528 510//529
f 492//525 510//529 493//523
f 492//525 493//523 491//522
f 495//527 513//530 499//531
f 495//527 499//531 483//532
f 495//527 483//532 500//533
f 495//527 500//533 514//534
f 495//527 514//534 494//528
f 483//532 505//535 516//536
f 483//532 516//536 500//533
f 483//532 498//537 504//538
f 483//532 504//538 501//539
f 483//532 501//539 515//540
f 483//532 515//540 505//535
f 504//538 503//541 496//542
f 504//538 496//542 497//543
f 504//538 497//543 502//544
f 504//538 502//544 501//539
f 483//532 499//531 511//545
f 483//532 511//545 512//546
f 483//532 512//546 498//537
f 488//547 507//548 492//525
f 488//547 492//525 491//522
f 488//547 491//522 508//519
f 488//547 508//519 490//518
f 490//518 489//517 488//547
f 484//487 497//543 496//542
f 484//487 496//542 487//483
f 554//549 553//550 562//551
f 554//549 562//551 552//552
f 554//549 552//552 551//553
f 554//549 551//553 563//554
f 554//549 563//554 550//555
f 552//552 567//556 557//557
f 552//552 557//557 549//558
f 552//552 549//558 556//559
f 552//552 556//559 568//560
f 552//552 568//560 569//561
f 552//552 569//561 551//553
f 549//558 559//562 561//563
f 549//558 561//563 560//564
f 549//558 560//564 571//565
f 549//558 571//565 558//566
f 549//558 558//566 556//559
f 549//558 557//557 570//567
f 549//558 570//567 559//562
f 606//568 611//569 553//550
f 606//568 553//550 554//549
f 606//568 554//549 566//570
f 566//570 555//571 607//572
f 566//570 607//572 574//573
f 566//570 574//573 595//574
f 566//570 595//574 608//575
f 566//570 608//575 612//576
f 566//570 612//576 606//568
f 595//574 575//577 609//578
f 595//574 609//578 578//579
f 595//574 578//579 579//580
f 595//574 579//580 597//581
f 595//574 597//581 610//582
f 595//574 610//582 613//583
f 595//574 613//583 608//575
f 597//581 580//584 582//585
f 597//581 582//585 614//586
f 597//581 614//586 610//582
f 581//587 598//588 584//589
f 581//587 584//589 583//590
f 581//587 583//590 599//591
f 581//587 599//591 582//585
f 581//587 582//585 580//584
f 584//589 602//592 588//593
f 584//589 588//593 572//594
f 584//589 572//594 589//595
f 584//589 589//595 603//596
f 584//589 603//596 583//590
f 572//594 594//597 605//598
f 572//594 605//598 589//595
f 572//594 587//599 593//600
f 572//594 593//600 590//601
f 572//594 590//601 604//602
f 572//594 604//602 594//597
f 593//600 592//603 585//604
f 593//600 585//604 586//605
f 593//600 586//605 591//606
f 593//600 591//606 590//601
f 573//607 586//605 585//604
f 573//607 585//604 576//608
f 572//594 588//593 600//609
f 572//594 600//609 601//610
f 572//594 601//610 587//599
f 577//611 596//612 581//587
f 577//611 581//587 580//584
f 577//611 580//584 597//581
f 577//611 597//581 579//580
f 579//580 578//579 577//611
f 576//608 575//577 595//574
f 576//608 595//574 574//573
f 576//608 574//573 573//607
f 550//555 564//613 565//614
f 550//555 565//614 555//571
f 550//555 555//571 566//570
f 550//555 566//570 554//549
f 621//615 653//616 622//617
f 621//615 622//617 615//618
f 632//619 661//620 662//621
f 632//619 662//621 629//622
f 632//619 629//622 615//618
f 632//619 615//618 616//623
f 623//624 655//625 624//626
f 623//624 624//626 617//627
f 623//624 617//627 616//623
f 634//628 665//629 666//630
f 634//628 666//630 633//631
f 634//628 633//631 617//627
f 634//628 617//627 618//632
f 625//633 657//634 626//635
f 625//633 626//635 619//636
f 625//633 619//636 618//632
f 628//637 636//638 669//639
f 628//637 669//639 635//640
f 628//637 635//640 619//636
f 626//635 658//641 627//642
f 626//635 627//642 628//637
f 626//635 628//637 619//636
f 635//640 667//643 668//644
f 635//640 668//644 634//628
f 635//640 634//628 618//632
f 635//640 618//632 619//636
f 624//626 656//645 625//633
f 624//626 625//633 618//632
f 624//626 618//632 617//627
f 633//631 663//646 664//647
f 633//631 664//647 632//619
f 633//631 632//619 616//623
f 633//631 616//623 617//627
f 622//617 654//648 623//624
f 622//617 623//624 616//623
f 622//617 616//623 615//618
f 629//622 659//649 630//650
f 629//622 630//650 631//651
f 629//622 631//651 660//652
f 629//622 660//652 621//615
f 629//622 621//615 615//618
f 630//650 670//653 637//654
f 630//650 637//654 638//655
f 630//650 638//655 631//651
f 637//654 671//656 639//657
f 637//654 639//657 620//658
f 637//654 620//658 640//659
f 637//654 640//659 672//660
f 637//654 672//660 638//655
f 641//661 643//662 644//663
f 641//661 644//663 676//664
f 641//661 676//664 642//665
f 641//661 642//665 620//658
f 643//662 677//666 678//667
f 643//662 678//667 645//668
f 643//662 645//668 646//669
f 643//662 646//669 679//670
f 643//662 679//670 644//663
f 645//668 680//671 681//672
f 645//668 681//672 647//673
f 645//668 647//673 648//674
f 645//668 648//674 682//675
f 645//668 682//675 646//669
f 647//673 683//676 684//677
f 647//673 684//677 649//678
f 647//673 649//678 650//679
f 647//673 650//679 685//680
f 647//673 685//680 648//674
f 649//678 686//681 651//682
f 649//678 651//682 652//683
f 649//678 652//683 687//684
f 649//678 687//684 650//679
f 642//665 675//685 640//659
f 642//665 640//659 620//658
f 639//657 673//686 674//687
f 639//657 674//687 641//661
f 639//657 641//661 620//658
f 690//688 691//689 692//690
f 690//688 692//690 693//691
f 694//692 719//693 690//688
f 694//692 690//688 693//691
f 694//692 693//691 720//694
f 694//692 720//694 695//695
f 696//696 721//697 694//692
f 696//696 694//692 695//695
f 696//696 695//695 722//698
f 696//696 722//698 697//699
f 698//700 723//701 696//696
f 698//700 696//696 697//699
f 698//700 697//699 724//702
f 698//700 724//702 699//703
f 698//700 699//703 688//704
f 702//705 730//706 731//707
f 702//705 731//707 701//708
f 702//705 701//708 688//704
f 702//705 688//704 700//709
f 702//705 700//709 732//710
f 702//705 732//710 703//711
f 705//712 735//713 702//705
f 705//712 702//705 703//711
f 705//712 703//711 736//714
f 705//712 736//714 706//715
f 705//712 706//715 689//716
f 713//717 704//718 689//716
f 713//717 689//716 715//719
f 713//717 715//719 742//720
f 713//717 742//720 714//721
f 711//722 740//723 713//717
f 711//722 713//717 714//721
f 711//722 714//721 741//724
f 711//722 741//724 712//725
f 710//726 738//727 711//722
f 710//726 711//722 712//725
f 710//726 712//725 739//728
f 710//726 739//728 707//729
f 707//729 737//730 708//731
f 707//729 708//731 709//732
f 707//729 709//732 710//726
f 706//715 716//733 717//734
f 706//715 717//734 718//735
f 706//715 718//735 715//719
f 706//715 715//719 689//716
f 704//718 733//736 734//737
f 704//718 734//737 705//712
f 704//718 705//712 689//716
f 699//703 725//738 726//739
f 699//703 726//739 727//740
f 699//703 727//740 700//709
f 699//703 700//709 688//704
f 701//708 728//741 729//742
f 701//708 729//742 698//700
f 701//708 698//700 688//704
f 743//743 744//744 745//745
f 743//743 745//745 746//746
f 747//747 755//748 743//743
f 747//747 743//743 746//746
f 747//747 746//746 756//749
f 747//747 756//749 748//750
f 749//751 747//747 748//750
f 749//751 748//750 750//752
f 751//753 757//754 749//751
f 751//753 749//751 750//752
f 751//753 750//752 758//755
f 751//753 758//755 752//756
f 752//756 753//757 754//758
f 752//756 754//758 751//753
f 760//759 765//760 766//761
f 760//759 766//761 767//762
f 760//759 767//762 768//763
f 760//759 768//763 761//764
f 760//759 761//764 759//765
f 763//766 775//767 776//768
f 763//766 776//768 764//769
f 763//766 764//769 759//765
f 761//764 769//770 770//771
f 761//764 770//771 762//772
f 761//764 762//772 763//766
f 761//764 763//766 759//765
f 764//769 771//773 772//774
f 764//769 772//774 773//775
f 764//769 773//775 774//776
f 764//769 774//776 760//759
f 764//769 760//759 759//765
f 782//777 810//778 783//779
f 782//777 783//779 784//780
f 782//777 784//780 811//781
f 782//777 811//781 812//782
f 782//777 812//782 785//783
f 785//783 790//784 777//785
f 785//783 777//785 791//786
f 785//783 791//786 813//787
f 785//783 813//787 814//788
f 785//783 814//788 782//777
f 801//789 822//790 800//791
f 801//789 800//791 777//785
f 801//789 777//785 778//792
f 792//793 818//794 819//795
f 792//793 819//795 793//796
f 792//793 793//796 779//797
f 792//793 779//797 778//792
f 803//798 824//799 802//800
f 803//798 802//800 779//797
f 803//798 779//797 780//801
f 794//802 795//803 786//804
f 794//802 786//804 789//805
f 794//802 789//805 796//806
f 794//802 796//806 797//807
f 794//802 797//807 781//808
f 794//802 781//808 780//801
f 799//809 809//810 804//811
f 799//809 804//811 781//808
f 797//807 798//812 799//809
f 797//807 799//809 781//808
f 786//804 787//813 788//814
f 786//804 788//814 789//805
f 804//811 805//815 806//816
f 804//811 806//816 807//817
f 804//811 807//817 808//818
f 804//811 808//818 803//798
f 804//811 803//798 780//801
f 804//811 780//801 781//808
f 793//796 820//819 794//802
f 793//796 794//802 780//801
f 793//796 780//801 779//797
f 802//800 823//820 801//789
f 802//800 801//789 778//792
f 802//800 778//792 779//797
f 800//791 821//821 791//786
f 800//791 791//786 777//785
f 790//784 815//822 816//823
f 790//784 816//823 817//824
f 790//784 817//824 792//793
f 790//784 792//793 778//792
f 790//784 778//792 777//785
f 830//825 831//826 825//827
f 834//828 858//829 859//830
f 834//828 859//830 840//831
f 834//828 840//831 841//832
f 834//828 841//832 829//833
f 834//828 829//833 825//827
f 846//834 863//835 845//836
f 846//834 845//836 828//837
f 846//834 828//837 829//833
f 838//838 854//839 855//840
f 838//838 855//840 839//841
f 838//838 839//841 828//837
f 838//838 828//837 827//842
f 844//843 861//844 842//845
f 844//843 842//845 826//846
f 844//843 826//846 827//842
f 835//847 836//848 852//849
f 835//847 852//849 837//850
f 835//847 837//850 826//846
f 842//845 860//851 843//852
f 842//845 843//852 835//847
f 842//845 835//847 826//846
f 837//850 853//853 838//838
f 837//850 838//838 827//842
f 837//850 827//842 826//846
f 845//836 862//854 844//843
f 845//836 844//843 827//842
f 845//836 827//842 828//837
f 841//832 847//855 848//856
f 841//832 848//856 846//834
f 841//832 846//834 829//833
f 831//826 849//857 832//858
f 831//826 832//858 833//859
f 831//826 833//859 850//860
f 831//826 850//860 851//861
f 831//826 851//861 834//828
f 831//826 834//828 825//827
f 839//841 856//862 857//863
f 839//841 857//863 830//825
f 839//841 830//825 825//827
f 839//841 825//827 829//833
f 839//841 829//833 828//837
f 864//864 869//865 906//866
f 864//864 906//866 868//867
f 864//864 883//868 914//869
f 864//864 914//869 872//870
f 884//871 912//872 883//868
f 884//871 883//868 864//864
f 884//871 864//864 868//867
f 884//871 868//867 913//873
f 884//871 913//873 882//874
f 866//875 891//876 919//877
f 866//875 919//877 920//878
f 866//875 920//878 884//871
f 866//875 884//871 882//874
f 866//875 882//874 921//879
f 866//875 921//879 890//880
f 866//875 898//881 900//882
f 866//875 900//882 899//883
f 866//875 899//883 892//884
f 866//875 890//880 927//885
f 866//875 927//885 898//881
f 866//875 892//884 922//886
f 866//875 922//886 891//876
f 864//864 872//870 907//887
f 864//864 907//887 871//888
f 864//864 871//888 870//889
f 864//864 870//889 908//890
f 864//864 908//890 869//865
f 878//891 909//892 870//889
f 878//891 870//889 871//888
f 878//891 871//888 877//893
f 878//891 877//893 876//894
f 878//891 876//894 875//895
f 878//891 875//895 874//896
f 878//891 874//896 873//897
f 876//894 886//898 885//899
f 876//894 885//899 875//895
f 886//898 894//900 893//901
f 886//898 893//901 885//899
f 894//900 904//902 903//903
f 894//900 903//903 902//904
f 894//900 902//904 901//905
f 894//900 901//905 893//901
f 903//903 928//906 905//907
f 903//903 905//907 867//908
f 903//903 867//908 895//909
f 903//903 895//909 902//904
f 867//908 897//910 925//911
f 867//908 925//911 889//912
f 867//908 889//912 888//913
f 867//908 888//913 926//914
f 867//908 926//914 896//915
f 889//912 917//916 881//917
f 889//912 881//917 865//918
f 889//912 865//918 887//919
f 889//912 887//919 918//920
f 889//912 918//920 888//913
f 865//918 879//921 915//922
f 865//918 915//922 916//923
f 865//918 916//923 887//919
f 865//918 881//917 911//924
f 865//918 911//924 880//925
f 867//908 896//915 923//926
f 867//908 923//926 924//927
f 867//908 924//927 895//909
f 867//908 905//907 929//928
f 867//908 929//928 897//910
f 865//918 880//925 910//929
f 865//918 910//929 878//891
f 865//918 878//891 873//897
f 865//918 873//897 879//921
f 930//930 944//931 943//932
f 930//930 943//932 942//933
f 931//934 930//930 951//935
f 931//934 951//935 955//936
f 935//937 932//938 931//934
f 935//937 931//934 955//936
f 935//937 955//936 957//939
f 935//937 957//939 992//940
f 935//937 992//940 956//941
f 932//938 933//942 947//943
f 932//938 947//943 987//944
f 932//938 987//944 946//945
f 934//946 933//942 958//947
f 934//946 958//947 994//948
f 934//946 994//948 961//949
f 964//950 995//951 950//952
f 964//950 950//952 934//946
f 964//950 934//946 961//949
f 964//950 961//949 963//953
f 964//950 963//953 996//954
f 964//950 996//954 962//955
f 970//956 1001//957 964//950
f 970//956 964//950 962//955
f 970//956 962//955 1002//958
f 970//956 1002//958 969//959
f 941//960 979//961 1015//962
f 941//960 1015//962 970//956
f 941//960 970//956 969//959
f 941//960 969//959 1016//963
f 941//960 1016//963 978//964
f 941//960 984//965 1026//966
f 941//960 1026//966 979//961
f 941//960 940//967 983//968
f 941//960 983//968 1025//969
f 941//960 1025//969 984//965
f 940//967 975//970 1022//971
f 940//967 1022//971 1023//972
f 940//967 1023//972 1024//973
f 940//967 1024//973 983//968
f 936//974 939//975 977//976
f 936//974 977//976 976//977
f 936//974 976//977 975//970
f 936//974 975//970 940//967
f 936//974 940//967 974//978
f 936//974 974//978 1010//979
f 936//974 1010//979 1011//980
f 936//974 1011//980 968//981
f 939//975 982//982 977//976
f 939//975 938//983 981//984
f 939//975 981//984 1020//985
f 939//975 1020//985 1021//986
f 939//975 1021//986 982//982
f 938//983 937//987 980//988
f 938//983 980//988 1019//989
f 938//983 1019//989 981//984
f 937//987 972//990 1017//991
f 937//987 1017//991 1018//992
f 937//987 1018//992 980//988
f 966//993 1003//994 972//990
f 966//993 972//990 937//987
f 966//993 937//987 971//995
f 966//993 971//995 1004//996
f 966//993 1004//996 965//997
f 954//998 997//999 966//993
f 954//998 966//993 965//997
f 954//998 965//997 998//1000
f 954//998 998//1000 953//1001
f 937//987 938//983 973//1002
f 937//987 973//1002 1005//1003
f 937//987 1005//1003 1006//1004
f 937//987 1006//1004 971//995
f 938//983 939//975 936//974
f 938//983 936//974 967//1005
f 938//983 967//1005 1007//1006
f 938//983 1007//1006 1008//1007
f 938//983 1008//1007 1009//1008
f 938//983 1009//1008 973//1002
f 940//967 941//960 978//964
f 940//967 978//964 1012//1009
f 940//967 1012//1009 1013//1010
f 940//967 1013//1010 1014//1011
f 940//967 1014//1011 974//978
f 934//946 950//952 989//1012
f 934//946 989//1012 949//1013
f 934//946 949//1013 948//1014
f 933//942 934//946 948//1014
f 933//942 948//1014 988//1015
f 933//942 988//1015 947//943
f 935//937 936//974 968//981
f 935//937 968//981 1000//1016
f 935//937 1000//1016 960//1017
f 936//974 935//937 956//941
f 936//974 956//941 999//1018
f 936//974 999//1018 967//1005
f 933//942 932//938 935//937
f 933//942 935//937 960//1017
f 933//942 960//1017 993//1019
f 933//942 993//1019 959//1020
f 933//942 959//1020 958//947
f 931//934 932//938 946//945
f 931//934 946//945 986//1021
f 931//934 986//1021 945//1022
f 930//930 942//933 990//1023
f 930//930 990//1023 954//998
f 930//930 954//998 953//1001
f 930//930 953//1001 991//1024
f 930//930 991//1024 952//1025
f 930//930 952//1025 951//935
f 930//930 931//934 945//1022
f 930//930 945//1022 985//1026
f 930//930 985//1026 944//931
f 1027//1027 1037//1028 1036//1029
f 1027//1027 1036//1029 1035//1030
f 1027//1027 1035//1030 1034//1031
f 1029//1032 1049//1033 1077//1034
f 1029//1032 1077//1034 1038//1035
f 1029//1032 1038//1035 1027//1027
f 1029//1032 1027//1027 1044//1036
f 1029//1032 1044//1036 1048//1037
f 1030//1038 1058//1039 1083//1040
f 1030//1038 1083//1040 1050//1041
f 1030//1038 1050//1041 1029//1032
f 1030//1038 1029//1032 1056//1042
f 1030//1038 1056//1042 1084//1043
f 1030//1038 1084//1043 1057//1044
f 1031//1045 1030//1038 1066//1046
f 1031//1045 1066//1046 1067//1047
f 1070//1048 1074//1049 1031//1045
f 1070//1048 1031//1045 1067//1047
f 1070//1048 1067//1047 1093//1050
f 1070//1048 1093//1050 1069//1051
f 1032//1052 1060//1053 1070//1048
f 1032//1052 1070//1048 1069//1051
f 1032//1052 1069//1051 1068//1054
f 1033//1055 1032//1052 1068//1054
f 1033//1055 1068//1054 1096//1056
f 1033//1055 1096//1056 1071//1057
f 1033//1055 1071//1057 1090//1058
f 1033//1055 1090//1058 1062//1059
f 1052//1060 1086//1061 1087//1062
f 1052//1060 1087//1062 1063//1063
f 1052//1060 1063//1063 1033//1055
f 1052//1060 1033//1055 1062//1059
f 1052//1060 1062//1059 1088//1064
f 1052//1060 1088//1064 1051//1065
f 1028//1066 1053//1067 1079//1068
f 1028//1066 1079//1068 1080//1069
f 1028//1066 1080//1069 1052//1060
f 1028//1066 1052//1060 1051//1065
f 1028//1066 1051//1065 1081//1070
f 1028//1066 1081//1070 1043//1071
f 1028//1066 1073//1072 1091//1073
f 1028//1066 1091//1073 1053//1067
f 1039//1074 1073//1072 1028//1066
f 1039//1074 1028//1066 1042//1075
f 1039//1074 1042//1075 1072//1076
f 1039//1074 1072//1076 1041//1077
f 1041//1077 1040//1078 1039//1074
f 1028//1066 1043//1071 1076//1079
f 1028//1066 1076//1079 1042//1075
f 1032//1052 1033//1055 1063//1063
f 1032//1052 1063//1063 1094//1080
f 1032//1052 1094//1080 1095//1081
f 1032//1052 1095//1081 1061//1082
f 1032//1052 1061//1082 1060//1053
f 1031//1045 1074//1049 1092//1083
f 1031//1045 1092//1083 1059//1084
f 1030//1038 1057//1044 1089//1085
f 1030//1038 1089//1085 1066//1046
f 1030//1038 1031//1045 1059//1084
f 1030//1038 1059//1084 1085//1086
f 1030//1038 1085//1086 1058//1039
f 1029//1032 1048//1037 1082//1087
f 1029//1032 1082//1087 1056//1042
f 1029//1032 1050//1041 1078//1088
f 1029//1032 1078//1088 1049//1033
f 1027//1027 1034//1031 1047//1089
f 1027//1027 1047//1089 1046//1090
f 1027//1027 1046//1090 1045//1091
f 1027//1027 1045//1091 1044//1036
f 1047//1089 1055//1092 1054//1093
f 1047//1089 1054//1093 1046//1090
f 1055//1092 1065//1094 1064//1095
f 1055//1092 1064//1095 1054//1093
f 1027//1027 1038//1035 1075//1096
f 1027//1027 1075//1096 1037//1028
