# base_link.dae material 材质_024-effect; written by tools/champ_mesh_assets.py
# rgba 0.002853 0.002853 0.002853 1
v 0.371981 0.069143 0.098376
v 0.375174 0.071910 0.098376
v 0.371981 0.069143 0.107094
v 0.370790 0.065088 0.098376
v 0.371981 0.069143 0.089657
v 0.370790 0.065088 0.089657
v 0.375174 0.071910 0.089657
v 0.379357 0.072511 0.089657
v 0.379357 0.072511 0.098376
v 0.383201 0.070756 0.089657
v 0.383201 0.070756 0.098376
v 0.385486 0.067201 0.089657
v 0.385486 0.067201 0.098376
v 0.385486 0.062975 0.089657
v 0.383201 0.059420 0.089657
v 0.385486 0.062975 0.098376
v 0.385486 0.062975 0.107094
v 0.383201 0.059420 0.098376
v 0.379357 0.057664 0.098376
v 0.383201 0.059420 0.107094
v 0.383201 0.059420 0.115813
v 0.379357 0.057664 0.107094
v 0.379357 0.057664 0.115813
v 0.375174 0.058266 0.107094
v 0.375174 0.058266 0.115813
v 0.371981 0.061033 0.107094
v 0.375174 0.058266 0.098376
v 0.371981 0.061033 0.098376
v 0.375174 0.058266 0.089657
v 0.379357 0.057664 0.089657
v 0.371981 0.061033 0.089657
v 0.370790 0.065088 0.107094
v 0.371981 0.061033 0.115813
v 0.370790 0.065088 0.115813
v 0.371981 0.061033 0.124532
v 0.371981 0.061033 0.133251
v 0.370790 0.065088 0.124532
v 0.375174 0.058266 0.124532
v 0.375174 0.058266 0.133251
v 0.379357 0.057664 0.124532
v 0.383201 0.059420 0.124532
v 0.379357 0.057664 0.133251
v 0.383201 0.059420 0.133251
v 0.379357 0.057664 0.141969
v 0.375174 0.058266 0.141969
v 0.379357 0.057664 0.150688
v 0.383201 0.059420 0.141969
v 0.383201 0.059420 0.150688
v 0.385486 0.062975 0.141969
v 0.385486 0.067201 0.141969
v 0.385486 0.062975 0.133251
v 0.385486 0.062975 0.150688
v 0.385486 0.067201 0.150688
v 0.385486 0.062975 0.159407
v 0.385486 0.062975 0.168126
v 0.383201 0.059420 0.159407
v 0.385486 0.067201 0.159407
v 0.385486 0.067201 0.168126
v 0.383201 0.070756 0.159407
v 0.379357 0.072511 0.159407
v 0.383201 0.070756 0.168126
v 0.383201 0.070756 0.150688
v 0.383201 0.070756 0.141969
v 0.379357 0.072511 0.150688
v 0.379357 0.072511 0.141969
v 0.375174 0.071910 0.150688
v 0.371981 0.069143 0.150688
v 0.375174 0.071910 0.159407
v 0.375174 0.071910 0.141969
v 0.371981 0.069143 0.141969
v 0.375174 0.071910 0.133251
v 0.375174 0.071910 0.124532
v 0.379357 0.072511 0.133251
v 0.371981 0.069143 0.133251
v 0.370790 0.065088 0.133251
v 0.371981 0.069143 0.124532
v 0.371981 0.069143 0.115813
v 0.375174 0.071910 0.115813
v 0.375174 0.071910 0.107094
v 0.379357 0.072511 0.115813
v 0.379357 0.072511 0.124532
v 0.383201 0.070756 0.115813
v 0.379357 0.072511 0.107094
v 0.383201 0.070756 0.107094
v 0.385486 0.067201 0.107094
v 0.385486 0.067201 0.115813
v 0.385486 0.067201 0.124532
v 0.385486 0.062975 0.115813
v 0.385486 0.062975 0.124532
v 0.383201 0.070756 0.124532
v 0.385486 0.067201 0.133251
v 0.383201 0.070756 0.133251
v 0.370790 0.065088 0.141969
v 0.370790 0.065088 0.150688
v 0.371981 0.061033 0.141969
v 0.371981 0.061033 0.150688
v 0.371981 0.061033 0.159407
v 0.375174 0.058266 0.150688
v 0.375174 0.058266 0.159407
v 0.379357 0.057664 0.159407
v 0.375174 0.058266 0.168126
v 0.371981 0.061033 0.168126
v 0.379357 0.057664 0.168126
v 0.375174 0.058266 0.176844
v 0.375174 0.058266 0.185563
v 0.379357 0.057664 0.176844
v 0.371981 0.061033 0.176844
v 0.371981 0.061033 0.185563
v 0.370790 0.065088 0.176844
v 0.370790 0.065088 0.185563
v 0.371981 0.069143 0.176844
v 0.370790 0.065088 0.168126
v 0.370790 0.065088 0.159407
v 0.371981 0.069143 0.168126
v 0.375174 0.071910 0.168126
v 0.371981 0.069143 0.159407
v 0.375174 0.071910 0.176844
v 0.379357 0.072511 0.168126
v 0.379357 0.072511 0.176844
v 0.379357 0.072511 0.185563
v 0.383201 0.070756 0.176844
v 0.383201 0.070756 0.185563
v 0.385486 0.067201 0.176844
v 0.385486 0.067201 0.185563
v 0.385486 0.062975 0.176844
v 0.383201 0.059420 0.176844
v 0.385486 0.062975 0.185563
v 0.383201 0.059420 0.185563
v 0.385486 0.062975 0.194282
v 0.385486 0.067201 0.194282
v 0.385486 0.062975 0.203001
v 0.383201 0.059420 0.194282
v 0.383201 0.059420 0.203001
v 0.379357 0.057664 0.194282
v 0.379357 0.057664 0.203001
v 0.379357 0.057664 0.185563
v 0.375174 0.058266 0.194282
v 0.375174 0.058266 0.203001
v 0.371981 0.061033 0.194282
v 0.371981 0.061033 0.203001
v 0.370790 0.065088 0.194282
v 0.371981 0.069143 0.194282
v 0.370790 0.065088 0.203001
v 0.371981 0.069143 0.203001
v 0.370790 0.065088 0.211719
v 0.371981 0.069143 0.211719
v 0.371981 0.061033 0.211719
v 0.370790 0.065088 0.220438
v 0.371981 0.061033 0.220438
v 0.371981 0.069143 0.220438
v 0.370790 0.065088 0.229157
v 0.371981 0.061033 0.229157
v 0.371290 0.065088 0.229657
v 0.371981 0.069143 0.229157
v 0.375174 0.071910 0.229157
v 0.372401 0.068872 0.229657
v 0.375382 0.071455 0.229657
v 0.379286 0.072017 0.229657
v 0.382874 0.070378 0.229657
v 0.379357 0.072511 0.229157
v 0.379357 0.072511 0.220438
v 0.383201 0.070756 0.229157
v 0.383201 0.070756 0.220438
v 0.385486 0.067201 0.229157
v 0.385486 0.067201 0.220438
v 0.385486 0.062975 0.229157
v 0.385006 0.067060 0.229657
v 0.385006 0.063116 0.229657
v 0.382874 0.059798 0.229657
v 0.383201 0.059420 0.229157
v 0.379286 0.058159 0.229657
v 0.379357 0.057664 0.229157
v 0.375382 0.058720 0.229657
v 0.375174 0.058266 0.229157
v 0.372401 0.061303 0.229657
v 0.375174 0.058266 0.220438
v 0.375174 0.058266 0.211719
v 0.379357 0.057664 0.220438
v 0.383201 0.059420 0.220438
v 0.379357 0.057664 0.211719
v 0.383201 0.059420 0.211719
v 0.385486 0.062975 0.211719
v 0.385486 0.067201 0.211719
v 0.385486 0.062975 0.220438
v 0.385486 0.067201 0.203001
v 0.383201 0.070756 0.211719
v 0.383201 0.070756 0.203001
v 0.379357 0.072511 0.211719
v 0.379357 0.072511 0.203001
v 0.375174 0.071910 0.211719
v 0.375174 0.071910 0.220438
v 0.375174 0.071910 0.203001
v 0.375174 0.071910 0.194282
v 0.375174 0.071910 0.185563
v 0.379357 0.072511 0.194282
v 0.383201 0.070756 0.194282
v 0.371981 0.069143 0.185563
v 0.383201 0.059420 0.168126
v 0.279498 0.031319 0.093407
v 0.282692 0.028551 0.093407
v 0.279498 0.031319 0.102125
v 0.278307 0.035374 0.093407
v 0.279498 0.031319 0.084688
v 0.278307 0.035374 0.084688
v 0.282692 0.028551 0.084688
v 0.286875 0.027950 0.084688
v 0.286875 0.027950 0.093407
v 0.290719 0.029705 0.084688
v 0.293004 0.033261 0.084688
v 0.290719 0.029705 0.093407
v 0.293004 0.033261 0.093407
v 0.290719 0.029705 0.102125
v 0.290719 0.029705 0.110844
v 0.293004 0.033261 0.102125
v 0.286875 0.027950 0.102125
v 0.286875 0.027950 0.110844
v 0.282692 0.028551 0.102125
v 0.282692 0.028551 0.110844
v 0.279498 0.031319 0.110844
v 0.282692 0.028551 0.119563
v 0.279498 0.031319 0.119563
v 0.282692 0.028551 0.128282
v 0.286875 0.027950 0.119563
v 0.286875 0.027950 0.128282
v 0.290719 0.029705 0.119563
v 0.290719 0.029705 0.128282
v 0.293004 0.033261 0.119563
v 0.293004 0.033261 0.128282
v 0.293004 0.033261 0.110844
v 0.293004 0.037487 0.119563
v 0.293004 0.037487 0.128282
v 0.293004 0.037487 0.110844
v 0.290719 0.041042 0.119563
v 0.290719 0.041042 0.110844
v 0.290719 0.041042 0.128282
v 0.286875 0.042797 0.119563
v 0.286875 0.042797 0.110844
v 0.282692 0.042196 0.119563
v 0.286875 0.042797 0.128282
v 0.286875 0.042797 0.137000
v 0.282692 0.042196 0.128282
v 0.282692 0.042196 0.137000
v 0.279498 0.039428 0.128282
v 0.279498 0.039428 0.119563
v 0.279498 0.039428 0.137000
v 0.278307 0.035374 0.128282
v 0.278307 0.035374 0.137000
v 0.278307 0.035374 0.119563
v 0.279498 0.031319 0.128282
v 0.279498 0.031319 0.137000
v 0.282692 0.028551 0.137000
v 0.279498 0.031319 0.145719
v 0.279498 0.031319 0.154438
v 0.278307 0.035374 0.145719
v 0.282692 0.028551 0.145719
v 0.286875 0.027950 0.145719
v 0.282692 0.028551 0.154438
v 0.282692 0.028551 0.163157
v 0.286875 0.027950 0.154438
v 0.286875 0.027950 0.163157
v 0.290719 0.029705 0.154438
v 0.290719 0.029705 0.163157
v 0.290719 0.029705 0.145719
v 0.293004 0.033261 0.154438
v 0.293004 0.033261 0.163157
v 0.293004 0.033261 0.145719
v 0.293004 0.037487 0.154438
v 0.293004 0.037487 0.163157
v 0.293004 0.037487 0.145719
v 0.290719 0.041042 0.154438
v 0.290719 0.041042 0.163157
v 0.290719 0.041042 0.145719
v 0.286875 0.042797 0.154438
v 0.286875 0.042797 0.163157
v 0.286875 0.042797 0.145719
v 0.282692 0.042196 0.154438
v 0.282692 0.042196 0.163157
v 0.282692 0.042196 0.145719
v 0.279498 0.039428 0.154438
v 0.279498 0.039428 0.163157
v 0.279498 0.039428 0.145719
v 0.278307 0.035374 0.154438
v 0.278307 0.035374 0.163157
v 0.278307 0.035374 0.171875
v 0.279498 0.031319 0.163157
v 0.279498 0.031319 0.171875
v 0.282692 0.028551 0.171875
v 0.279498 0.031319 0.180594
v 0.278307 0.035374 0.180594
v 0.282692 0.028551 0.180594
v 0.279498 0.031319 0.189313
v 0.278307 0.035374 0.189313
v 0.279498 0.031319 0.198032
v 0.282692 0.028551 0.189313
v 0.282692 0.028551 0.198032
v 0.286875 0.027950 0.189313
v 0.286875 0.027950 0.198032
v 0.286875 0.027950 0.180594
v 0.290719 0.029705 0.189313
v 0.290719 0.029705 0.198032
v 0.290719 0.029705 0.180594
v 0.293004 0.033261 0.189313
v 0.293004 0.033261 0.180594
v 0.293004 0.033261 0.198032
v 0.293004 0.037487 0.189313
v 0.293004 0.037487 0.198032
v 0.290719 0.041042 0.189313
v 0.293004 0.037487 0.180594
v 0.293004 0.037487 0.171875
v 0.290719 0.041042 0.180594
v 0.290719 0.041042 0.171875
v 0.286875 0.042797 0.180594
v 0.286875 0.042797 0.171875
v 0.282692 0.042196 0.180594
v 0.286875 0.042797 0.189313
v 0.286875 0.042797 0.198032
v 0.282692 0.042196 0.189313
v 0.279498 0.039428 0.189313
v 0.282692 0.042196 0.198032
v 0.279498 0.039428 0.198032
v 0.282692 0.042196 0.206750
v 0.279498 0.039428 0.206750
v 0.282692 0.042196 0.215469
v 0.286875 0.042797 0.206750
v 0.290719 0.041042 0.206750
v 0.286875 0.042797 0.215469
v 0.290719 0.041042 0.215469
v 0.286875 0.042797 0.224188
v 0.282692 0.042196 0.224188
v 0.286804 0.042302 0.224688
v 0.290719 0.041042 0.224188
v 0.293004 0.037487 0.224188
v 0.290391 0.040664 0.224688
v 0.292524 0.037346 0.224688
v 0.292524 0.033401 0.224688
v 0.293004 0.033261 0.224188
v 0.290391 0.030083 0.224688
v 0.290719 0.029705 0.224188
v 0.286804 0.028445 0.224688
v 0.282900 0.029006 0.224688
v 0.286875 0.027950 0.224188
v 0.282692 0.028551 0.224188
v 0.286875 0.027950 0.215469
v 0.286875 0.027950 0.206750
v 0.290719 0.029705 0.215469
v 0.282692 0.028551 0.215469
v 0.282692 0.028551 0.206750
v 0.279498 0.031319 0.215469
v 0.279498 0.031319 0.206750
v 0.278307 0.035374 0.215469
v 0.279498 0.031319 0.224188
v 0.278307 0.035374 0.224188
v 0.279919 0.031589 0.224688
v 0.278807 0.035374 0.224688
v 0.279919 0.039158 0.224688
v 0.279498 0.039428 0.224188
v 0.282900 0.041741 0.224688
v 0.279498 0.039428 0.215469
v 0.278307 0.035374 0.206750
v 0.278307 0.035374 0.198032
v 0.290719 0.029705 0.206750
v 0.293004 0.033261 0.215469
v 0.293004 0.037487 0.215469
v 0.293004 0.033261 0.206750
v 0.293004 0.037487 0.206750
v 0.290719 0.041042 0.198032
v 0.279498 0.039428 0.180594
v 0.279498 0.039428 0.171875
v 0.282692 0.042196 0.171875
v 0.293004 0.033261 0.171875
v 0.290719 0.029705 0.171875
v 0.286875 0.027950 0.171875
v 0.290719 0.041042 0.137000
v 0.293004 0.037487 0.137000
v 0.293004 0.033261 0.137000
v 0.290719 0.029705 0.137000
v 0.286875 0.027950 0.137000
v 0.278307 0.035374 0.110844
v 0.278307 0.035374 0.102125
v 0.279498 0.039428 0.110844
v 0.279498 0.039428 0.102125
v 0.282692 0.042196 0.110844
v 0.282692 0.042196 0.102125
v 0.286875 0.042797 0.102125
v 0.282692 0.042196 0.093407
v 0.286875 0.042797 0.093407
v 0.279498 0.039428 0.093407
v 0.282692 0.042196 0.084688
v 0.286875 0.042797 0.084688
v 0.279498 0.039428 0.084688
v 0.290719 0.041042 0.084688
v 0.290719 0.041042 0.093407
v 0.293004 0.037487 0.084688
v 0.293004 0.037487 0.093407
v 0.293004 0.037487 0.102125
v 0.290719 0.041042 0.102125
v 0.279498 -0.031302 0.093407
v 0.278307 -0.035357 0.093407
v 0.282692 -0.028535 0.093407
v 0.279498 -0.031302 0.102125
v 0.279498 -0.031302 0.084688
v 0.278307 -0.035357 0.084688
v 0.282692 -0.028535 0.084688
v 0.286875 -0.027933 0.084688
v 0.286875 -0.027933 0.093407
v 0.290719 -0.029689 0.084688
v 0.290719 -0.029689 0.093407
v 0.293004 -0.033244 0.084688
v 0.293004 -0.033244 0.093407
v 0.293004 -0.037470 0.084688
v 0.293004 -0.037470 0.093407
v 0.290719 -0.041025 0.084688
v 0.290719 -0.041025 0.093407
v 0.286875 -0.042781 0.084688
v 0.286875 -0.042781 0.093407
v 0.282692 -0.042179 0.084688
v 0.282692 -0.042179 0.093407
v 0.279498 -0.039412 0.084688
v 0.279498 -0.039412 0.093407
v 0.279498 -0.039412 0.102125
v 0.278307 -0.035357 0.102125
v 0.279498 -0.039412 0.110844
v 0.282692 -0.042179 0.102125
v 0.282692 -0.042179 0.110844
v 0.286875 -0.042781 0.102125
v 0.286875 -0.042781 0.110844
v 0.290719 -0.041025 0.102125
v 0.293004 -0.037470 0.102125
v 0.290719 -0.041025 0.110844
v 0.290719 -0.041025 0.119563
v 0.293004 -0.037470 0.110844
v 0.293004 -0.037470 0.119563
v 0.293004 -0.033244 0.110844
v 0.293004 -0.033244 0.102125
v 0.290719 -0.029689 0.110844
v 0.293004 -0.033244 0.119563
v 0.290719 -0.029689 0.119563
v 0.293004 -0.033244 0.128282
v 0.293004 -0.033244 0.137000
v 0.293004 -0.037470 0.128282
v 0.290719 -0.029689 0.128282
v 0.290719 -0.029689 0.137000
v 0.286875 -0.027933 0.128282
v 0.282692 -0.028535 0.128282
v 0.286875 -0.027933 0.119563
v 0.286875 -0.027933 0.137000
v 0.286875 -0.027933 0.145719
v 0.282692 -0.028535 0.137000
v 0.282692 -0.028535 0.145719
v 0.279498 -0.031302 0.137000
v 0.279498 -0.031302 0.128282
v 0.279498 -0.031302 0.145719
v 0.278307 -0.035357 0.137000
v 0.278307 -0.035357 0.145719
v 0.279498 -0.039412 0.137000
v 0.278307 -0.035357 0.128282
v 0.278307 -0.035357 0.119563
v 0.279498 -0.039412 0.128282
v 0.282692 -0.042179 0.128282
v 0.279498 -0.039412 0.119563
v 0.282692 -0.042179 0.119563
v 0.286875 -0.042781 0.119563
v 0.286875 -0.042781 0.128282
v 0.286875 -0.042781 0.137000
v 0.290719 -0.041025 0.128282
v 0.290719 -0.041025 0.137000
v 0.293004 -0.037470 0.137000
v 0.290719 -0.041025 0.145719
v 0.286875 -0.042781 0.145719
v 0.290719 -0.041025 0.154438
v 0.293004 -0.037470 0.145719
v 0.293004 -0.037470 0.154438
v 0.293004 -0.033244 0.145719
v 0.290719 -0.029689 0.145719
v 0.293004 -0.033244 0.154438
v 0.293004 -0.033244 0.163157
v 0.290719 -0.029689 0.154438
v 0.286875 -0.027933 0.154438
v 0.290719 -0.029689 0.163157
v 0.286875 -0.027933 0.163157
v 0.290719 -0.029689 0.171875
v 0.286875 -0.027933 0.171875
v 0.290719 -0.029689 0.180594
v 0.293004 -0.033244 0.171875
v 0.293004 -0.037470 0.171875
v 0.293004 -0.033244 0.180594
v 0.293004 -0.033244 0.189313
v 0.293004 -0.037470 0.180594
v 0.293004 -0.037470 0.189313
v 0.290719 -0.041025 0.180594
v 0.290719 -0.041025 0.189313
v 0.290719 -0.041025 0.171875
v 0.286875 -0.042781 0.180594
v 0.286875 -0.042781 0.171875
v 0.282692 -0.042179 0.180594
v 0.286875 -0.042781 0.189313
v 0.286875 -0.042781 0.198032
v 0.282692 -0.042179 0.189313
v 0.279498 -0.039412 0.189313
v 0.282692 -0.042179 0.198032
v 0.282692 -0.042179 0.206750
v 0.279498 -0.039412 0.198032
v 0.278307 -0.035357 0.198032
v 0.279498 -0.039412 0.206750
v 0.278307 -0.035357 0.206750
v 0.279498 -0.039412 0.215469
v 0.282692 -0.042179 0.215469
v 0.278307 -0.035357 0.215469
v 0.279498 -0.039412 0.224188
v 0.279919 -0.039142 0.224688
v 0.278307 -0.035357 0.224188
v 0.282692 -0.042179 0.224188
v 0.282900 -0.041725 0.224688
v 0.286875 -0.042781 0.224188
v 0.286804 -0.042286 0.224688
v 0.286875 -0.042781 0.215469
v 0.290719 -0.041025 0.224188
v 0.290719 -0.041025 0.215469
v 0.290391 -0.040647 0.224688
v 0.293004 -0.037470 0.224188
v 0.292524 -0.037329 0.224688
v 0.293004 -0.037470 0.215469
v 0.293004 -0.033244 0.224188
v 0.292524 -0.033385 0.224688
v 0.293004 -0.033244 0.215469
v 0.290719 -0.029689 0.224188
v 0.290719 -0.029689 0.215469
v 0.286875 -0.027933 0.224188
v 0.290391 -0.030067 0.224688
v 0.286804 -0.028428 0.224688
v 0.282900 -0.028990 0.224688
v 0.282692 -0.028535 0.224188
v 0.279919 -0.031573 0.224688
v 0.278807 -0.035357 0.224688
v 0.279498 -0.031302 0.224188
v 0.279498 -0.031302 0.215469
v 0.279498 -0.031302 0.206750
v 0.282692 -0.028535 0.215469
v 0.286875 -0.027933 0.215469
v 0.282692 -0.028535 0.206750
v 0.282692 -0.028535 0.198032
v 0.286875 -0.027933 0.206750
v 0.290719 -0.029689 0.206750
v 0.286875 -0.027933 0.198032
v 0.290719 -0.029689 0.198032
v 0.286875 -0.027933 0.189313
v 0.282692 -0.028535 0.189313
v 0.290719 -0.029689 0.189313
v 0.286875 -0.027933 0.180594
v 0.282692 -0.028535 0.180594
v 0.279498 -0.031302 0.180594
v 0.282692 -0.028535 0.171875
v 0.279498 -0.031302 0.171875
v 0.282692 -0.028535 0.163157
v 0.279498 -0.031302 0.163157
v 0.282692 -0.028535 0.154438
v 0.279498 -0.031302 0.154438
v 0.278307 -0.035357 0.154438
v 0.279498 -0.039412 0.154438
v 0.278307 -0.035357 0.163157
v 0.278307 -0.035357 0.171875
v 0.279498 -0.039412 0.163157
v 0.282692 -0.042179 0.163157
v 0.279498 -0.039412 0.171875
v 0.279498 -0.039412 0.180594
v 0.282692 -0.042179 0.171875
v 0.278307 -0.035357 0.180594
v 0.278307 -0.035357 0.189313
v 0.279498 -0.031302 0.189313
v 0.279498 -0.031302 0.198032
v 0.282692 -0.042179 0.154438
v 0.286875 -0.042781 0.163157
v 0.290719 -0.041025 0.163157
v 0.286875 -0.042781 0.154438
v 0.293004 -0.037470 0.163157
v 0.282692 -0.042179 0.145719
v 0.279498 -0.039412 0.145719
v 0.282692 -0.042179 0.137000
v 0.293004 -0.033244 0.198032
v 0.293004 -0.033244 0.206750
v 0.293004 -0.037470 0.198032
v 0.293004 -0.037470 0.206750
v 0.290719 -0.041025 0.198032
v 0.290719 -0.041025 0.206750
v 0.286875 -0.042781 0.206750
v 0.279498 -0.031302 0.119563
v 0.278307 -0.035357 0.110844
v 0.279498 -0.031302 0.110844
v 0.282692 -0.028535 0.110844
v 0.282692 -0.028535 0.102125
v 0.286875 -0.027933 0.110844
v 0.282692 -0.028535 0.119563
v 0.286875 -0.027933 0.102125
v 0.290719 -0.029689 0.102125
v 0.371981 -0.069143 0.098376
v 0.375174 -0.071910 0.098376
v 0.371981 -0.069143 0.107094
v 0.370790 -0.065088 0.098376
v 0.371981 -0.069143 0.089657
v 0.375174 -0.071910 0.089657
v 0.370790 -0.065088 0.089657
v 0.371981 -0.061033 0.089657
v 0.371981 -0.061033 0.098376
v 0.375174 -0.058266 0.089657
v 0.375174 -0.058266 0.098376
v 0.379357 -0.057664 0.089657
v 0.383201 -0.059420 0.089657
v 0.379357 -0.057664 0.098376
v 0.379357 -0.057664 0.107094
v 0.383201 -0.059420 0.098376
v 0.385486 -0.062975 0.098376
v 0.383201 -0.059420 0.107094
v 0.385486 -0.062975 0.107094
v 0.383201 -0.059420 0.115813
v 0.383201 -0.059420 0.124532
v 0.385486 -0.062975 0.115813
v 0.379357 -0.057664 0.115813
v 0.379357 -0.057664 0.124532
v 0.375174 -0.058266 0.115813
v 0.375174 -0.058266 0.107094
v 0.375174 -0.058266 0.124532
v 0.371981 -0.061033 0.115813
v 0.371981 -0.061033 0.107094
v 0.370790 -0.065088 0.115813
v 0.371981 -0.061033 0.124532
v 0.370790 -0.065088 0.124532
v 0.371981 -0.061033 0.133251
v 0.375174 -0.058266 0.133251
v 0.371981 -0.061033 0.141969
v 0.370790 -0.065088 0.133251
v 0.370790 -0.065088 0.141969
v 0.371981 -0.069143 0.133251
v 0.371981 -0.069143 0.124532
v 0.371981 -0.069143 0.141969
v 0.375174 -0.071910 0.133251
v 0.375174 -0.071910 0.124532
v 0.375174 -0.071910 0.141969
v 0.379357 -0.072511 0.133251
v 0.383201 -0.070756 0.133251
v 0.379357 -0.072511 0.124532
v 0.379357 -0.072511 0.141969
v 0.379357 -0.072511 0.150688
v 0.383201 -0.070756 0.141969
v 0.383201 -0.070756 0.150688
v 0.385486 -0.067201 0.141969
v 0.385486 -0.067201 0.150688
v 0.385486 -0.062975 0.141969
v 0.385486 -0.067201 0.133251
v 0.385486 -0.062975 0.133251
v 0.385486 -0.067201 0.124532
v 0.383201 -0.070756 0.124532
v 0.385486 -0.067201 0.115813
v 0.385486 -0.062975 0.124532
v 0.385486 -0.067201 0.107094
v 0.383201 -0.070756 0.115813
v 0.383201 -0.070756 0.107094
v 0.379357 -0.072511 0.115813
v 0.375174 -0.071910 0.115813
v 0.379357 -0.072511 0.107094
v 0.379357 -0.072511 0.098376
v 0.375174 -0.071910 0.107094
v 0.383201 -0.070756 0.098376
v 0.379357 -0.072511 0.089657
v 0.383201 -0.070756 0.089657
v 0.385486 -0.067201 0.089657
v 0.385486 -0.067201 0.098376
v 0.385486 -0.062975 0.089657
v 0.371981 -0.069143 0.115813
v 0.383201 -0.059420 0.133251
v 0.383201 -0.059420 0.141969
v 0.379357 -0.057664 0.133251
v 0.379357 -0.057664 0.141969
v 0.379357 -0.057664 0.150688
v 0.375174 -0.058266 0.141969
v 0.375174 -0.058266 0.150688
v 0.375174 -0.058266 0.159407
v 0.371981 -0.061033 0.150688
v 0.371981 -0.061033 0.159407
v 0.370790 -0.065088 0.150688
v 0.370790 -0.065088 0.159407
v 0.371981 -0.069143 0.150688
v 0.375174 -0.071910 0.150688
v 0.371981 -0.069143 0.159407
v 0.371981 -0.069143 0.168126
v 0.375174 -0.071910 0.159407
v 0.375174 -0.071910 0.168126
v 0.379357 -0.072511 0.159407
v 0.383201 -0.070756 0.159407
v 0.379357 -0.072511 0.168126
v 0.379357 -0.072511 0.176844
v 0.383201 -0.070756 0.168126
v 0.383201 -0.070756 0.176844
v 0.385486 -0.067201 0.168126
v 0.385486 -0.067201 0.176844
v 0.385486 -0.062975 0.168126
v 0.385486 -0.067201 0.159407
v 0.385486 -0.062975 0.159407
v 0.385486 -0.062975 0.150688
v 0.383201 -0.059420 0.159407
v 0.379357 -0.057664 0.159407
v 0.383201 -0.059420 0.168126
v 0.383201 -0.059420 0.150688
v 0.383201 -0.059420 0.176844
v 0.379357 -0.057664 0.168126
v 0.379357 -0.057664 0.176844
v 0.375174 -0.058266 0.168126
v 0.375174 -0.058266 0.176844
v 0.371981 -0.061033 0.168126
v 0.370790 -0.065088 0.168126
v 0.371981 -0.061033 0.176844
v 0.371981 -0.061033 0.185563
v 0.370790 -0.065088 0.176844
v 0.371981 -0.069143 0.176844
v 0.370790 -0.065088 0.185563
v 0.370790 -0.065088 0.194282
v 0.371981 -0.069143 0.185563
v 0.371981 -0.069143 0.194282
v 0.375174 -0.071910 0.185563
v 0.379357 -0.072511 0.185563
v 0.375174 -0.071910 0.194282
v 0.375174 -0.071910 0.176844
v 0.379357 -0.072511 0.194282
v 0.375174 -0.071910 0.203001
v 0.375174 -0.071910 0.211719
v 0.371981 -0.069143 0.203001
v 0.379357 -0.072511 0.203001
v 0.383201 -0.070756 0.203001
v 0.379357 -0.072511 0.211719
v 0.379357 -0.072511 0.220438
v 0.383201 -0.070756 0.211719
v 0.385486 -0.067201 0.211719
v 0.383201 -0.070756 0.220438
v 0.385486 -0.067201 0.220438
v 0.383201 -0.070756 0.229157
v 0.379357 -0.072511 0.229157
v 0.385486 -0.067201 0.229157
v 0.382874 -0.070378 0.229657
v 0.379286 -0.072017 0.229657
v 0.385006 -0.067060 0.229657
v 0.385006 -0.063116 0.229657
v 0.382874 -0.059798 0.229657
v 0.385486 -0.062975 0.229157
v 0.383201 -0.059420 0.229157
v 0.385486 -0.062975 0.220438
v 0.383201 -0.059420 0.220438
v 0.385486 -0.062975 0.211719
v 0.385486 -0.062975 0.203001
v 0.383201 -0.059420 0.211719
v 0.383201 -0.059420 0.203001
v 0.379357 -0.057664 0.211719
v 0.379357 -0.057664 0.220438
v 0.375174 -0.058266 0.211719
v 0.379357 -0.057664 0.203001
v 0.375174 -0.058266 0.203001
v 0.379357 -0.057664 0.194282
v 0.379357 -0.057664 0.185563
v 0.383201 -0.059420 0.194282
v 0.375174 -0.058266 0.194282
v 0.371981 -0.061033 0.194282
v 0.375174 -0.058266 0.185563
v 0.371981 -0.061033 0.203001
v 0.371981 -0.061033 0.211719
v 0.370790 -0.065088 0.203001
v 0.370790 -0.065088 0.211719
v 0.371981 -0.069143 0.211719
v 0.370790 -0.065088 0.220438
v 0.371981 -0.069143 0.220438
v 0.370790 -0.065088 0.229157
v 0.371981 -0.061033 0.220438
v 0.371981 -0.061033 0.229157
v 0.375174 -0.058266 0.220438
v 0.375174 -0.058266 0.229157
v 0.375382 -0.058720 0.229657
v 0.379357 -0.057664 0.229157
v 0.379286 -0.058159 0.229657
v 0.372401 -0.061303 0.229657
v 0.371290 -0.065088 0.229657
v 0.372401 -0.068872 0.229657
v 0.375382 -0.071455 0.229657
v 0.371981 -0.069143 0.229157
v 0.375174 -0.071910 0.229157
v 0.375174 -0.071910 0.220438
v 0.385486 -0.062975 0.194282
v 0.383201 -0.059420 0.185563
v 0.385486 -0.062975 0.185563
v 0.385486 -0.062975 0.176844
v 0.385486 -0.067201 0.185563
v 0.383201 -0.070756 0.185563
v 0.385486 -0.067201 0.194282
v 0.383201 -0.070756 0.194282
v 0.385486 -0.067201 0.203001
v 0.370790 -0.065088 0.107094
vn -1.0000 -0.0000 -0.0000
vn -0.0000 -0.0000 1.0000
vn -0.8412 0.5407 -0.0000
vn -0.4154 0.9096 -0.0000
vn -0.4154 0.9096 -0.0000
vn -0.8412 0.5407 -0.0000
vn -0.4154 0.9096 -0.0000
vn -0.8412 0.5407 -0.0000
vn -1.0000 -0.0000 -0.0000
vn -1.0000 -0.0000 -0.0000
vn -1.0000 -0.0000 -0.0000
vn 0.0000 0.0000 -1.0000
vn 0.1423 0.9898 0.0000
vn 0.1423 0.9898 0.0000
vn 0.6548 0.7558 0.0000
vn 0.6548 0.7558 0.0000
vn 0.9595 0.2818 0.0000
vn 0.9595 0.2818 0.0000
vn 0.9595 -0.2818 0.0000
vn 0.9595 -0.2818 0.0000
vn 0.6549 -0.7557 0.0000
vn 0.6549 -0.7557 0.0000
vn 0.9595 0.2818 0.0000
vn 0.9595 -0.2818 0.0000
vn 0.6549 -0.7557 0.0000
vn 0.1423 -0.9898 0.0000
vn 0.1423 -0.9898 0.0000
vn 0.6549 -0.7557 0.0000
vn 0.9595 -0.2818 0.0000
vn -0.4155 -0.9096 -0.0000
vn -0.4155 -0.9096 -0.0000
vn -0.4155 -0.9096 -0.0000
vn -0.8412 -0.5407 -0.0000
vn -0.8412 -0.5407 -0.0000
vn -0.8412 -0.5407 -0.0000
vn -0.4155 -0.9096 -0.0000
vn -0.8412 -0.5407 -0.0000
vn -1.0000 -0.0000 -0.0000
vn -0.8412 -0.5407 -0.0000
vn -1.0000 -0.0000 -0.0000
vn -0.4155 -0.9096 -0.0000
vn -0.8412 -0.5407 -0.0000
vn -1.0000 -0.0000 -0.0000
vn -0.4155 -0.9096 -0.0000
vn 0.1423 -0.9898 0.0000
vn 0.1423 -0.9898 0.0000
vn 0.6549 -0.7557 0.0000
vn 0.6549 -0.7557 0.0000
vn 0.1423 -0.9898 0.0000
vn -0.4155 -0.9096 -0.0000
vn 0.6549 -0.7557 0.0000
vn -0.4155 -0.9096 -0.0000
vn 0.6549 -0.7557 0.0000
vn 0.9595 -0.2818 0.0000
vn 0.9595 -0.2818 0.0000
vn 0.9595 0.2818 0.0000
vn 0.9595 0.2818 0.0000
vn 0.6549 -0.7557 0.0000
vn 0.9595 -0.2818 0.0000
vn 0.6549 -0.7557 0.0000
vn 0.9595 0.2818 0.0000
vn 0.6548 0.7558 0.0000
vn 0.6548 0.7558 0.0000
vn 0.1423 0.9898 0.0000
vn 0.1423 0.9898 0.0000
vn 0.6548 0.7558 0.0000
vn 0.1423 0.9898 0.0000
vn -0.4154 0.9096 -0.0000
vn -0.4154 0.9096 -0.0000
vn -0.4154 0.9096 -0.0000
vn -0.8412 0.5407 -0.0000
vn -0.8412 0.5407 -0.0000
vn -0.4154 0.9096 -0.0000
vn -0.8412 0.5407 -0.0000
vn 0.1423 0.9898 0.0000
vn 0.1423 0.9898 0.0000
vn -0.4154 0.9096 -0.0000
vn -0.8412 0.5407 -0.0000
vn 0.1423 0.9898 0.0000
vn 0.6548 0.7558 0.0000
vn 0.6548 0.7558 0.0000
vn 0.6548 0.7558 0.0000
vn 0.9595 0.2818 0.0000
vn 0.9595 0.2818 0.0000
vn 0.9595 -0.2818 0.0000
vn 0.6548 0.7558 0.0000
vn -0.8412 -0.5407 -0.0000
vn -0.8412 -0.5407 -0.0000
vn -0.8412 -0.5407 -0.0000
vn -0.4155 -0.9096 -0.0000
vn 0.1423 -0.9898 0.0000
vn -0.4155 -0.9096 -0.0000
vn -0.8412 -0.5407 -0.0000
vn 0.1423 -0.9898 0.0000
vn -1.0000 -0.0000 -0.0000
vn -1.0000 -0.0000 -0.0000
vn -0.8412 0.5407 -0.0000
vn -0.8412 0.5407 -0.0000
vn -0.4154 0.9096 -0.0000
vn -0.4154 0.9096 -0.0000
vn 0.1423 0.9898 0.0000
vn 0.9595 -0.2818 0.0000
vn 0.6549 -0.7557 0.0000
vn 0.9595 0.2818 0.0000
vn 0.6549 -0.7557 0.0000
vn -0.4155 -0.9096 -0.0000
vn -0.4155 -0.9096 -0.0000
vn -1.0000 -0.0000 -0.0000
vn -1.0000 -0.0000 -0.0000
vn -0.8412 0.5407 -0.0000
vn -0.8412 0.5407 -0.0000
vn -1.0000 -0.0000 -0.0000
vn -0.8412 0.5407 -0.0000
vn -0.8412 -0.5407 -0.0000
vn -0.8412 -0.5407 -0.0000
vn -1.0000 -0.0000 -0.0000
vn -0.8412 0.5407 -0.0000
vn -0.5951 -0.3825 0.7068
vn -0.7073 0.0000 0.7069
vn -0.7073 -0.0000 0.7069
vn -0.5951 -0.3825 0.7068
vn -0.5948 0.3824 0.7071
vn -0.5950 0.3821 0.7071
vn -0.4154 0.9096 -0.0000
vn -0.4154 0.9096 -0.0000
vn -0.2937 0.6433 0.7071
vn -0.2938 0.6432 0.7071
vn 0.1006 0.6999 0.7072
vn 0.1006 0.6999 0.7071
vn 0.4632 0.5345 0.7069
vn 0.4631 0.5343 0.7071
vn 0.1423 0.9898 0.0000
vn 0.6548 0.7558 0.0000
vn 0.6784 0.1992 0.7072
vn 0.6784 0.1992 0.7072
vn 0.9595 -0.2818 0.0000
vn 0.6784 -0.1992 0.7072
vn 0.6784 -0.1992 0.7072
vn 0.4631 -0.5343 0.7071
vn 0.4630 -0.5344 0.7071
vn 0.1007 -0.7000 0.7070
vn 0.1006 -0.7000 0.7070
vn -0.2938 -0.6432 0.7071
vn -0.2938 -0.6432 0.7071
vn 0.1423 -0.9898 0.0000
vn 0.6549 -0.7557 0.0000
vn 0.6548 0.7558 0.0000
vn 0.1423 0.9898 0.0000
vn 0.1423 0.9898 0.0000
vn -0.4154 0.9096 -0.0000
vn -0.4154 0.9096 -0.0000
vn -0.8413 -0.5406 -0.0000
vn -0.4154 -0.9096 -0.0000
vn -0.4154 -0.9096 -0.0000
vn -0.8413 -0.5406 -0.0000
vn -0.8412 -0.5406 -0.0000
vn -0.4154 -0.9096 -0.0000
vn -1.0000 0.0000 -0.0000
vn -1.0000 0.0000 -0.0000
vn -1.0000 0.0000 -0.0000
vn 0.0000 0.0000 -1.0000
vn 0.1423 -0.9898 0.0000
vn 0.1423 -0.9898 0.0000
vn 0.6548 -0.7558 0.0000
vn 0.6548 -0.7558 0.0000
vn 0.9595 -0.2817 0.0000
vn 0.9595 -0.2817 0.0000
vn 0.6548 -0.7558 0.0000
vn 0.1423 -0.9898 0.0000
vn 0.9595 -0.2817 0.0000
vn 0.6548 -0.7558 0.0000
vn 0.1423 -0.9898 0.0000
vn 0.9595 -0.2817 0.0000
vn -0.4154 -0.9096 -0.0000
vn -0.8413 -0.5406 -0.0000
vn -0.4154 -0.9096 -0.0000
vn -0.8413 -0.5406 -0.0000
vn 0.1423 -0.9898 0.0000
vn -0.4154 -0.9096 -0.0000
vn -0.8413 -0.5406 -0.0000
vn 0.1423 -0.9898 0.0000
vn 0.6548 -0.7558 0.0000
vn 0.6548 -0.7558 0.0000
vn 0.9595 -0.2817 0.0000
vn 0.9595 -0.2817 0.0000
vn 0.9595 0.2818 0.0000
vn 0.9595 0.2818 0.0000
vn 0.9595 0.2818 0.0000
vn 0.6548 0.7558 0.0000
vn 0.6548 0.7558 0.0000
vn 0.6548 0.7558 0.0000
vn 0.1423 0.9898 0.0000
vn 0.1423 0.9898 0.0000
vn 0.1423 0.9898 0.0000
vn -0.4154 0.9096 -0.0000
vn -0.4154 0.9096 -0.0000
vn -0.4154 0.9096 -0.0000
vn 0.1423 0.9898 0.0000
vn 0.6548 0.7558 0.0000
vn -0.4154 0.9096 -0.0000
vn -0.8412 0.5407 -0.0000
vn -0.8412 0.5407 -0.0000
vn -0.8412 0.5407 -0.0000
vn -1.0000 0.0000 -0.0000
vn -1.0000 0.0000 -0.0000
vn -1.0000 0.0000 -0.0000
vn -0.8413 -0.5406 -0.0000
vn -1.0000 0.0000 -0.0000
vn -0.4154 -0.9096 -0.0000
vn -0.8413 -0.5406 -0.0000
vn 0.1423 -0.9898 0.0000
vn 0.1423 -0.9898 0.0000
vn -0.4154 -0.9096 -0.0000
vn -0.8413 -0.5406 -0.0000
vn 0.1423 -0.9898 0.0000
vn 0.6548 -0.7558 0.0000
vn 0.6548 -0.7558 0.0000
vn 0.9595 -0.2817 0.0000
vn 0.9595 -0.2817 0.0000
vn 0.9595 0.2818 0.0000
vn 0.6548 0.7558 0.0000
vn 0.6548 0.7558 0.0000
vn 0.6548 0.7558 0.0000
vn 0.1423 0.9898 0.0000
vn 0.1423 0.9898 0.0000
vn -0.4154 0.9096 -0.0000
vn -0.4154 0.9096 -0.0000
vn -0.8412 0.5407 -0.0000
vn -0.8412 0.5407 -0.0000
vn -0.8413 -0.5406 -0.0000
vn -0.4154 -0.9096 -0.0000
vn -1.0000 0.0000 -0.0000
vn -0.8413 -0.5406 -0.0000
vn -0.8413 -0.5406 -0.0000
vn -1.0000 0.0000 -0.0000
vn -0.8413 -0.5406 -0.0000
vn 0.1423 -0.9898 0.0000
vn 0.6548 -0.7558 0.0000
vn 0.6548 -0.7558 0.0000
vn 0.9595 -0.2817 0.0000
vn 0.6548 0.7558 0.0000
vn 0.6548 0.7558 0.0000
vn 0.9595 -0.2817 0.0000
vn 0.1423 0.9898 0.0000
vn 0.1423 0.9898 0.0000
vn -0.4154 0.9096 -0.0000
vn -0.4154 0.9096 -0.0000
vn 0.1423 0.9898 0.0000
vn -0.4154 0.9096 -0.0000
vn -0.8412 0.5407 -0.0000
vn -0.8412 0.5407 -0.0000
vn 0.1423 0.9898 0.0000
vn -0.8412 0.5407 -0.0000
vn -0.4154 0.9096 -0.0000
vn 0.6548 0.7558 0.0000
vn 0.1423 0.9898 0.0000
vn 0.6548 0.7558 0.0000
vn -0.4154 0.9096 -0.0000
vn 0.1006 0.7000 0.7070
vn -0.2937 0.6431 0.7072
vn -0.2936 0.6431 0.7072
vn 0.1005 0.7000 0.7070
vn 0.4629 0.5342 0.7073
vn 0.4628 0.5343 0.7073
vn 0.9595 0.2818 0.0000
vn 0.9595 0.2818 0.0000
vn 0.6782 0.1992 0.7074
vn 0.6782 0.1991 0.7074
vn 0.0000 0.0000 1.0000
vn 0.6785 -0.1993 0.7071
vn 0.6782 -0.1993 0.7073
vn 0.4630 -0.5343 0.7072
vn 0.4629 -0.5344 0.7072
vn 0.1006 -0.6998 0.7072
vn 0.1007 -0.6998 0.7072
vn -0.2937 -0.6431 0.7072
vn -0.2936 -0.6431 0.7072
vn 0.1423 -0.9898 0.0000
vn -0.4154 -0.9096 -0.0000
vn -0.4154 -0.9096 -0.0000
vn 0.6548 -0.7558 0.0000
vn 0.1423 -0.9898 0.0000
vn 0.6548 -0.7558 0.0000
vn -0.8413 -0.5406 -0.0000
vn -0.8413 -0.5406 -0.0000
vn -1.0000 0.0000 -0.0000
vn -0.5947 -0.3823 0.7072
vn -0.7070 0.0000 0.7072
vn -0.7070 0.0000 0.7072
vn -0.5948 -0.3822 0.7072
vn -0.5948 0.3822 0.7072
vn -0.5947 0.3823 0.7072
vn 0.9595 -0.2817 0.0000
vn 0.9595 0.2818 0.0000
vn 0.6548 -0.7558 0.0000
vn 0.1423 -0.9898 0.0000
vn 0.9595 0.2818 0.0000
vn 0.9595 -0.2817 0.0000
vn -1.0000 0.0000 -0.0000
vn -0.4154 0.9096 -0.0000
vn 0.1423 0.9898 0.0000
vn -0.4154 0.9096 -0.0000
vn -0.8412 0.5407 -0.0000
vn 0.1423 0.9898 0.0000
vn 0.1423 0.9898 0.0000
vn -0.4154 0.9096 -0.0000
vn -0.8412 0.5407 -0.0000
vn 0.6548 0.7558 0.0000
vn 0.6548 0.7558 0.0000
vn 0.9595 0.2818 0.0000
vn 0.6548 0.7558 0.0000
vn -0.8412 0.5407 -0.0000
vn -0.8414 0.5405 -0.0000
vn -1.0000 0.0000 -0.0000
vn -1.0000 -0.0000 -0.0000
vn -0.8412 0.5407 -0.0000
vn -0.4154 0.9096 -0.0000
vn -0.4154 0.9096 -0.0000
vn -0.4154 0.9096 -0.0000
vn -0.0000 -0.0000 -1.0000
vn 0.1423 0.9898 0.0000
vn 0.1423 0.9898 0.0000
vn 0.6549 0.7557 0.0000
vn 0.6549 0.7557 0.0000
vn 0.9595 -0.2818 0.0000
vn 0.9595 -0.2818 0.0000
vn 0.6549 -0.7557 0.0000
vn 0.1423 -0.9898 0.0000
vn -0.4154 -0.9096 -0.0000
vn -0.4154 -0.9096 -0.0000
vn -0.8415 -0.5403 -0.0000
vn -0.8412 -0.5407 -0.0000
vn -0.4154 -0.9096 -0.0000
vn -0.8414 -0.5404 -0.0000
vn -0.8415 -0.5403 -0.0000
vn -0.4154 -0.9096 -0.0000
vn 0.1423 -0.9898 0.0000
vn 0.1423 -0.9898 0.0000
vn 0.6549 -0.7557 0.0000
vn 0.6549 -0.7557 0.0000
vn 0.9595 -0.2818 0.0000
vn 0.9595 -0.2818 0.0000
vn 0.9595 -0.2818 0.0000
vn 0.6549 -0.7557 0.0000
vn 0.1423 -0.9898 0.0000
vn 0.9595 0.2818 0.0000
vn 0.9595 0.2818 0.0000
vn 0.6549 0.7557 0.0000
vn 0.6549 0.7557 0.0000
vn 0.6549 0.7557 0.0000
vn 0.6549 0.7557 0.0000
vn 0.9595 -0.2818 0.0000
vn 0.6549 0.7557 0.0000
vn 0.1423 0.9898 0.0000
vn 0.1423 0.9898 0.0000
vn -0.4154 0.9096 -0.0000
vn -0.4154 0.9096 -0.0000
vn -0.4154 0.9096 -0.0000
vn 0.1423 0.9898 0.0000
vn 0.6549 0.7557 0.0000
vn -0.8414 0.5404 -0.0000
vn -0.8415 0.5403 -0.0000
vn -0.8414 0.5404 -0.0000
vn -1.0000 0.0000 -0.0000
vn -0.8412 -0.5407 -0.0000
vn -0.8414 -0.5404 -0.0000
vn -0.8412 -0.5407 -0.0000
vn -0.8412 0.5407 -0.0000
vn -1.0000 0.0000 -0.0000
vn -0.8412 -0.5407 -0.0000
vn -0.4154 -0.9096 -0.0000
vn -0.4154 -0.9096 -0.0000
vn 0.1423 -0.9898 0.0000
vn 0.6549 -0.7557 0.0000
vn 0.1423 -0.9898 0.0000
vn 0.6549 -0.7557 0.0000
vn 0.6549 -0.7557 0.0000
vn 0.1423 -0.9898 0.0000
vn 0.9595 0.2818 0.0000
vn 0.6549 0.7557 0.0000
vn 0.9595 -0.2818 0.0000
vn 0.6549 0.7557 0.0000
vn 0.1423 0.9898 0.0000
vn 0.1423 0.9898 0.0000
vn 0.1423 0.9898 0.0000
vn 0.6549 0.7557 0.0000
vn 0.6549 0.7557 0.0000
vn 0.6549 -0.7557 0.0000
vn 0.1423 -0.9898 0.0000
vn -0.4154 -0.9096 -0.0000
vn -0.4154 -0.9096 -0.0000
vn 0.1423 -0.9898 0.0000
vn -0.4154 -0.9096 -0.0000
vn 0.6549 -0.7557 0.0000
vn -0.8412 -0.5407 -0.0000
vn -0.8414 -0.5404 -0.0000
vn -0.8412 -0.5407 -0.0000
vn 0.1423 -0.9898 0.0000
vn -1.0000 0.0000 -0.0000
vn -1.0000 0.0000 -0.0000
vn -0.5948 -0.3824 0.7071
vn -0.7069 0.0000 0.7073
vn -0.7069 -0.0000 0.7073
vn -0.5949 -0.3823 0.7071
vn -0.2937 -0.6434 0.7069
vn -0.2939 -0.6433 0.7069
vn 0.1007 -0.6999 0.7071
vn 0.1006 -0.7000 0.7071
vn 0.4629 -0.5343 0.7073
vn 0.4630 -0.5342 0.7073
vn 0.6549 -0.7557 0.0000
vn 0.6549 -0.7557 0.0000
vn 0.9595 -0.2818 0.0000
vn 0.9595 -0.2818 0.0000
vn 0.6784 -0.1992 0.7071
vn 0.6784 -0.1992 0.7071
vn 0.6785 0.1992 0.7071
vn 0.6784 0.1992 0.7071
vn 0.4629 0.5343 0.7073
vn 0.4630 0.5342 0.7073
vn 0.1006 0.6998 0.7073
vn 0.1006 0.7001 0.7069
vn -0.0000 -0.0000 1.0000
vn -0.2936 0.6430 0.7074
vn -0.2937 0.6430 0.7074
vn -0.5946 0.3821 0.7074
vn -0.5945 0.3822 0.7074
vn -0.8415 0.5403 -0.0000
vn -0.8412 0.5407 -0.0000
vn -0.4154 0.9096 -0.0000
vn -0.8412 0.5407 -0.0000
vn -0.4154 0.9096 -0.0000
vn -0.8412 0.5407 -0.0000
vn -0.4154 0.9096 -0.0000
vn -0.4154 0.9096 -0.0000
vn -0.8412 0.5407 -0.0000
vn -0.8414 0.5404 -0.0000
vn -0.8412 0.5407 -0.0000
vn -1.0000 0.0000 -0.0000
vn -0.8414 -0.5404 -0.0000
vn -0.8415 -0.5403 -0.0000
vn 0.1423 -0.9898 0.0000
vn 0.6549 -0.7557 0.0000
vn -0.8414 0.5404 -0.0000
vn 0.1423 0.9898 0.0000
vn 0.1423 0.9898 0.0000
vn -0.8412 -0.5407 -0.0000
vn -0.4154 -0.9096 -0.0000
vn -0.4154 -0.9096 -0.0000
vn -0.8412 -0.5407 -0.0000
vn -0.4154 -0.9096 -0.0000
vn -1.0000 0.0000 -0.0000
vn -1.0000 -0.0000 -0.0000
vn 0.0000 0.0000 -1.0000
vn -0.8412 0.5407 -0.0000
vn -0.4155 0.9096 -0.0000
vn -0.4155 0.9096 -0.0000
vn 0.1423 0.9898 0.0000
vn 0.6549 0.7557 0.0000
vn 0.6549 0.7557 0.0000
vn -0.4155 0.9096 -0.0000
vn 0.6549 0.7557 0.0000
vn 0.9595 0.2818 0.0000
vn 0.9595 0.2818 0.0000
vn 0.9595 0.2818 0.0000
vn 0.6549 0.7557 0.0000
vn 0.1423 0.9898 0.0000
vn 0.6549 0.7557 0.0000
vn 0.9595 0.2818 0.0000
vn -0.4155 0.9096 -0.0000
vn -0.4155 0.9096 -0.0000
vn -0.8412 0.5407 -0.0000
vn -1.0000 -0.0000 -0.0000
vn -0.4155 0.9096 -0.0000
vn -1.0000 0.0000 -0.0000
vn -0.8412 0.5407 -0.0000
vn -0.8412 -0.5407 -0.0000
vn -0.8412 -0.5407 -0.0000
vn -0.4154 -0.9096 -0.0000
vn -0.4154 -0.9096 -0.0000
vn -0.4154 -0.9096 -0.0000
vn 0.1423 -0.9898 0.0000
vn 0.1423 -0.9898 0.0000
vn 0.1423 -0.9898 0.0000
vn 0.6548 -0.7558 0.0000
vn 0.6548 -0.7558 0.0000
vn 0.6548 -0.7558 0.0000
vn 0.1423 -0.9898 0.0000
vn -0.4154 -0.9096 -0.0000
vn 0.6548 -0.7558 0.0000
vn 0.9595 -0.2818 0.0000
vn 0.9595 0.2818 0.0000
vn 0.9595 0.2818 0.0000
vn 0.9595 -0.2818 0.0000
vn 0.6548 -0.7558 0.0000
vn 0.6549 0.7557 0.0000
vn 0.6548 -0.7558 0.0000
vn 0.1423 -0.9898 0.0000
vn 0.1423 -0.9898 0.0000
vn 0.6548 -0.7558 0.0000
vn 0.1423 -0.9898 0.0000
vn 0.6548 -0.7558 0.0000
vn 0.6549 0.7557 0.0000
vn 0.1423 0.9898 0.0000
vn 0.1423 0.9898 0.0000
vn 0.1423 0.9898 0.0000
vn 0.6549 0.7557 0.0000
vn -0.4155 0.9096 -0.0000
vn -0.8412 0.5407 -0.0000
vn -0.8412 0.5407 -0.0000
vn -0.8412 -0.5407 -0.0000
vn -1.0000 0.0000 -0.0000
vn -0.8412 -0.5407 -0.0000
vn -0.4154 -0.9096 -0.0000
vn 0.1423 -0.9898 0.0000
vn 0.6548 -0.7558 0.0000
vn 0.6548 -0.7558 0.0000
vn 0.1423 -0.9898 0.0000
vn -0.4154 -0.9096 -0.0000
vn 0.9595 -0.2818 0.0000
vn 0.6549 0.7557 0.0000
vn 0.1423 0.9898 0.0000
vn 0.1423 0.9898 0.0000
vn 0.6549 0.7557 0.0000
vn -0.4155 0.9096 -0.0000
vn -0.4155 0.9096 -0.0000
vn -0.8412 0.5407 -0.0000
vn -1.0000 -0.0000 -0.0000
vn -0.8412 -0.5407 -0.0000
vn 0.1423 -0.9898 0.0000
vn -0.4154 -0.9096 -0.0000
vn -0.8412 -0.5407 -0.0000
vn -0.4154 -0.9096 -0.0000
vn 0.1423 -0.9898 0.0000
vn 0.6548 -0.7558 0.0000
vn -0.4154 -0.9096 -0.0000
vn 0.6548 -0.7558 0.0000
vn 0.1423 -0.9898 0.0000
vn 0.1006 -0.6999 0.7071
vn 0.4631 -0.5343 0.7071
vn 0.4632 -0.5345 0.7069
vn 0.1006 -0.6999 0.7072
vn 0.6784 -0.1992 0.7072
vn 0.6784 -0.1992 0.7072
vn 0.0000 0.0000 1.0000
vn 0.6784 0.1992 0.7072
vn 0.6784 0.1992 0.7072
vn 0.4630 0.5344 0.7071
vn 0.4632 0.5343 0.7071
vn 0.9595 0.2818 0.0000
vn 0.6549 0.7557 0.0000
vn -0.4155 0.9096 -0.0000
vn 0.6549 0.7557 0.0000
vn -1.0000 0.0000 -0.0000
vn -0.8412 -0.5407 -0.0000
vn -0.8412 0.5407 -0.0000
vn 0.1423 0.9898 0.0000
vn -0.2937 0.6432 0.7071
vn -0.5948 0.3823 0.7071
vn -0.5948 0.3823 0.7071
vn -0.2937 0.6433 0.7070
vn 0.1006 0.6998 0.7072
vn 0.1007 0.7000 0.7070
vn -0.7073 0.0000 0.7069
vn -0.7073 -0.0000 0.7069
vn -0.5950 -0.3821 0.7071
vn -0.5948 -0.3824 0.7071
vn -0.2938 -0.6432 0.7071
vn -0.2937 -0.6433 0.7071
vn -0.4154 -0.9096 -0.0000
vn 0.9595 -0.2818 0.0000
f 3//3 79//4 2//5
f 3//3 2//5 1//6
f 1//6 2//5 7//7
f 1//6 7//7 5//8
f 3//3 1//6 4//9
f 3//3 4//9 32//10
f 1//6 5//8 6//11
f 1//6 6//11 4//9
f 6//12 5//12 7//12
f 6//12 7//12 8//12
f 6//12 8//12 10//12
f 6//12 10//12 12//12
f 6//12 12//12 14//12
f 6//12 14//12 15//12
f 6//12 15//12 30//12
f 6//12 30//12 29//12
f 6//12 29//12 31//12
f 2//5 9//13 8//14
f 2//5 8//14 7//7
f 9//13 11//15 10//16
f 9//13 10//16 8//14
f 11//15 13//17 12//18
f 11//15 12//18 10//16
f 13//17 16//19 14//20
f 13//17 14//20 12//18
f 16//19 18//21 15//22
f 16//19 15//22 14//20
f 85//23 17//24 16//19
f 85//23 16//19 13//17
f 17//24 20//25 18//21
f 17//24 18//21 16//19
f 20//25 22//26 19//26
f 20//25 19//26 18//21
f 18//21 19//26 30//27
f 18//21 30//27 15//22
f 21//28 23//27 22//26
f 21//28 22//26 20//25
f 88//29 21//28 20//25
f 88//29 20//25 17//24
f 23//27 25//30 24//31
f 23//27 24//31 22//26
f 22//26 24//31 27//32
f 22//26 27//32 19//26
f 25//30 33//33 26//34
f 25//30 26//34 24//31
f 24//31 26//34 28//35
f 24//31 28//35 27//32
f 19//26 27//32 29//36
f 19//26 29//36 30//27
f 27//32 28//35 31//37
f 27//32 31//37 29//36
f 28//35 4//9 6//11
f 28//35 6//11 31//37
f 28//35 26//34 32//10
f 28//35 32//10 4//9
f 26//34 33//33 34//38
f 26//34 34//38 32//10
f 33//33 35//39 37//40
f 33//33 37//40 34//38
f 38//41 35//39 33//33
f 38//41 33//33 25//30
f 35//39 36//42 75//43
f 35//39 75//43 37//40
f 39//44 36//42 35//39
f 39//44 35//39 38//41
f 42//45 39//44 38//41
f 42//45 38//41 40//46
f 40//46 38//41 25//30
f 40//46 25//30 23//27
f 41//47 40//46 23//27
f 41//47 23//27 21//28
f 43//48 42//45 40//46
f 43//48 40//46 41//47
f 44//49 45//50 39//44
f 44//49 39//44 42//45
f 47//51 44//49 42//45
f 47//51 42//45 43//48
f 46//27 98//52 45//50
f 46//27 45//50 44//49
f 48//53 46//27 44//49
f 48//53 44//49 47//51
f 49//54 47//51 43//48
f 49//54 43//48 51//55
f 52//20 48//53 47//51
f 52//20 47//51 49//54
f 50//56 49//54 51//55
f 50//56 51//55 91//57
f 53//18 52//20 49//54
f 53//18 49//54 50//56
f 57//18 54//20 52//20
f 57//18 52//20 53//18
f 54//20 56//58 48//53
f 54//20 48//53 52//20
f 55//59 198//60 56//58
f 55//59 56//58 54//20
f 58//61 55//59 54//20
f 58//61 54//20 57//18
f 61//62 58//61 57//18
f 61//62 57//18 59//63
f 59//63 57//18 53//18
f 59//63 53//18 62//63
f 60//64 59//63 62//63
f 60//64 62//63 64//64
f 118//65 61//62 59//63
f 118//65 59//63 60//64
f 62//63 53//18 50//56
f 62//63 50//56 63//66
f 64//64 62//63 63//66
f 64//64 63//66 65//67
f 68//68 60//64 64//64
f 68//68 64//64 66//69
f 66//69 64//64 65//67
f 66//69 65//67 69//70
f 116//71 68//68 66//69
f 116//71 66//69 67//71
f 67//71 66//69 69//70
f 67//71 69//70 70//72
f 70//72 69//70 71//73
f 70//72 71//73 74//74
f 69//70 65//67 73//75
f 69//70 73//75 71//73
f 71//73 73//75 81//76
f 71//73 81//76 72//77
f 74//74 71//73 72//77
f 74//74 72//77 76//78
f 70//72 74//74 75//43
f 70//72 75//43 93//10
f 74//74 76//78 37//40
f 74//74 37//40 75//43
f 76//78 72//77 78//77
f 76//78 78//77 77//71
f 76//78 77//71 34//38
f 76//78 34//38 37//40
f 77//71 3//3 32//10
f 77//71 32//10 34//38
f 77//71 78//77 79//4
f 77//71 79//4 3//3
f 72//77 81//76 80//14
f 72//77 80//14 78//77
f 78//77 80//14 83//79
f 78//77 83//79 79//4
f 81//76 90//80 82//81
f 81//76 82//81 80//14
f 80//14 82//81 84//82
f 80//14 84//82 83//79
f 83//79 84//82 11//15
f 83//79 11//15 9//13
f 79//4 83//79 9//13
f 79//4 9//13 2//5
f 82//81 86//83 85//23
f 82//81 85//23 84//82
f 84//82 85//23 13//17
f 84//82 13//17 11//15
f 86//83 88//29 17//24
f 86//83 17//24 85//23
f 90//80 87//84 86//83
f 90//80 86//83 82//81
f 87//84 89//85 88//29
f 87//84 88//29 86//83
f 89//85 41//47 21//28
f 89//85 21//28 88//29
f 51//55 43//48 41//47
f 51//55 41//47 89//85
f 91//57 51//55 89//85
f 91//57 89//85 87//84
f 92//86 91//57 87//84
f 92//86 87//84 90//80
f 63//66 50//56 91//57
f 63//66 91//57 92//86
f 65//67 63//66 92//86
f 65//67 92//86 73//75
f 73//75 92//86 90//80
f 73//75 90//80 81//76
f 36//42 95//87 93//10
f 36//42 93//10 75//43
f 67//71 70//72 93//10
f 67//71 93//10 94//1
f 95//87 96//88 94//1
f 95//87 94//1 93//10
f 45//50 95//87 36//42
f 45//50 36//42 39//44
f 98//52 96//88 95//87
f 98//52 95//87 45//50
f 96//88 97//89 113//38
f 96//88 113//38 94//1
f 99//90 97//89 96//88
f 99//90 96//88 98//52
f 100//27 99//90 98//52
f 100//27 98//52 46//27
f 103//91 101//92 99//90
f 103//91 99//90 100//27
f 101//92 102//93 97//89
f 101//92 97//89 99//90
f 104//92 107//42 102//93
f 104//92 102//93 101//92
f 106//94 104//92 101//92
f 106//94 101//92 103//91
f 136//27 105//52 104//92
f 136//27 104//92 106//94
f 105//52 108//89 107//42
f 105//52 107//42 104//92
f 102//93 107//42 109//95
f 102//93 109//95 112//96
f 107//42 108//89 110//38
f 107//42 110//38 109//95
f 197//71 111//97 109//95
f 197//71 109//95 110//38
f 111//97 114//98 112//96
f 111//97 112//96 109//95
f 97//89 102//93 112//96
f 97//89 112//96 113//38
f 114//98 116//71 113//38
f 114//98 113//38 112//96
f 111//97 117//99 115//100
f 111//97 115//100 114//98
f 114//98 115//100 68//68
f 114//98 68//68 116//71
f 116//71 67//71 94//1
f 116//71 94//1 113//38
f 115//100 118//65 60//64
f 115//100 60//64 68//68
f 117//99 119//101 118//65
f 117//99 118//65 115//100
f 119//101 121//81 61//62
f 119//101 61//62 118//65
f 194//7 120//14 119//101
f 194//7 119//101 117//99
f 120//14 122//63 121//81
f 120//14 121//81 119//101
f 122//63 124//18 123//56
f 122//63 123//56 121//81
f 121//81 123//56 58//61
f 121//81 58//61 61//62
f 124//18 127//20 125//102
f 124//18 125//102 123//56
f 123//56 125//102 55//59
f 123//56 55//59 58//61
f 127//20 128//58 126//103
f 127//20 126//103 125//102
f 125//102 126//103 198//60
f 125//102 198//60 55//59
f 129//20 132//58 128//58
f 129//20 128//58 127//20
f 130//18 129//20 127//20
f 130//18 127//20 124//18
f 185//104 131//102 129//20
f 185//104 129//20 130//18
f 131//102 133//105 132//58
f 131//102 132//58 129//20
f 132//58 134//27 136//27
f 132//58 136//27 128//58
f 133//105 135//94 134//27
f 133//105 134//27 132//58
f 135//94 138//106 137//107
f 135//94 137//107 134//27
f 134//27 137//107 105//52
f 134//27 105//52 136//27
f 137//107 139//33 108//89
f 137//107 108//89 105//52
f 138//106 140//42 139//33
f 138//106 139//33 137//107
f 139//33 140//42 143//108
f 139//33 143//108 141//109
f 108//89 139//33 141//109
f 108//89 141//109 110//38
f 142//8 197//71 110//38
f 142//8 110//38 141//109
f 144//110 142//8 141//109
f 144//110 141//109 143//108
f 146//111 144//110 143//108
f 146//111 143//108 145//112
f 140//42 147//42 145//112
f 140//42 145//112 143//108
f 150//113 146//111 145//112
f 150//113 145//112 148//1
f 147//42 149//114 148//1
f 147//42 148//1 145//112
f 149//114 152//115 151//116
f 149//114 151//116 148//1
f 150//113 148//1 151//116
f 150//113 151//116 154//117
f 175//118 153//119 151//120
f 175//118 151//120 152//121
f 154//122 151//120 153//119
f 154//122 153//119 156//123
f 191//124 150//113 154//117
f 191//124 154//117 155//125
f 156//123 157//126 155//127
f 156//123 155//127 154//122
f 153//2 175//2 173//2
f 153//2 173//2 171//2
f 153//2 171//2 169//2
f 153//2 169//2 168//2
f 153//2 168//2 167//2
f 153//2 167//2 159//2
f 153//2 159//2 158//2
f 153//2 158//2 157//2
f 153//2 157//2 156//2
f 157//126 158//128 160//129
f 157//126 160//129 155//127
f 158//128 159//130 162//131
f 158//128 162//131 160//129
f 163//63 161//64 160//132
f 163//63 160//132 162//133
f 161//64 191//124 155//125
f 161//64 155//125 160//132
f 165//18 163//63 162//133
f 165//18 162//133 164//18
f 159//130 167//134 164//135
f 159//130 164//135 162//131
f 184//20 165//18 164//18
f 184//20 164//18 166//136
f 167//134 168//137 166//138
f 167//134 166//138 164//135
f 168//137 169//139 170//140
f 168//137 170//140 166//138
f 169//139 171//141 172//142
f 169//139 172//142 170//140
f 171//141 173//143 174//144
f 171//141 174//144 172//142
f 173//143 175//118 152//121
f 173//143 152//121 174//144
f 149//114 176//107 174//107
f 149//114 174//107 152//115
f 176//107 178//27 172//145
f 176//107 172//145 174//107
f 178//27 176//107 177//106
f 178//27 177//106 180//94
f 176//107 149//114 147//42
f 176//107 147//42 177//106
f 178//27 179//58 170//22
f 178//27 170//22 172//145
f 179//58 178//27 180//94
f 179//58 180//94 181//146
f 181//146 180//94 135//94
f 181//146 135//94 133//105
f 180//94 177//106 138//106
f 180//94 138//106 135//94
f 182//59 181//146 133//105
f 182//59 133//105 131//102
f 184//20 179//58 181//146
f 184//20 181//146 182//59
f 183//104 182//59 131//102
f 183//104 131//102 185//104
f 165//18 184//20 182//59
f 165//18 182//59 183//104
f 179//58 184//20 166//136
f 179//58 166//136 170//22
f 186//147 183//104 185//104
f 186//147 185//104 187//62
f 163//63 165//18 183//104
f 163//63 183//104 186//147
f 188//148 186//147 187//62
f 188//148 187//62 189//149
f 161//64 163//63 186//147
f 161//64 186//147 188//148
f 190//150 188//148 189//149
f 190//150 189//149 192//151
f 191//124 161//64 188//148
f 191//124 188//148 190//150
f 150//113 191//124 190//150
f 150//113 190//150 146//111
f 146//111 190//150 192//151
f 146//111 192//151 144//110
f 144//110 192//151 193//77
f 144//110 193//77 142//8
f 192//151 189//149 195//14
f 192//151 195//14 193//77
f 142//8 193//77 194//7
f 142//8 194//7 197//71
f 193//77 195//14 120//14
f 193//77 120//14 194//7
f 189//149 187//62 196//63
f 189//149 196//63 195//14
f 195//14 196//63 122//63
f 195//14 122//63 120//14
f 187//62 185//104 130//18
f 187//62 130//18 196//63
f 196//63 130//18 124//18
f 196//63 124//18 122//63
f 197//71 194//7 117//99
f 197//71 117//99 111//97
f 177//106 147//42 140//42
f 177//106 140//42 138//106
f 128//58 136//27 106//94
f 128//58 106//94 126//103
f 126//103 106//94 103//91
f 126//103 103//91 198//60
f 198//60 103//91 100//27
f 198//60 100//27 56//58
f 56//58 100//27 46//27
f 56//58 46//27 48//53
f 199//152 200//153 217//154
f 199//152 217//154 201//155
f 203//156 205//157 200//153
f 203//156 200//153 199//152
f 379//158 202//159 199//152
f 379//158 199//152 201//155
f 202//159 204//160 203//156
f 202//159 203//156 199//152
f 204//161 390//161 388//161
f 204//161 388//161 389//161
f 204//161 389//161 391//161
f 204//161 391//161 393//161
f 204//161 393//161 209//161
f 204//161 209//161 208//161
f 204//161 208//161 206//161
f 204//161 206//161 205//161
f 204//161 205//161 203//161
f 205//157 206//162 207//163
f 205//157 207//163 200//153
f 206//162 208//164 210//165
f 206//162 210//165 207//163
f 208//164 209//166 211//167
f 208//164 211//167 210//165
f 207//163 210//165 212//168
f 207//163 212//168 215//169
f 210//165 211//167 214//170
f 210//165 214//170 212//168
f 215//169 212//168 213//171
f 215//169 213//171 216//172
f 212//168 214//170 229//173
f 212//168 229//173 213//171
f 217//154 215//169 216//172
f 217//154 216//172 218//174
f 200//153 207//163 215//169
f 200//153 215//169 217//154
f 201//155 217//154 218//174
f 201//155 218//174 219//175
f 219//175 218//174 220//176
f 219//175 220//176 221//177
f 218//174 216//172 223//178
f 218//174 223//178 220//176
f 221//177 220//176 222//179
f 221//177 222//179 249//180
f 220//176 223//178 224//181
f 220//176 224//181 222//179
f 216//172 213//171 225//182
f 216//172 225//182 223//178
f 223//178 225//182 226//183
f 223//178 226//183 224//181
f 225//182 227//184 228//185
f 225//182 228//185 226//183
f 213//171 229//173 227//184
f 213//171 227//184 225//182
f 227//184 230//186 231//187
f 227//184 231//187 228//185
f 229//173 232//188 230//186
f 229//173 230//186 227//184
f 230//186 233//189 235//190
f 230//186 235//190 231//187
f 232//188 234//191 233//189
f 232//188 233//189 230//186
f 234//191 237//192 236//193
f 234//191 236//193 233//189
f 233//189 236//193 239//194
f 233//189 239//194 235//190
f 237//192 382//195 238//196
f 237//192 238//196 236//193
f 236//193 238//196 241//197
f 236//193 241//197 239//194
f 235//190 239//194 240//198
f 235//190 240//198 373//199
f 239//194 241//197 242//200
f 239//194 242//200 240//198
f 238//196 244//201 243//202
f 238//196 243//202 241//197
f 241//197 243//202 245//203
f 241//197 245//203 242//200
f 248//204 246//205 243//202
f 248//204 243//202 244//201
f 246//205 247//206 245//203
f 246//205 245//203 243//202
f 247//206 246//205 249//180
f 247//206 249//180 250//207
f 246//205 248//204 221//177
f 246//205 221//177 249//180
f 249//180 222//179 251//154
f 249//180 251//154 250//207
f 250//207 251//154 255//174
f 250//207 255//174 252//175
f 254//208 247//206 250//207
f 254//208 250//207 252//175
f 252//175 255//174 257//209
f 252//175 257//209 253//210
f 282//160 254//208 252//175
f 282//160 252//175 253//210
f 255//174 256//211 259//172
f 255//174 259//172 257//209
f 251//154 377//212 256//211
f 251//154 256//211 255//174
f 253//210 257//209 258//213
f 253//210 258//213 285//214
f 257//209 259//172 260//215
f 257//209 260//215 258//213
f 259//172 261//216 262//217
f 259//172 262//217 260//215
f 256//211 263//216 261//216
f 256//211 261//216 259//172
f 261//216 264//173 265//218
f 261//216 265//218 262//217
f 263//216 266//219 264//173
f 263//216 264//173 261//216
f 264//173 267//186 268//220
f 264//173 268//220 265//218
f 266//219 269//186 267//186
f 266//219 267//186 264//173
f 267//186 270//221 271//222
f 267//186 271//222 268//220
f 269//186 272//223 270//221
f 269//186 270//221 267//186
f 270//221 273//224 274//225
f 270//221 274//225 271//222
f 272//223 275//224 273//224
f 272//223 273//224 270//221
f 273//224 276//195 277//226
f 273//224 277//226 274//225
f 275//224 278//227 276//195
f 275//224 276//195 273//224
f 276//195 279//228 280//229
f 276//195 280//229 277//226
f 278//227 281//228 279//228
f 278//227 279//228 276//195
f 282//160 283//159 280//229
f 282//160 280//229 279//228
f 254//208 282//160 279//228
f 254//208 279//228 281//228
f 283//159 282//160 253//210
f 283//159 253//210 285//214
f 283//159 284//159 368//229
f 283//159 368//229 280//229
f 284//159 283//159 285//214
f 284//159 285//214 286//230
f 285//214 258//213 287//231
f 285//214 287//231 286//230
f 289//232 284//159 286//230
f 289//232 286//230 288//233
f 286//230 287//231 290//174
f 286//230 290//174 288//233
f 292//232 289//232 288//233
f 292//232 288//233 291//234
f 288//233 290//174 294//209
f 288//233 294//209 291//234
f 360//235 292//232 291//234
f 360//235 291//234 293//236
f 291//234 294//209 295//213
f 291//234 295//213 293//236
f 294//209 296//211 297//237
f 294//209 297//237 295//213
f 290//174 298//211 296//211
f 290//174 296//211 294//209
f 296//211 299//216 300//238
f 296//211 300//238 297//237
f 298//211 301//239 299//216
f 298//211 299//216 296//211
f 299//216 302//173 304//218
f 299//216 304//218 300//238
f 301//239 303//240 302//173
f 301//239 302//173 299//216
f 303//240 308//186 305//186
f 303//240 305//186 302//173
f 302//173 305//186 306//220
f 302//173 306//220 304//218
f 305//186 307//223 366//241
f 305//186 366//241 306//220
f 308//186 310//221 307//223
f 308//186 307//223 305//186
f 309//220 311//242 310//221
f 309//220 310//221 308//186
f 370//243 309//220 308//186
f 370//243 308//186 303//240
f 310//221 312//224 315//244
f 310//221 315//244 307//223
f 311//242 313//245 312//224
f 311//242 312//224 310//221
f 313//245 369//200 314//246
f 313//245 314//246 312//224
f 312//224 314//246 317//247
f 312//224 317//247 315//244
f 307//223 315//244 316//248
f 307//223 316//248 366//241
f 315//244 317//247 319//249
f 315//244 319//249 316//248
f 317//247 318//250 320//251
f 317//247 320//251 319//249
f 314//246 367//250 318//250
f 314//246 318//250 317//247
f 316//248 319//249 321//226
f 316//248 321//226 324//252
f 319//249 320//251 322//229
f 319//249 322//229 321//226
f 321//226 322//229 358//253
f 321//226 358//253 323//254
f 324//252 321//226 323//254
f 324//252 323//254 326//244
f 325//241 324//252 326//244
f 325//241 326//244 327//255
f 366//241 316//248 324//252
f 366//241 324//252 325//241
f 328//256 331//257 327//255
f 328//256 327//255 326//244
f 329//258 328//256 326//244
f 329//258 326//244 323//254
f 328//259 329//260 357//261
f 328//259 357//261 330//262
f 331//263 328//259 330//262
f 331//263 330//262 333//264
f 331//257 332//265 363//266
f 331//257 363//266 327//255
f 332//267 331//263 333//264
f 332//267 333//264 334//268
f 354//269 353//269 340//269
f 354//269 340//269 339//269
f 354//269 339//269 337//269
f 354//269 337//269 335//269
f 354//269 335//269 334//269
f 354//269 334//269 333//269
f 354//269 333//269 330//269
f 354//269 330//269 357//269
f 354//269 357//269 355//269
f 336//270 332//267 334//268
f 336//270 334//268 335//271
f 338//272 336//270 335//271
f 338//272 335//271 337//273
f 341//274 338//272 337//273
f 341//274 337//273 339//275
f 342//276 341//274 339//275
f 342//276 339//275 340//277
f 341//278 342//279 346//280
f 341//278 346//280 343//211
f 338//281 341//278 343//211
f 338//281 343//211 345//216
f 344//282 361//283 345//216
f 344//282 345//216 343//211
f 347//231 344//282 343//211
f 347//231 343//211 346//280
f 342//279 351//233 348//284
f 342//279 348//284 346//280
f 349//285 347//231 346//280
f 349//285 346//280 348//284
f 350//232 359//286 349//285
f 350//232 349//285 348//284
f 351//233 352//160 350//232
f 351//233 350//232 348//284
f 353//287 354//288 352//289
f 353//287 352//289 351//290
f 351//290 342//276 340//277
f 351//290 340//277 353//287
f 356//291 352//289 354//288
f 356//291 354//288 355//292
f 329//260 356//291 355//292
f 329//260 355//292 357//261
f 356//229 329//258 323//254
f 356//229 323//254 358//253
f 350//232 352//160 356//229
f 350//232 356//229 358//253
f 359//286 350//232 358//253
f 359//286 358//253 322//229
f 360//235 359//286 322//229
f 360//235 322//229 320//251
f 359//286 360//235 293//236
f 359//286 293//236 349//285
f 292//232 360//235 320//251
f 292//232 320//251 318//250
f 293//236 295//213 347//231
f 293//236 347//231 349//285
f 295//213 297//237 344//282
f 295//213 344//282 347//231
f 336//173 338//281 345//216
f 336//173 345//216 362//219
f 361//283 364//293 362//219
f 361//283 362//219 345//216
f 364//293 365//294 363//266
f 364//293 363//266 362//219
f 332//265 336//173 362//219
f 332//265 362//219 363//266
f 304//218 306//220 365//294
f 304//218 365//294 364//293
f 300//238 304//218 364//293
f 300//238 364//293 361//283
f 365//294 325//241 327//255
f 365//294 327//255 363//266
f 306//220 366//241 325//241
f 306//220 325//241 365//294
f 297//237 300//238 361//283
f 297//237 361//283 344//282
f 289//232 292//232 318//250
f 289//232 318//250 367//250
f 369//200 368//229 367//250
f 369//200 367//250 314//246
f 284//159 289//232 367//250
f 284//159 367//250 368//229
f 277//226 280//229 368//229
f 277//226 368//229 369//200
f 274//225 277//226 369//200
f 274//225 369//200 313//245
f 271//222 274//225 313//245
f 271//222 313//245 311//242
f 268//220 271//222 311//242
f 268//220 311//242 309//220
f 265//218 268//220 309//220
f 265//218 309//220 370//243
f 262//217 265//218 370//243
f 262//217 370//243 371//295
f 371//295 370//243 303//240
f 371//295 303//240 301//239
f 260//215 262//217 371//295
f 260//215 371//295 372//296
f 372//296 371//295 301//239
f 372//296 301//239 298//211
f 287//231 372//296 298//211
f 287//231 298//211 290//174
f 258//213 260//215 372//296
f 258//213 372//296 287//231
f 242//200 245//203 281//228
f 242//200 281//228 278//227
f 247//206 254//208 281//228
f 247//206 281//228 245//203
f 240//198 242//200 278//227
f 240//198 278//227 275//224
f 373//199 240//198 275//224
f 373//199 275//224 272//223
f 374//297 373//199 272//223
f 374//297 272//223 269//186
f 231//187 235//190 373//199
f 231//187 373//199 374//297
f 375//298 374//297 269//186
f 375//298 269//186 266//219
f 228//185 231//187 374//297
f 228//185 374//297 375//298
f 376//182 375//298 266//219
f 376//182 266//219 263//216
f 226//183 228//185 375//298
f 226//183 375//298 376//182
f 224//181 226//183 376//182
f 224//181 376//182 377//212
f 377//212 376//182 263//216
f 377//212 263//216 256//211
f 222//179 224//181 377//212
f 222//179 377//212 251//154
f 378//299 248//204 244//201
f 378//299 244//201 380//250
f 248//204 378//299 219//175
f 248//204 219//175 221//177
f 378//299 379//158 201//155
f 378//299 201//155 219//175
f 379//158 378//299 380//250
f 379//158 380//250 381//203
f 383//300 381//203 380//250
f 383//300 380//250 382//195
f 382//195 380//250 244//201
f 382//195 244//201 238//196
f 384//301 383//300 382//195
f 384//301 382//195 237//192
f 385//302 387//303 381//203
f 385//302 381//203 383//300
f 386//304 385//302 383//300
f 386//304 383//300 384//301
f 389//305 388//306 385//302
f 389//305 385//302 386//304
f 388//306 390//307 387//303
f 388//306 387//303 385//302
f 390//307 204//160 202//159
f 390//307 202//159 387//303
f 391//308 389//305 386//304
f 391//308 386//304 392//309
f 393//310 391//308 392//309
f 393//310 392//309 394//17
f 209//166 393//310 394//17
f 209//166 394//17 211//167
f 211//167 394//17 395//297
f 211//167 395//297 214//170
f 394//17 392//309 396//311
f 394//17 396//311 395//297
f 395//297 396//311 234//191
f 395//297 234//191 232//188
f 214//170 395//297 232//188
f 214//170 232//188 229//173
f 392//309 386//304 384//301
f 392//309 384//301 396//311
f 396//311 384//301 237//192
f 396//311 237//192 234//191
f 202//159 379//158 381//203
f 202//159 381//203 387//303
f 397//312 401//313 402//314
f 397//312 402//314 398//315
f 400//316 397//312 398//315
f 400//316 398//315 421//1
f 400//316 590//317 399//318
f 400//316 399//318 397//312
f 397//312 399//318 403//319
f 397//312 403//319 401//313
f 402//320 401//320 403//320
f 402//320 403//320 404//320
f 402//320 404//320 406//320
f 402//320 406//320 408//320
f 402//320 408//320 410//320
f 402//320 410//320 412//320
f 402//320 412//320 414//320
f 402//320 414//320 416//320
f 402//320 416//320 418//320
f 399//318 405//321 404//322
f 399//318 404//322 403//319
f 405//321 407//323 406//324
f 405//321 406//324 404//322
f 407//323 409//23 408//18
f 407//323 408//18 406//324
f 409//23 411//325 410//326
f 409//23 410//326 408//18
f 411//325 413//327 412//146
f 411//325 412//146 410//326
f 413//327 415//45 414//328
f 413//327 414//328 412//146
f 415//45 417//329 416//330
f 415//45 416//330 414//328
f 417//329 419//331 418//332
f 417//329 418//332 416//330
f 419//331 398//315 402//314
f 419//331 402//314 418//332
f 423//333 420//334 419//331
f 423//333 419//331 417//329
f 419//331 420//334 421//1
f 419//331 421//1 398//315
f 420//334 422//335 587//38
f 420//334 587//38 421//1
f 424//336 422//335 420//334
f 424//336 420//334 423//333
f 426//337 424//336 423//333
f 426//337 423//333 425//338
f 425//338 423//333 417//329
f 425//338 417//329 415//45
f 429//339 426//337 425//338
f 429//339 425//338 427//340
f 427//340 425//338 415//45
f 427//340 415//45 413//327
f 428//341 427//340 413//327
f 428//341 413//327 411//325
f 431//342 429//339 427//340
f 431//342 427//340 428//341
f 432//343 430//344 429//339
f 432//343 429//339 431//342
f 430//344 462//345 426//337
f 430//344 426//337 429//339
f 436//346 432//343 431//342
f 436//346 431//342 433//188
f 433//188 431//342 428//341
f 433//188 428//341 434//347
f 435//348 433//188 434//347
f 435//348 434//347 594//349
f 437//350 436//346 433//188
f 437//350 433//188 435//348
f 441//351 438//187 436//346
f 441//351 436//346 437//350
f 438//187 440//352 432//343
f 438//187 432//343 436//346
f 439//297 467//341 440//352
f 439//297 440//352 438//187
f 442//353 439//297 438//187
f 442//353 438//187 441//351
f 446//354 442//353 441//351
f 446//354 441//351 443//321
f 443//321 441//351 437//350
f 443//321 437//350 445//355
f 444//356 443//321 445//355
f 444//356 445//355 592//357
f 448//317 446//354 443//321
f 448//317 443//321 444//356
f 449//358 447//359 446//354
f 449//358 446//354 448//317
f 447//359 474//360 442//353
f 447//359 442//353 446//354
f 450//361 448//317 444//356
f 450//361 444//356 451//362
f 452//363 449//358 448//317
f 452//363 448//317 450//361
f 450//361 451//362 456//364
f 450//361 456//364 453//1
f 452//363 450//361 453//1
f 452//363 453//1 454//1
f 455//365 577//366 454//1
f 455//365 454//1 453//1
f 458//367 455//365 453//1
f 458//367 453//1 456//364
f 451//362 586//368 457//369
f 451//362 457//369 456//364
f 460//370 458//367 456//364
f 460//370 456//364 457//369
f 578//333 455//365 458//367
f 578//333 458//367 459//371
f 459//371 458//367 460//370
f 459//371 460//370 461//372
f 422//335 460//370 457//369
f 422//335 457//369 587//38
f 461//372 460//370 422//335
f 461//372 422//335 424//336
f 462//345 461//372 424//336
f 462//345 424//336 426//337
f 463//373 459//371 461//372
f 463//373 461//372 462//345
f 465//374 463//373 462//345
f 465//374 462//345 430//344
f 464//375 578//333 459//371
f 464//375 459//371 463//373
f 466//376 464//375 463//373
f 466//376 463//373 465//374
f 467//341 466//376 465//374
f 467//341 465//374 440//352
f 440//352 465//374 430//344
f 440//352 430//344 432//343
f 468//377 469//378 464//375
f 468//377 464//375 466//376
f 471//343 468//377 466//376
f 471//343 466//376 467//341
f 470//377 574//378 469//378
f 470//377 469//378 468//377
f 472//343 470//377 468//377
f 472//343 468//377 471//343
f 475//379 472//343 471//343
f 475//379 471//343 473//379
f 473//379 471//343 467//341
f 473//379 467//341 439//297
f 474//360 473//379 439//297
f 474//360 439//297 442//353
f 477//380 475//379 473//379
f 477//380 473//379 474//360
f 476//220 575//381 472//343
f 476//220 472//343 475//379
f 479//382 476//220 475//379
f 479//382 475//379 477//380
f 478//383 477//380 474//360
f 478//383 474//360 447//359
f 480//384 479//382 477//380
f 480//384 477//380 478//383
f 482//385 481//386 479//382
f 482//385 479//382 480//384
f 481//386 484//220 476//220
f 481//386 476//220 479//382
f 549//383 483//387 481//386
f 549//383 481//386 482//385
f 483//387 486//379 484//220
f 483//387 484//220 481//386
f 484//220 485//381 575//381
f 484//220 575//381 476//220
f 486//379 488//343 485//381
f 486//379 485//381 484//220
f 487//379 489//343 488//343
f 487//379 488//343 486//379
f 548//387 487//379 486//379
f 548//387 486//379 483//387
f 489//343 491//377 490//377
f 489//343 490//377 488//343
f 488//343 490//377 492//388
f 488//343 492//388 485//381
f 491//377 496//378 493//145
f 491//377 493//145 490//377
f 490//377 493//145 494//389
f 490//377 494//389 492//388
f 493//145 495//390 566//391
f 493//145 566//391 494//389
f 496//378 498//336 495//390
f 496//378 495//390 493//145
f 497//392 500//393 498//336
f 497//392 498//336 496//378
f 583//394 497//392 496//378
f 583//394 496//378 491//377
f 498//336 499//395 565//396
f 498//336 565//396 495//390
f 500//393 502//397 499//395
f 500//393 499//395 498//336
f 585//398 501//393 500//393
f 585//398 500//393 497//392
f 501//393 504//397 502//397
f 501//393 502//397 500//393
f 499//395 502//397 503//1
f 499//395 503//1 568//399
f 502//397 504//397 505//1
f 502//397 505//1 503//1
f 507//336 506//395 504//397
f 507//336 504//397 501//393
f 504//397 506//395 508//399
f 504//397 508//399 505//1
f 506//395 507//336 512//336
f 506//395 512//336 509//395
f 506//395 509//395 511//400
f 506//395 511//400 508//399
f 510//401 534//402 511//403
f 510//401 511//403 509//404
f 513//405 510//401 509//404
f 513//405 509//404 512//406
f 507//336 516//145 514//145
f 507//336 514//145 512//336
f 515//407 513//405 512//406
f 515//407 512//406 514//408
f 519//409 515//407 514//408
f 519//409 514//408 517//410
f 516//145 518//411 517//412
f 516//145 517//412 514//145
f 518//411 522//413 520//414
f 518//411 520//414 517//412
f 521//415 519//409 517//410
f 521//415 517//410 520//416
f 524//417 521//415 520//416
f 524//417 520//416 523//418
f 522//413 525//379 523//265
f 522//413 523//265 520//414
f 529//419 524//417 523//418
f 529//419 523//418 526//420
f 525//379 527//387 526//380
f 525//379 526//380 523//265
f 527//387 539//383 528//359
f 527//387 528//359 526//380
f 530//421 529//419 526//420
f 530//421 526//420 528//422
f 534//423 510//423 513//423
f 534//423 513//423 515//423
f 534//423 515//423 519//423
f 534//423 519//423 521//423
f 534//423 521//423 524//423
f 534//423 524//423 529//423
f 534//423 529//423 530//423
f 534//423 530//423 531//423
f 534//423 531//423 533//423
f 531//424 530//421 528//422
f 531//424 528//422 532//425
f 533//426 531//424 532//425
f 533//426 532//425 535//427
f 535//427 511//403 534//402
f 535//427 534//402 533//426
f 536//428 508//399 511//400
f 536//428 511//400 535//429
f 538//430 536//428 535//429
f 538//430 535//429 532//430
f 536//428 537//431 505//1
f 536//428 505//1 508//399
f 536//428 538//430 540//317
f 536//428 540//317 537//431
f 539//383 538//430 532//430
f 539//383 532//430 528//359
f 538//430 539//383 542//384
f 538//430 542//384 540//317
f 537//431 540//317 541//432
f 537//431 541//432 570//433
f 540//317 542//384 544//385
f 540//317 544//385 541//432
f 539//383 527//387 543//382
f 539//383 543//382 542//384
f 542//384 543//382 545//386
f 542//384 545//386 544//385
f 544//385 545//386 548//387
f 544//385 548//387 546//383
f 541//432 544//385 546//383
f 541//432 546//383 547//434
f 547//434 546//383 549//383
f 547//434 549//383 550//358
f 546//383 548//387 483//387
f 546//383 483//387 549//383
f 550//358 549//383 482//385
f 550//358 482//385 552//435
f 569//436 547//434 550//358
f 569//436 550//358 551//437
f 551//437 550//358 552//435
f 551//437 552//435 553//431
f 553//431 552//435 554//432
f 553//431 554//432 555//433
f 552//435 482//385 480//384
f 552//435 480//384 554//432
f 554//432 480//384 478//383
f 554//432 478//383 556//434
f 555//433 554//432 556//434
f 555//433 556//434 557//438
f 557//438 556//434 449//358
f 557//438 449//358 452//363
f 556//434 478//383 447//359
f 556//434 447//359 449//358
f 555//433 557//438 558//439
f 555//433 558//439 560//1
f 557//438 452//363 454//1
f 557//438 454//1 558//439
f 577//366 559//440 558//439
f 577//366 558//439 454//1
f 559//440 562//441 560//1
f 559//440 560//1 558//439
f 553//431 555//433 560//1
f 553//431 560//1 561//1
f 562//441 564//441 561//1
f 562//441 561//1 560//1
f 566//391 564//441 562//441
f 566//391 562//441 563//391
f 563//391 562//441 559//440
f 563//391 559//440 571//390
f 564//441 565//396 567//399
f 564//441 567//399 561//1
f 495//390 565//396 564//441
f 495//390 564//441 566//391
f 494//389 566//391 563//391
f 494//389 563//391 572//442
f 565//396 499//395 568//399
f 565//396 568//399 567//399
f 551//437 553//431 561//1
f 551//437 561//1 567//399
f 569//436 551//437 567//399
f 569//436 567//399 568//399
f 570//433 569//436 568//399
f 570//433 568//399 503//1
f 570//433 541//432 547//434
f 570//433 547//434 569//436
f 537//431 570//433 503//1
f 537//431 503//1 505//1
f 572//442 563//391 571//390
f 572//442 571//390 574//378
f 492//388 494//389 572//442
f 492//388 572//442 573//443
f 573//443 572//442 574//378
f 573//443 574//378 470//377
f 574//378 571//390 576//390
f 574//378 576//390 469//378
f 485//381 492//388 573//443
f 485//381 573//443 575//381
f 575//381 573//443 470//377
f 575//381 470//377 472//343
f 571//390 559//440 577//366
f 571//390 577//366 576//390
f 576//390 577//366 455//365
f 576//390 455//365 578//333
f 469//378 576//390 578//333
f 469//378 578//333 464//375
f 545//386 579//294 487//379
f 545//386 487//379 548//387
f 543//382 580//220 579//294
f 543//382 579//294 545//386
f 579//294 581//381 489//343
f 579//294 489//343 487//379
f 580//220 582//381 581//381
f 580//220 581//381 579//294
f 582//381 584//394 583//394
f 582//381 583//394 581//381
f 581//381 583//394 491//377
f 581//381 491//377 489//343
f 584//394 585//398 497//392
f 584//394 497//392 583//394
f 522//413 518//411 584//394
f 522//413 584//394 582//381
f 518//411 516//145 585//398
f 518//411 585//398 584//394
f 516//145 507//336 501//393
f 516//145 501//393 585//398
f 525//379 522//413 582//381
f 525//379 582//381 580//220
f 527//387 525//379 580//220
f 527//387 580//220 543//382
f 586//368 588//444 587//38
f 586//368 587//38 457//369
f 588//444 400//316 421//1
f 588//444 421//1 587//38
f 586//368 592//357 589//358
f 586//368 589//358 588//444
f 588//444 589//358 590//317
f 588//444 590//317 400//316
f 589//358 591//445 593//446
f 589//358 593//446 590//317
f 592//357 445//355 591//445
f 592//357 591//445 589//358
f 451//362 444//356 592//357
f 451//362 592//357 586//368
f 591//445 435//348 594//349
f 591//445 594//349 593//446
f 445//355 437//350 435//348
f 445//355 435//348 591//445
f 590//317 593//446 405//321
f 590//317 405//321 399//318
f 593//446 594//349 407//323
f 593//446 407//323 405//321
f 594//349 434//347 409//23
f 594//349 409//23 407//323
f 434//347 428//341 411//325
f 434//347 411//325 409//23
f 595//447 596//448 661//449
f 595//447 661//449 597//450
f 599//39 600//451 596//448
f 599//39 596//448 595//447
f 792//452 598//453 595//447
f 792//452 595//447 597//450
f 598//453 601//314 599//39
f 598//453 599//39 595//447
f 601//454 602//454 604//454
f 601//454 604//454 606//454
f 601//454 606//454 607//454
f 601//454 607//454 667//454
f 601//454 667//454 665//454
f 601//454 665//454 664//454
f 601//454 664//454 663//454
f 601//454 663//454 600//454
f 601//454 600//454 599//454
f 602//71 601//314 598//453
f 602//71 598//453 603//455
f 604//456 602//71 603//455
f 604//456 603//455 605//457
f 606//383 604//456 605//457
f 606//383 605//457 608//458
f 607//459 606//383 608//458
f 607//459 608//458 610//460
f 608//458 605//457 620//461
f 608//458 620//461 609//458
f 610//460 608//458 609//458
f 610//460 609//458 612//462
f 611//463 610//460 612//462
f 611//463 612//462 613//464
f 667//465 607//459 610//460
f 667//465 610//460 611//463
f 613//464 612//462 614//466
f 613//464 614//466 616//83
f 612//462 609//458 617//383
f 612//462 617//383 614//466
f 614//466 617//383 618//467
f 614//466 618//467 615//468
f 616//83 614//466 615//468
f 616//83 615//468 653//469
f 609//458 620//461 619//470
f 609//458 619//470 617//383
f 617//383 619//470 621//471
f 617//383 621//471 618//467
f 620//461 623//472 622//113
f 620//461 622//113 619//470
f 619//470 622//113 625//8
f 619//470 625//8 621//471
f 792//452 624//1 622//113
f 792//452 622//113 623//472
f 624//1 626//473 625//8
f 624//1 625//8 622//113
f 621//471 625//8 627//72
f 621//471 627//72 628//474
f 626//473 630//475 627//72
f 626//473 627//72 625//8
f 628//474 627//72 629//476
f 628//474 629//476 674//474
f 630//475 631//452 629//476
f 630//475 629//476 627//72
f 630//475 626//473 633//477
f 630//475 633//477 632//478
f 631//452 630//475 632//478
f 631//452 632//478 634//42
f 633//477 636//479 635//480
f 633//477 635//480 632//478
f 632//478 635//480 637//481
f 632//478 637//481 634//42
f 636//479 640//482 638//483
f 636//479 638//483 635//480
f 635//480 638//483 641//484
f 635//480 641//484 637//481
f 638//483 639//485 643//486
f 638//483 643//486 641//484
f 640//482 651//487 639//485
f 640//482 639//485 638//483
f 637//481 641//484 642//488
f 637//481 642//488 682//489
f 641//484 643//486 644//490
f 641//484 644//490 642//488
f 639//485 648//491 645//59
f 639//485 645//59 643//486
f 643//486 645//59 646//136
f 643//486 646//136 644//490
f 645//59 647//492 698//465
f 645//59 698//465 646//136
f 648//491 649//493 647//492
f 648//491 647//492 645//59
f 651//487 650//494 648//491
f 651//487 648//491 639//485
f 650//494 653//469 649//493
f 650//494 649//493 648//491
f 655//495 652//29 650//494
f 655//495 650//494 651//487
f 652//29 616//83 653//469
f 652//29 653//469 650//494
f 653//469 615//468 669//496
f 653//469 669//496 649//493
f 654//24 613//464 616//83
f 654//24 616//83 652//29
f 656//497 654//24 652//29
f 656//497 652//29 655//495
f 659//498 656//497 655//495
f 659//498 655//495 657//499
f 657//499 655//495 651//487
f 657//499 651//487 640//482
f 658//451 657//499 640//482
f 658//451 640//482 636//479
f 661//449 659//498 657//499
f 661//449 657//499 658//451
f 660//498 662//500 656//497
f 660//498 656//497 659//498
f 596//448 660//498 659//498
f 596//448 659//498 661//449
f 597//450 661//449 658//451
f 597//450 658//451 668//37
f 600//451 663//501 660//498
f 600//451 660//498 596//448
f 663//501 664//502 662//500
f 663//501 662//500 660//498
f 664//502 665//136 666//325
f 664//502 666//325 662//500
f 665//136 667//465 611//463
f 665//136 611//463 666//325
f 662//500 666//325 654//24
f 662//500 654//24 656//497
f 666//325 611//463 613//464
f 666//325 613//464 654//24
f 668//37 658//451 636//479
f 668//37 636//479 633//477
f 624//1 792//452 597//450
f 624//1 597//450 668//37
f 626//473 624//1 668//37
f 626//473 668//37 633//477
f 649//493 669//496 670//503
f 649//493 670//503 647//492
f 669//496 671//504 672//505
f 669//496 672//505 670//503
f 615//468 618//467 671//504
f 615//468 671//504 669//496
f 671//504 628//474 674//474
f 671//504 674//474 672//505
f 618//467 621//471 628//474
f 618//467 628//474 671//504
f 670//503 672//505 673//506
f 670//503 673//506 702//507
f 672//505 674//474 675//508
f 672//505 675//508 673//506
f 674//474 629//476 677//509
f 674//474 677//509 675//508
f 675//508 677//509 678//510
f 675//508 678//510 676//508
f 673//506 675//508 676//508
f 673//506 676//508 700//506
f 631//452 679//1 677//509
f 631//452 677//509 629//476
f 679//1 680//1 678//510
f 679//1 678//510 677//509
f 680//1 679//1 681//37
f 680//1 681//37 683//511
f 679//1 631//452 634//42
f 679//1 634//42 681//37
f 681//37 682//489 685//489
f 681//37 685//489 683//511
f 634//42 637//481 682//489
f 634//42 682//489 681//37
f 709//512 680//1 683//511
f 709//512 683//511 684//513
f 683//511 685//489 686//514
f 683//511 686//514 684//513
f 685//489 687//488 689//515
f 685//489 689//515 686//514
f 682//489 642//488 687//488
f 682//489 687//488 685//489
f 642//488 644//490 688//490
f 642//488 688//490 687//488
f 687//488 688//490 691//516
f 687//488 691//516 689//515
f 689//515 691//516 692//517
f 689//515 692//517 690//518
f 686//514 689//515 690//518
f 686//514 690//518 721//519
f 691//516 693//520 694//59
f 691//516 694//59 692//517
f 688//490 696//136 693//520
f 688//490 693//520 691//516
f 693//520 695//56 786//104
f 693//520 786//104 694//59
f 696//136 697//465 695//56
f 696//136 695//56 693//520
f 644//490 646//136 696//136
f 644//490 696//136 688//490
f 646//136 698//465 697//465
f 646//136 697//465 696//136
f 697//465 699//507 701//521
f 697//465 701//521 695//56
f 698//465 702//507 699//507
f 698//465 699//507 697//465
f 699//507 700//506 704//522
f 699//507 704//522 701//521
f 702//507 673//506 700//506
f 702//507 700//506 699//507
f 647//492 670//503 702//507
f 647//492 702//507 698//465
f 701//521 704//522 705//523
f 701//521 705//523 703//524
f 695//56 701//521 703//524
f 695//56 703//524 786//104
f 700//506 676//508 706//525
f 700//506 706//525 704//522
f 704//522 706//525 707//526
f 704//522 707//526 705//523
f 676//508 678//510 708//527
f 676//508 708//527 706//525
f 706//525 708//527 710//72
f 706//525 710//72 707//526
f 680//1 709//512 708//527
f 680//1 708//527 678//510
f 709//512 712//528 710//72
f 709//512 710//72 708//527
f 707//526 710//72 711//510
f 707//526 711//510 760//508
f 712//528 714//1 711//510
f 712//528 711//510 710//72
f 714//1 712//528 713//529
f 714//1 713//529 716//511
f 712//528 709//512 684//513
f 712//528 684//513 713//529
f 714//1 715//399 759//113
f 714//1 759//113 711//510
f 715//399 714//1 716//511
f 715//399 716//511 717//39
f 716//511 718//451 720//479
f 716//511 720//479 717//39
f 713//529 721//519 718//451
f 713//529 718//451 716//511
f 718//451 719//501 722//501
f 718//451 722//501 720//479
f 721//519 690//518 719//501
f 721//519 719//501 718//451
f 684//513 686//514 721//519
f 684//513 721//519 713//529
f 720//479 722//501 726//530
f 720//479 726//530 723//531
f 717//39 720//479 723//531
f 717//39 723//531 725//532
f 725//532 723//531 724//533
f 725//532 724//533 765//529
f 723//531 726//530 728//534
f 723//531 728//534 724//533
f 722//501 790//490 727//485
f 722//501 727//485 726//530
f 726//530 727//485 730//535
f 726//530 730//535 728//534
f 724//533 728//534 729//488
f 724//533 729//488 782//536
f 728//534 730//535 732//490
f 728//534 732//490 729//488
f 727//485 791//102 731//102
f 727//485 731//102 730//535
f 730//535 731//102 733//136
f 730//535 733//136 732//490
f 734//537 735//538 729//488
f 734//537 729//488 732//490
f 736//136 734//537 732//490
f 736//136 732//490 733//136
f 735//539 734//540 737//541
f 735//539 737//541 738//542
f 734//540 736//543 739//544
f 734//540 739//544 737//541
f 777//545 778//545 779//545
f 777//545 779//545 738//545
f 777//545 738//545 737//545
f 777//545 737//545 739//545
f 777//545 739//545 740//545
f 777//545 740//545 741//545
f 777//545 741//545 775//545
f 777//545 775//545 773//545
f 777//545 773//545 776//545
f 736//543 742//546 740//547
f 736//543 740//547 739//544
f 742//546 743//548 741//549
f 742//546 741//549 740//547
f 743//459 742//18 744//550
f 743//459 744//550 745//507
f 742//18 736//136 733//136
f 742//18 733//136 744//550
f 746//56 748//551 745//507
f 746//56 745//507 744//550
f 731//102 746//56 744//550
f 731//102 744//550 733//136
f 747//104 749//524 748//551
f 747//104 748//551 746//56
f 791//102 747//104 746//56
f 791//102 746//56 731//102
f 749//524 753//523 750//523
f 749//524 750//523 748//551
f 748//551 750//523 751//383
f 748//551 751//383 745//507
f 750//523 752//525 771//470
f 750//523 771//470 751//383
f 753//523 754//525 752//525
f 753//523 752//525 750//523
f 755//383 758//552 754//525
f 755//383 754//525 753//523
f 757//507 755//383 753//523
f 757//507 753//523 749//524
f 784//553 756//383 755//383
f 784//553 755//383 757//507
f 756//383 760//508 758//552
f 756//383 758//552 755//383
f 758//552 759//113 761//72
f 758//552 761//72 754//525
f 760//508 711//510 759//113
f 760//508 759//113 758//552
f 705//523 707//526 760//508
f 705//523 760//508 756//383
f 715//399 763//554 761//72
f 715//399 761//72 759//113
f 754//525 761//72 762//72
f 754//525 762//72 752//525
f 763//554 764//528 762//72
f 763//554 762//72 761//72
f 763//554 715//399 717//39
f 763//554 717//39 725//532
f 764//528 763//554 725//532
f 764//528 725//532 765//529
f 766//38 764//528 765//529
f 766//38 765//529 767//114
f 764//528 766//38 769//113
f 764//528 769//113 762//72
f 780//555 768//400 766//38
f 780//555 766//38 767//114
f 766//38 768//400 770//556
f 766//38 770//556 769//113
f 752//525 762//72 769//113
f 752//525 769//113 771//470
f 770//556 772//470 771//470
f 770//556 771//470 769//113
f 772//470 774//557 751//383
f 772//470 751//383 771//470
f 772//558 770//559 776//560
f 772//558 776//560 773//561
f 774//562 772//558 773//561
f 774//562 773//561 775//563
f 774//557 743//459 745//507
f 774//557 745//507 751//383
f 743//548 774//562 775//563
f 743//548 775//563 741//549
f 770//559 768//564 777//565
f 770//559 777//565 776//560
f 778//566 777//565 768//564
f 778//566 768//564 780//567
f 780//567 781//568 779//569
f 780//567 779//569 778//566
f 781//570 780//555 767//114
f 781//570 767//114 782//536
f 781//568 735//539 738//542
f 781//568 738//542 779//569
f 735//538 781//570 782//536
f 735//538 782//536 729//488
f 765//529 724//533 782//536
f 765//529 782//536 767//114
f 785//465 784//553 757//507
f 785//465 757//507 783//550
f 783//550 757//507 749//524
f 783//550 749//524 747//104
f 786//104 703//524 784//553
f 786//104 784//553 785//465
f 703//524 705//523 756//383
f 703//524 756//383 784//553
f 694//59 786//104 785//465
f 694//59 785//465 787//571
f 787//571 785//465 783//550
f 787//571 783//550 789//571
f 692//517 694//59 787//571
f 692//517 787//571 788//490
f 788//490 787//571 789//571
f 788//490 789//571 790//490
f 790//490 789//571 791//102
f 790//490 791//102 727//485
f 789//571 783//550 747//104
f 789//571 747//104 791//102
f 719//501 788//490 790//490
f 719//501 790//490 722//501
f 690//518 692//517 788//490
f 690//518 788//490 719//501
f 598//453 792//452 623//472
f 598//453 623//472 603//455
f 605//457 603//455 623//472
f 605//457 623//472 620//461
