# base_link.dae material 材质_023-effect; written by tools/champ_mesh_assets.py
# rgba 0 0 0 1
v 0.301273 0.009564 0.197917
v 0.304063 0.018761 0.197917
v 0.301082 0.009602 0.186750
v 0.300331 0.000000 0.197917
v 0.301464 0.009526 0.209084
v 0.300526 0.000000 0.209084
v 0.304243 0.018687 0.209084
v 0.308756 0.027129 0.209084
v 0.314828 0.034528 0.209084
v 0.308594 0.027237 0.197917
v 0.314691 0.034666 0.197917
v 0.308432 0.027345 0.186750
v 0.303883 0.018836 0.186750
v 0.314553 0.034804 0.186750
v 0.308269 0.027454 0.175584
v 0.303703 0.018910 0.175584
v 0.308107 0.027562 0.164417
v 0.314415 0.034942 0.175584
v 0.314277 0.035080 0.164417
v 0.321903 0.041087 0.175584
v 0.321795 0.041249 0.164417
v 0.330446 0.045654 0.175584
v 0.322011 0.040925 0.186750
v 0.322120 0.040763 0.197917
v 0.330521 0.045474 0.186750
v 0.339754 0.048275 0.186750
v 0.330596 0.045294 0.197917
v 0.339792 0.048083 0.197917
v 0.330670 0.045113 0.209084
v 0.322228 0.040601 0.209084
v 0.339830 0.047892 0.209084
v 0.349357 0.048831 0.209084
v 0.358883 0.047892 0.209084
v 0.349357 0.049025 0.197917
v 0.358921 0.048083 0.197917
v 0.349357 0.049220 0.186750
v 0.358959 0.048275 0.186750
v 0.349357 0.049415 0.175584
v 0.358997 0.048466 0.175584
v 0.349357 0.049610 0.164417
v 0.339716 0.048466 0.175584
v 0.339678 0.048657 0.164417
v 0.339640 0.048848 0.153250
v 0.330372 0.045834 0.164417
v 0.330297 0.046014 0.153250
v 0.321687 0.041411 0.153250
v 0.330222 0.046194 0.142084
v 0.339602 0.049039 0.142084
v 0.321578 0.041573 0.142084
v 0.314001 0.035355 0.142084
v 0.314139 0.035218 0.153250
v 0.307783 0.027779 0.142084
v 0.307945 0.027670 0.153250
v 0.303163 0.019134 0.142084
v 0.300318 0.009755 0.142084
v 0.303343 0.019060 0.153250
v 0.303523 0.018985 0.164417
v 0.300509 0.009716 0.153250
v 0.299552 0.000000 0.153250
v 0.300700 0.009678 0.164417
v 0.300891 0.009640 0.175584
v 0.299747 0.000000 0.164417
v 0.299941 0.000000 0.175584
v 0.300700 -0.009678 0.164417
v 0.300508 -0.009716 0.153250
v 0.303523 -0.018984 0.164417
v 0.300891 -0.009640 0.175584
v 0.301082 -0.009602 0.186750
v 0.303703 -0.018910 0.175584
v 0.303883 -0.018835 0.186750
v 0.308269 -0.027453 0.175584
v 0.314415 -0.034941 0.175584
v 0.308107 -0.027561 0.164417
v 0.308431 -0.027345 0.186750
v 0.314552 -0.034804 0.186750
v 0.308593 -0.027237 0.197917
v 0.308755 -0.027128 0.209084
v 0.304063 -0.018761 0.197917
v 0.314690 -0.034666 0.197917
v 0.322119 -0.040763 0.197917
v 0.314828 -0.034528 0.209084
v 0.322228 -0.040601 0.209084
v 0.330670 -0.045113 0.209084
v 0.339830 -0.047892 0.209084
v 0.330595 -0.045293 0.197917
v 0.339792 -0.048083 0.197917
v 0.330521 -0.045474 0.186750
v 0.322011 -0.040925 0.186750
v 0.339754 -0.048275 0.186750
v 0.330446 -0.045654 0.175584
v 0.321903 -0.041087 0.175584
v 0.339716 -0.048466 0.175584
v 0.330371 -0.045834 0.164417
v 0.330297 -0.046014 0.153250
v 0.321794 -0.041249 0.164417
v 0.339678 -0.048657 0.164417
v 0.339640 -0.048848 0.153250
v 0.349356 -0.049610 0.164417
v 0.359035 -0.048657 0.164417
v 0.349356 -0.049415 0.175584
v 0.349356 -0.049805 0.153250
v 0.349356 -0.050000 0.142084
v 0.359073 -0.048848 0.153250
v 0.368416 -0.046014 0.153250
v 0.359111 -0.049039 0.142084
v 0.368491 -0.046194 0.142084
v 0.377135 -0.041574 0.142084
v 0.384712 -0.035355 0.142084
v 0.377027 -0.041412 0.153250
v 0.376918 -0.041249 0.164417
v 0.384574 -0.035218 0.153250
v 0.390768 -0.027670 0.153250
v 0.384436 -0.035080 0.164417
v 0.390606 -0.027562 0.164417
v 0.384298 -0.034942 0.175584
v 0.390444 -0.027454 0.175584
v 0.384161 -0.034804 0.186750
v 0.376810 -0.041087 0.175584
v 0.376702 -0.040925 0.186750
v 0.368267 -0.045654 0.175584
v 0.358997 -0.048466 0.175584
v 0.368341 -0.045834 0.164417
v 0.368192 -0.045474 0.186750
v 0.358959 -0.048275 0.186750
v 0.368118 -0.045294 0.197917
v 0.368043 -0.045114 0.209084
v 0.358921 -0.048083 0.197917
v 0.376594 -0.040763 0.197917
v 0.376485 -0.040601 0.209084
v 0.384023 -0.034666 0.197917
v 0.390120 -0.027237 0.197917
v 0.383885 -0.034529 0.209084
v 0.389958 -0.027129 0.209084
v 0.394470 -0.018687 0.209084
v 0.397249 -0.009526 0.209084
v 0.394650 -0.018761 0.197917
v 0.397440 -0.009564 0.197917
v 0.394830 -0.018836 0.186750
v 0.395010 -0.018910 0.175584
v 0.390282 -0.027345 0.186750
v 0.397631 -0.009602 0.186750
v 0.398577 0.000000 0.186750
v 0.397823 -0.009640 0.175584
v 0.398772 0.000000 0.175584
v 0.398014 -0.009678 0.164417
v 0.398967 0.000000 0.164417
v 0.398205 -0.009716 0.153250
v 0.395191 -0.018985 0.164417
v 0.395371 -0.019060 0.153250
v 0.395551 -0.019134 0.142084
v 0.398396 -0.009755 0.142084
v 0.390930 -0.027779 0.142084
v 0.399357 0.000000 0.142084
v 0.398396 0.009755 0.142084
v 0.399162 0.000000 0.153250
v 0.398205 0.009716 0.153250
v 0.398014 0.009678 0.164417
v 0.395371 0.019060 0.153250
v 0.390768 0.027670 0.153250
v 0.395551 0.019134 0.142084
v 0.395191 0.018985 0.164417
v 0.390606 0.027562 0.164417
v 0.395011 0.018910 0.175584
v 0.394830 0.018836 0.186750
v 0.390444 0.027454 0.175584
v 0.397823 0.009640 0.175584
v 0.397631 0.009602 0.186750
v 0.397440 0.009564 0.197917
v 0.394650 0.018761 0.197917
v 0.397249 0.009526 0.209084
v 0.398382 0.000000 0.197917
v 0.398187 0.000000 0.209084
v 0.394470 0.018687 0.209084
v 0.389958 0.027129 0.209084
v 0.390120 0.027237 0.197917
v 0.383885 0.034528 0.209084
v 0.376486 0.040601 0.209084
v 0.384023 0.034666 0.197917
v 0.376594 0.040763 0.197917
v 0.384161 0.034804 0.186750
v 0.376702 0.040925 0.186750
v 0.390282 0.027345 0.186750
v 0.384299 0.034942 0.175584
v 0.376810 0.041087 0.175584
v 0.384436 0.035080 0.164417
v 0.384574 0.035218 0.153250
v 0.376919 0.041249 0.164417
v 0.377027 0.041411 0.153250
v 0.368342 0.045834 0.164417
v 0.359035 0.048657 0.164417
v 0.368267 0.045654 0.175584
v 0.368416 0.046014 0.153250
v 0.359073 0.048848 0.153250
v 0.368491 0.046194 0.142084
v 0.359111 0.049039 0.142084
v 0.377135 0.041573 0.142084
v 0.384712 0.035355 0.142084
v 0.390930 0.027779 0.142084
v 0.349357 0.050000 0.142084
v 0.349357 0.049805 0.153250
v 0.368192 0.045474 0.186750
v 0.368118 0.045294 0.197917
v 0.368043 0.045113 0.209084
v 0.349356 -0.049025 0.197917
v 0.358883 -0.047892 0.209084
v 0.349356 -0.048831 0.209084
v 0.349356 -0.049220 0.186750
v 0.339602 -0.049039 0.142084
v 0.330222 -0.046194 0.142084
v 0.321578 -0.041573 0.142084
v 0.314001 -0.035355 0.142084
v 0.321686 -0.041411 0.153250
v 0.314139 -0.035217 0.153250
v 0.307945 -0.027670 0.153250
v 0.314277 -0.035079 0.164417
v 0.303343 -0.019059 0.153250
v 0.307783 -0.027778 0.142084
v 0.303163 -0.019134 0.142084
v 0.300317 -0.009754 0.142084
v 0.299357 0.000000 0.142084
v 0.304243 -0.018686 0.209084
v 0.301273 -0.009564 0.197917
v 0.301464 -0.009526 0.209084
v 0.300136 0.000000 0.186750
v -0.411311 -0.012139 -0.040180
v -0.411311 -0.009256 -0.042314
v -0.409311 -0.012139 -0.040180
v -0.411311 -0.014551 -0.037524
v -0.409311 -0.014551 -0.037524
v -0.411311 -0.016398 -0.034449
v -0.409311 -0.016398 -0.034449
v -0.411311 -0.017609 -0.031072
v -0.409311 -0.017609 -0.031072
v -0.411311 -0.018139 -0.027524
v -0.409311 -0.018139 -0.027524
v -0.411311 -0.017966 -0.023941
v -0.409311 -0.017966 -0.023941
v -0.411311 -0.017098 -0.020460
v -0.409311 -0.017098 -0.020460
v -0.411311 -0.015567 -0.017215
v -0.409311 -0.015567 -0.017215
v -0.411311 -0.013432 -0.014332
v -0.409311 -0.013432 -0.014332
v -0.411311 -0.010776 -0.011921
v -0.409311 -0.010776 -0.011921
v -0.411311 -0.007701 -0.010073
v -0.409311 -0.007701 -0.010073
v -0.411311 -0.004324 -0.008862
v -0.409311 -0.004324 -0.008862
v -0.411311 -0.000776 -0.008332
v -0.409311 -0.000776 -0.008332
v -0.411311 0.002807 -0.008505
v -0.409311 0.002807 -0.008505
v -0.411311 0.006288 -0.009374
v -0.409311 0.006288 -0.009374
v -0.411311 0.009532 -0.010905
v -0.409311 0.009532 -0.010905
v -0.411311 0.012416 -0.013039
v -0.411311 0.007967 -0.013522
v -0.411311 0.005263 -0.012246
v -0.411311 0.010369 -0.015301
v -0.413311 0.007967 -0.013522
v -0.413311 0.005263 -0.012246
v -0.413311 0.010369 -0.015301
v -0.413311 0.012379 -0.017514
v -0.413311 0.013918 -0.020077
v -0.411311 0.012379 -0.017514
v -0.411311 0.013918 -0.020077
v -0.411311 0.014928 -0.022891
v -0.411311 0.015369 -0.025848
v -0.413311 0.014928 -0.022891
v -0.413311 0.015369 -0.025848
v -0.413311 0.015225 -0.028834
v -0.413311 0.014501 -0.031734
v -0.411311 0.015225 -0.028834
v -0.411311 0.014501 -0.031734
v -0.411311 0.013226 -0.034438
v -0.411311 0.011447 -0.036841
v -0.413311 0.013226 -0.034438
v -0.413311 0.011447 -0.036841
v -0.413311 0.009234 -0.038850
v -0.413311 0.006671 -0.040389
v -0.411311 0.009234 -0.038850
v -0.411311 0.006671 -0.040389
v -0.411311 0.003857 -0.041399
v -0.411311 0.000900 -0.041840
v -0.413311 0.003857 -0.041399
v -0.413311 0.000900 -0.041840
v -0.413311 -0.002086 -0.041696
v -0.413311 -0.004986 -0.040973
v -0.411311 -0.002086 -0.041696
v -0.411311 -0.004986 -0.040973
v -0.411311 -0.007690 -0.039697
v -0.411311 -0.010093 -0.037918
v -0.413311 -0.007690 -0.039697
v -0.413311 -0.010093 -0.037918
v -0.413311 -0.012103 -0.035705
v -0.413311 -0.013642 -0.033142
v -0.411311 -0.012103 -0.035705
v -0.411311 -0.013642 -0.033142
v -0.411311 -0.014651 -0.030328
v -0.411311 -0.015093 -0.027371
v -0.413311 -0.014651 -0.030328
v -0.413311 -0.015093 -0.027371
v -0.413311 -0.014949 -0.024385
v -0.413311 -0.014225 -0.021485
v -0.411311 -0.014949 -0.024385
v -0.411311 -0.014225 -0.021485
v -0.411311 -0.012949 -0.018781
v -0.411311 -0.011170 -0.016378
v -0.413311 -0.012949 -0.018781
v -0.413311 -0.011170 -0.016378
v -0.413311 -0.008957 -0.014369
v -0.413311 -0.006394 -0.012830
v -0.411311 -0.008957 -0.014369
v -0.411311 -0.006394 -0.012830
v -0.411311 -0.003580 -0.011820
v -0.411311 -0.000624 -0.011379
v -0.413311 -0.003580 -0.011820
v -0.413311 -0.000624 -0.011379
v -0.413311 0.002362 -0.011523
v -0.411311 0.002362 -0.011523
v -0.409311 0.012416 -0.013039
v -0.411311 0.014827 -0.015695
v -0.409311 0.014827 -0.015695
v -0.411311 0.016674 -0.018770
v -0.409311 0.016674 -0.018770
v -0.411311 0.017886 -0.022147
v -0.409311 0.017886 -0.022147
v -0.411311 0.018415 -0.025695
v -0.409311 0.018415 -0.025695
v -0.411311 0.018243 -0.029278
v -0.409311 0.018243 -0.029278
v -0.411311 0.017374 -0.032759
v -0.409311 0.017374 -0.032759
v -0.411311 0.015843 -0.036003
v -0.409311 0.015843 -0.036003
v -0.411311 0.013709 -0.038887
v -0.409311 0.013709 -0.038887
v -0.411311 0.011053 -0.041298
v -0.409311 0.011053 -0.041298
v -0.411311 0.007977 -0.043145
v -0.409311 0.007977 -0.043145
v -0.411311 0.004601 -0.044357
v -0.409311 0.004601 -0.044357
v -0.411311 0.001053 -0.044887
v -0.409311 0.001053 -0.044887
v -0.411311 -0.002531 -0.044714
v -0.409311 -0.002531 -0.044714
v -0.411311 -0.006011 -0.043845
v -0.409311 -0.006011 -0.043845
v -0.409311 -0.009256 -0.042314
v 0.419269 -0.012277 -0.026750
v 0.419269 -0.009394 -0.028884
v 0.417269 -0.012277 -0.026750
v 0.419269 -0.014689 -0.024094
v 0.417269 -0.014689 -0.024094
v 0.419269 -0.016536 -0.021019
v 0.417269 -0.016536 -0.021019
v 0.419269 -0.017748 -0.017642
v 0.417269 -0.017748 -0.017642
v 0.419269 -0.018277 -0.014094
v 0.417269 -0.018277 -0.014094
v 0.419269 -0.018104 -0.010511
v 0.417269 -0.018104 -0.010511
v 0.419269 -0.017236 -0.007030
v 0.417269 -0.017236 -0.007030
v 0.419269 -0.015705 -0.003785
v 0.417269 -0.015705 -0.003785
v 0.419269 -0.013570 -0.000902
v 0.419269 -0.013087 -0.005351
v 0.419269 -0.011309 -0.002948
v 0.419269 -0.014363 -0.008055
v 0.421269 -0.013087 -0.005351
v 0.421269 -0.011309 -0.002948
v 0.421269 -0.014363 -0.008055
v 0.421269 -0.015087 -0.010955
v 0.421269 -0.015231 -0.013941
v 0.419269 -0.015087 -0.010955
v 0.419269 -0.015231 -0.013941
v 0.419269 -0.014790 -0.016898
v 0.419269 -0.013780 -0.019712
v 0.421269 -0.014790 -0.016898
v 0.421269 -0.013780 -0.019712
v 0.421269 -0.012241 -0.022275
v 0.419269 -0.012241 -0.022275
v 0.421269 -0.010231 -0.024488
v 0.419269 -0.010231 -0.024488
v 0.421269 -0.007828 -0.026267
v 0.421269 -0.005125 -0.027543
v 0.419269 -0.007828 -0.026267
v 0.419269 -0.005125 -0.027543
v 0.419269 -0.002224 -0.028266
v 0.419269 0.000762 -0.028410
v 0.421269 -0.002224 -0.028266
v 0.421269 0.000762 -0.028410
v 0.421269 0.003719 -0.027969
v 0.419269 0.003719 -0.027969
v 0.421269 0.006533 -0.026959
v 0.419269 0.006533 -0.026959
v 0.421269 0.009095 -0.025420
v 0.419269 0.009095 -0.025420
v 0.421269 0.011309 -0.023411
v 0.419269 0.011309 -0.023411
v 0.421269 0.013087 -0.021008
v 0.419269 0.013087 -0.021008
v 0.421269 0.014363 -0.018304
v 0.419269 0.014363 -0.018304
v 0.421269 0.015087 -0.015404
v 0.421269 0.015231 -0.012417
v 0.419269 0.015087 -0.015404
v 0.419269 0.015231 -0.012417
v 0.419269 0.014790 -0.009461
v 0.419269 0.013780 -0.006647
v 0.421269 0.014790 -0.009461
v 0.421269 0.013780 -0.006647
v 0.421269 0.012241 -0.004084
v 0.419269 0.012241 -0.004084
v 0.421269 0.010231 -0.001871
v 0.421269 0.007828 -0.000092
v 0.419269 0.010231 -0.001871
v 0.419269 0.007828 -0.000092
v 0.419269 0.005125 0.001184
v 0.419269 0.002224 0.001908
v 0.421269 0.005125 0.001184
v 0.421269 0.002224 0.001908
v 0.421269 -0.000762 0.002052
v 0.421269 -0.003719 0.001610
v 0.419269 -0.000762 0.002052
v 0.419269 -0.003719 0.001610
v 0.419269 -0.006533 0.000601
v 0.419269 -0.009095 -0.000939
v 0.421269 -0.006533 0.000601
v 0.421269 -0.009095 -0.000939
v 0.419269 0.015705 -0.022573
v 0.417269 0.015705 -0.022573
v 0.419269 0.013570 -0.025457
v 0.419269 0.017236 -0.019329
v 0.419269 0.018104 -0.015848
v 0.417269 0.017236 -0.019329
v 0.417269 0.018104 -0.015848
v 0.417269 0.018277 -0.012265
v 0.417269 0.017748 -0.008717
v 0.419269 0.018277 -0.012265
v 0.419269 0.017748 -0.008717
v 0.419269 0.016536 -0.005340
v 0.419269 0.014689 -0.002265
v 0.417269 0.016536 -0.005340
v 0.417269 0.014689 -0.002265
v 0.417269 0.012277 0.000391
v 0.417269 0.009394 0.002525
v 0.419269 0.012277 0.000391
v 0.419269 0.009394 0.002525
v 0.419269 0.006150 0.004056
v 0.419269 0.002669 0.004925
v 0.417269 0.006150 0.004056
v 0.417269 0.002669 0.004925
v 0.417269 -0.000914 0.005098
v 0.417269 -0.004462 0.004568
v 0.419269 -0.000914 0.005098
v 0.419269 -0.004462 0.004568
v 0.419269 -0.007839 0.003357
v 0.419269 -0.010914 0.001510
v 0.417269 -0.007839 0.003357
v 0.417269 -0.010914 0.001510
v 0.417269 -0.013570 -0.000902
v 0.417269 0.013570 -0.025457
v 0.419269 0.010914 -0.027868
v 0.417269 0.010914 -0.027868
v 0.419269 0.007839 -0.029715
v 0.417269 0.007839 -0.029715
v 0.419269 0.004462 -0.030927
v 0.417269 0.004462 -0.030927
v 0.419269 0.000914 -0.031457
v 0.417269 0.000914 -0.031457
v 0.419269 -0.002669 -0.031284
v 0.417269 -0.002669 -0.031284
v 0.419269 -0.006150 -0.030415
v 0.417269 -0.006150 -0.030415
v 0.417269 -0.009394 -0.028884
v -0.410810 0.033470 0.030300
v -0.417598 0.033470 0.037088
v -0.409361 0.032921 0.028850
v -0.410103 0.033470 0.031007
v -0.416891 0.033470 0.037795
v -0.408654 0.032921 0.029558
v -0.407592 0.031420 0.028496
v -0.407204 0.029370 0.028108
v -0.408300 0.031420 0.027789
v -0.407911 0.029370 0.027401
v -0.407911 -0.029230 0.027401
v -0.408300 -0.031280 0.027789
v -0.407204 -0.029230 0.028108
v -0.407592 -0.031280 0.028496
v -0.408654 -0.032781 0.029558
v -0.409361 -0.032781 0.028850
v -0.410103 -0.033330 0.031007
v -0.416891 -0.033330 0.037795
v -0.410810 -0.033330 0.030300
v -0.417598 -0.033330 0.037088
v -0.419048 -0.032781 0.038538
v -0.420109 -0.031280 0.039599
v -0.418341 -0.032781 0.039245
v -0.419402 -0.031280 0.040306
v -0.419791 -0.029230 0.040695
v -0.419791 0.029370 0.040695
v -0.420498 -0.029230 0.039987
v -0.420498 0.029370 0.039987
v -0.420109 0.031420 0.039599
v -0.419048 0.032921 0.038538
v -0.419402 0.031420 0.040306
v -0.418341 0.032921 0.039245
v 0.417823 0.033470 0.060574
v 0.424611 0.033470 0.067362
v 0.416373 0.032921 0.059124
v 0.417115 0.033470 0.061281
v 0.423904 0.033470 0.068069
v 0.415666 0.032921 0.059831
v 0.414605 0.031420 0.058770
v 0.415312 0.031420 0.058063
v 0.414216 0.029370 0.058382
v 0.414923 0.029370 0.057675
v 0.414216 -0.029230 0.058382
v 0.414605 -0.031280 0.058770
v 0.414923 -0.029230 0.057675
v 0.415312 -0.031280 0.058063
v 0.416373 -0.032781 0.059124
v 0.415666 -0.032781 0.059831
v 0.417823 -0.033330 0.060574
v 0.424611 -0.033330 0.067362
v 0.417115 -0.033330 0.061281
v 0.423904 -0.033330 0.068069
v 0.425353 -0.032781 0.069519
v 0.426060 -0.032781 0.068812
v 0.426414 -0.031280 0.070580
v 0.426803 -0.029230 0.070968
v 0.427122 -0.031280 0.069873
v 0.427510 -0.029230 0.070261
v 0.427510 0.029370 0.070261
v 0.427121 0.031420 0.069873
v 0.426803 0.029370 0.070968
v 0.426414 0.031420 0.070580
v 0.425353 0.032921 0.069519
v 0.426060 0.032921 0.068812
vn -0.9806 0.1951 0.0174
vn -0.9237 0.3826 0.0174
vn -0.9237 0.3826 0.0175
vn -0.9806 0.1951 0.0174
vn -0.9806 0.1951 0.0174
vn -0.9237 0.3827 0.0174
vn -0.9998 -0.0000 0.0174
vn -0.9998 -0.0000 0.0174
vn -0.9998 -0.0000 0.0175
vn -0.0000 -0.0000 1.0000
vn -0.8313 0.5555 0.0174
vn -0.8313 0.5555 0.0174
vn -0.7070 0.7070 0.0174
vn -0.7070 0.7070 0.0174
vn -0.8313 0.5555 0.0175
vn -0.7070 0.7070 0.0175
vn -0.8313 0.5555 0.0175
vn -0.9237 0.3826 0.0175
vn -0.7070 0.7070 0.0175
vn -0.8314 0.5555 0.0175
vn -0.9238 0.3826 0.0174
vn -0.7070 0.7070 0.0175
vn -0.5555 0.8313 0.0174
vn -0.5555 0.8313 0.0174
vn -0.5555 0.8313 0.0175
vn -0.3827 0.9237 0.0174
vn -0.3826 0.9237 0.0174
vn -0.3826 0.9237 0.0175
vn -0.5555 0.8313 0.0175
vn -0.3826 0.9237 0.0175
vn -0.1950 0.9806 0.0175
vn -0.1950 0.9806 0.0174
vn -0.1950 0.9806 0.0175
vn -0.5555 0.8313 0.0174
vn -0.3826 0.9237 0.0175
vn -0.1951 0.9806 0.0174
vn 0.0000 0.9998 0.0174
vn 0.0000 0.9998 0.0174
vn 0.1951 0.9806 0.0174
vn 0.1950 0.9806 0.0175
vn 0.0000 0.9998 0.0175
vn 0.1950 0.9806 0.0175
vn 0.0000 0.9998 0.0174
vn 0.1950 0.9806 0.0174
vn 0.1950 0.9806 0.0174
vn 0.0000 0.9998 0.0174
vn -0.1950 0.9806 0.0174
vn 0.0000 0.9998 0.0174
vn -0.1951 0.9806 0.0174
vn -0.3826 0.9237 0.0175
vn -0.5555 0.8313 0.0175
vn -0.3826 0.9237 0.0175
vn -0.5555 0.8313 0.0175
vn -0.1951 0.9806 0.0174
vn 0.0000 0.0000 -1.0000
vn -0.7070 0.7070 0.0174
vn -0.7070 0.7070 0.0175
vn -0.8314 0.5555 0.0175
vn -0.8314 0.5555 0.0175
vn -0.9238 0.3826 0.0175
vn -0.9238 0.3826 0.0174
vn -0.9806 0.1951 0.0175
vn -0.9806 0.1950 0.0174
vn -0.9806 0.1951 0.0174
vn -0.9998 0.0000 0.0175
vn -0.9998 0.0000 0.0174
vn -0.9998 0.0001 0.0175
vn -0.9806 0.1951 0.0174
vn -0.9998 -0.0000 0.0174
vn -0.9806 -0.1951 0.0175
vn -0.9806 -0.1951 0.0174
vn -0.9806 -0.1951 0.0175
vn -0.9237 -0.3826 0.0175
vn -0.9237 -0.3826 0.0175
vn -0.9237 -0.3826 0.0174
vn -0.9237 -0.3826 0.0174
vn -0.9806 -0.1951 0.0174
vn -0.8313 -0.5555 0.0174
vn -0.8314 -0.5555 0.0174
vn -0.8313 -0.5555 0.0175
vn -0.7070 -0.7070 0.0174
vn -0.7070 -0.7070 0.0174
vn -0.7070 -0.7070 0.0175
vn -0.8314 -0.5555 0.0175
vn -0.9237 -0.3826 0.0174
vn -0.7070 -0.7070 0.0175
vn -0.7070 -0.7070 0.0175
vn -0.8314 -0.5555 0.0175
vn -0.9237 -0.3826 0.0175
vn -0.5555 -0.8313 0.0174
vn -0.5555 -0.8313 0.0175
vn -0.5555 -0.8314 0.0175
vn -0.3826 -0.9237 0.0175
vn -0.3826 -0.9237 0.0175
vn -0.1951 -0.9806 0.0175
vn -0.1951 -0.9806 0.0174
vn -0.3826 -0.9237 0.0175
vn -0.1950 -0.9806 0.0175
vn -0.5555 -0.8313 0.0174
vn -0.3826 -0.9237 0.0175
vn -0.1950 -0.9806 0.0174
vn -0.5555 -0.8313 0.0175
vn -0.3826 -0.9237 0.0174
vn -0.1950 -0.9806 0.0174
vn -0.5555 -0.8313 0.0174
vn -0.3826 -0.9237 0.0174
vn -0.1951 -0.9806 0.0174
vn -0.0000 -0.9998 0.0174
vn -0.0000 -0.9998 0.0174
vn -0.0000 -0.9998 0.0174
vn 0.1950 -0.9806 0.0174
vn 0.1950 -0.9806 0.0174
vn 0.1951 -0.9806 0.0174
vn -0.0000 -0.9998 0.0174
vn 0.1951 -0.9806 0.0174
vn -0.1951 -0.9806 0.0174
vn 0.3826 -0.9237 0.0175
vn 0.3826 -0.9238 0.0174
vn 0.3826 -0.9237 0.0175
vn 0.5555 -0.8313 0.0175
vn 0.5555 -0.8313 0.0174
vn 0.7070 -0.7070 0.0175
vn 0.7070 -0.7070 0.0174
vn 0.5555 -0.8313 0.0175
vn 0.7070 -0.7070 0.0175
vn 0.8313 -0.5555 0.0175
vn 0.8313 -0.5555 0.0175
vn 0.8313 -0.5555 0.0175
vn 0.8313 -0.5555 0.0175
vn 0.7070 -0.7070 0.0174
vn 0.5555 -0.8313 0.0174
vn 0.8314 -0.5555 0.0174
vn 0.7070 -0.7070 0.0174
vn 0.5555 -0.8313 0.0174
vn 0.3827 -0.9237 0.0174
vn 0.3826 -0.9237 0.0175
vn 0.1950 -0.9806 0.0175
vn 0.3826 -0.9237 0.0175
vn 0.1950 -0.9806 0.0175
vn 0.5555 -0.8313 0.0174
vn 0.3826 -0.9237 0.0175
vn 0.1950 -0.9806 0.0174
vn 0.5555 -0.8313 0.0175
vn 0.7070 -0.7070 0.0174
vn 0.7070 -0.7070 0.0174
vn 0.8314 -0.5555 0.0174
vn 0.8314 -0.5555 0.0174
vn 0.9237 -0.3826 0.0174
vn 0.9237 -0.3826 0.0174
vn 0.9806 -0.1951 0.0174
vn 0.9806 -0.1951 0.0174
vn 0.9237 -0.3826 0.0175
vn 0.9806 -0.1951 0.0175
vn 0.9237 -0.3826 0.0175
vn 0.9806 -0.1951 0.0175
vn 0.9998 0.0000 0.0175
vn 0.9998 0.0000 0.0175
vn 0.9998 0.0000 0.0174
vn 0.9806 -0.1951 0.0175
vn 0.9998 0.0000 0.0174
vn 0.9237 -0.3826 0.0175
vn 0.9806 -0.1950 0.0174
vn 0.9998 0.0000 0.0175
vn 0.9237 -0.3826 0.0174
vn 0.9237 -0.3826 0.0175
vn 0.9806 -0.1951 0.0175
vn 0.9998 0.0000 0.0175
vn 0.9806 0.1951 0.0175
vn 0.9806 0.1950 0.0174
vn 0.9806 0.1950 0.0174
vn 0.9237 0.3826 0.0174
vn 0.9237 0.3826 0.0174
vn 0.9237 0.3826 0.0175
vn 0.8313 0.5555 0.0174
vn 0.8313 0.5555 0.0175
vn 0.8313 0.5555 0.0175
vn 0.9237 0.3826 0.0175
vn 0.9806 0.1950 0.0175
vn 0.8313 0.5555 0.0175
vn 0.8314 0.5555 0.0175
vn 0.9237 0.3826 0.0175
vn 0.9806 0.1951 0.0175
vn 0.9806 0.1951 0.0174
vn 0.9237 0.3826 0.0174
vn 0.9237 0.3826 0.0174
vn 0.9806 0.1951 0.0174
vn 0.9998 0.0000 0.0175
vn 0.8313 0.5555 0.0174
vn 0.8313 0.5555 0.0174
vn 0.7070 0.7070 0.0175
vn 0.7070 0.7070 0.0175
vn 0.5555 0.8313 0.0175
vn 0.5555 0.8313 0.0175
vn 0.7070 0.7070 0.0175
vn 0.5555 0.8313 0.0174
vn 0.7070 0.7070 0.0175
vn 0.5555 0.8313 0.0175
vn 0.7070 0.7070 0.0174
vn 0.5555 0.8313 0.0175
vn 0.7070 0.7070 0.0174
vn 0.5555 0.8313 0.0174
vn 0.3826 0.9237 0.0174
vn 0.3826 0.9237 0.0174
vn 0.3826 0.9237 0.0175
vn 0.1951 0.9806 0.0174
vn 0.3826 0.9237 0.0174
vn 0.1951 0.9806 0.0174
vn 0.5555 0.8313 0.0174
vn 0.7070 0.7070 0.0174
vn 0.0000 0.9998 0.0174
vn 0.3826 0.9237 0.0175
vn 0.3826 0.9237 0.0175
vn 0.3826 0.9237 0.0175
vn -0.0000 -0.9998 0.0175
vn -0.0000 -0.9998 0.0174
vn -0.0000 -0.9998 0.0174
vn -0.3826 -0.9237 0.0174
vn -0.5555 -0.8313 0.0175
vn -0.7070 -0.7070 0.0175
vn -0.7070 -0.7070 0.0175
vn -0.8314 -0.5555 0.0175
vn -0.8314 -0.5555 0.0175
vn -0.9237 -0.3826 0.0174
vn -0.9806 -0.1951 0.0175
vn -0.9806 -0.1951 0.0174
vn -0.9806 -0.1951 0.0174
vn 0.0000 -0.6708 -0.7416
vn 0.0000 -0.5133 -0.8582
vn -1.0000 -0.0000 -0.0000
vn -1.0000 -0.0000 -0.0000
vn -1.0000 -0.0000 -0.0000
vn -1.0000 -0.0000 -0.0000
vn -1.0000 -0.0000 -0.0000
vn 0.0000 -0.8026 -0.5965
vn 0.0000 -0.9036 -0.4283
vn 0.0000 -0.9698 -0.2438
vn 0.0000 -0.9987 -0.0500
vn 0.0000 -0.9893 0.1458
vn 0.0000 -0.9419 0.3359
vn -0.0000 -0.8582 0.5134
vn -0.0000 -0.7414 0.6710
vn -0.0000 -0.5965 0.8026
vn -0.0000 -0.4284 0.9036
vn -0.0000 -0.2438 0.9698
vn -0.0000 -0.0500 0.9987
vn -0.0000 0.1456 0.9893
vn -0.0000 0.1456 0.9893
vn -0.0000 0.3361 0.9418
vn -0.0000 0.5133 0.8582
vn -0.0000 0.6709 0.7416
vn -1.0000 -0.0000 -0.0000
vn -0.0000 0.3359 0.9419
vn -0.0000 0.5134 0.8581
vn -0.0000 0.6709 0.7415
vn -1.0000 -0.0000 -0.0000
vn -0.0000 0.8027 0.5964
vn -0.0000 0.9036 0.4284
vn -0.0000 0.9698 0.2438
vn -0.0000 0.9988 0.0499
vn -0.0000 0.9893 -0.1459
vn -0.0000 0.9419 -0.3360
vn 0.0000 0.8583 -0.5132
vn 0.0000 0.7415 -0.6709
vn 0.0000 0.5963 -0.8027
vn 0.0000 0.4284 -0.9036
vn 0.0000 0.2438 -0.9698
vn 0.0000 0.0499 -0.9988
vn 0.0000 -0.1457 -0.9893
vn 0.0000 -0.3360 -0.9419
vn 0.0000 -0.5134 -0.8582
vn 0.0000 -0.6709 -0.7416
vn 0.0000 -0.8027 -0.5964
vn -0.0000 -0.9035 -0.4287
vn 0.0000 -0.9035 -0.4287
vn 0.0000 -0.9698 -0.2438
vn 0.0000 -0.9987 -0.0501
vn 0.0000 -0.9893 0.1459
vn 0.0000 -0.9418 0.3361
vn -0.0000 -0.8582 0.5134
vn -0.0000 -0.7415 0.6709
vn -0.0000 -0.5963 0.8027
vn -0.0000 -0.4284 0.9036
vn -0.0000 -0.2439 0.9698
vn -0.0000 -0.0499 0.9988
vn -0.0000 0.1457 0.9893
vn -0.0000 0.8027 0.5964
vn -0.0000 0.9036 0.4284
vn -0.0000 0.9698 0.2438
vn -0.0000 0.9987 0.0500
vn -0.0000 0.9893 -0.1458
vn -0.0000 0.9418 -0.3361
vn 0.0000 0.8582 -0.5133
vn 0.0000 0.7416 -0.6709
vn 0.0000 0.5963 -0.8027
vn 0.0000 0.4284 -0.9036
vn 0.0000 0.2440 -0.9698
vn 0.0000 0.0500 -0.9987
vn 0.0000 -0.1459 -0.9893
vn 0.0000 -0.3361 -0.9418
vn 1.0000 -0.0000 0.0000
vn 0.0000 -0.6708 -0.7416
vn 0.0000 -0.5133 -0.8582
vn 1.0000 0.0000 0.0000
vn 1.0000 -0.0000 0.0000
vn 1.0000 0.0000 0.0000
vn 1.0000 0.0000 0.0000
vn 1.0000 0.0000 0.0000
vn 0.0000 -0.8026 -0.5965
vn 0.0000 -0.9036 -0.4284
vn 0.0000 -0.9698 -0.2438
vn 0.0000 -0.9988 -0.0499
vn 0.0000 -0.9893 0.1458
vn 0.0000 -0.9419 0.3359
vn -0.0000 -0.8582 0.5134
vn -0.0000 -0.7415 0.6709
vn 1.0000 0.0000 0.0000
vn -0.0000 -0.8582 0.5132
vn -0.0000 -0.7415 0.6709
vn 0.0000 -0.9418 0.3361
vn 1.0000 -0.0000 0.0000
vn 0.0000 -0.9893 0.1459
vn 0.0000 -0.9988 -0.0499
vn 0.0000 -0.9698 -0.2438
vn 0.0000 -0.9036 -0.4284
vn 0.0000 -0.8027 -0.5964
vn 0.0000 -0.6708 -0.7416
vn 0.0000 -0.5134 -0.8581
vn 0.0000 -0.3360 -0.9419
vn 0.0000 -0.1457 -0.9893
vn 0.0000 0.0499 -0.9988
vn 0.0000 0.2438 -0.9698
vn 0.0000 0.4284 -0.9036
vn 0.0000 0.5963 -0.8027
vn 0.0000 0.7415 -0.6709
vn 0.0000 0.8582 -0.5132
vn -0.0000 0.9418 -0.3361
vn -0.0000 0.9893 -0.1459
vn -0.0000 0.9988 0.0499
vn -0.0000 0.9698 0.2439
vn -0.0000 0.9036 0.4284
vn -0.0000 0.8027 0.5964
vn -0.0000 0.6709 0.7416
vn -0.0000 0.5134 0.8581
vn -0.0000 0.3361 0.9418
vn -0.0000 0.1459 0.9893
vn -0.0000 -0.0501 0.9987
vn -0.0000 -0.2438 0.9698
vn -0.0000 -0.4284 0.9036
vn -0.0000 -0.5964 0.8027
vn 0.0000 0.7415 -0.6709
vn 0.0000 0.8582 -0.5134
vn -0.0000 0.9419 -0.3360
vn -0.0000 0.9893 -0.1458
vn -1.0000 0.0000 -0.0000
vn -0.0000 0.9988 0.0499
vn -0.0000 0.9698 0.2438
vn -0.0000 0.9036 0.4284
vn -0.0000 0.8026 0.5965
vn -0.0000 0.6708 0.7416
vn -0.0000 0.5133 0.8582
vn -0.0000 0.3361 0.9418
vn -0.0000 0.1456 0.9893
vn -0.0000 0.1456 0.9893
vn -0.0000 -0.0500 0.9987
vn -0.0000 -0.2438 0.9698
vn -0.0000 -0.4283 0.9036
vn -0.0000 -0.5965 0.8026
vn 0.0000 0.5964 -0.8027
vn 0.0000 0.4284 -0.9036
vn 0.0000 0.2439 -0.9698
vn 0.0000 0.0500 -0.9987
vn 0.0000 -0.1456 -0.9893
vn 0.0000 -0.1456 -0.9893
vn 0.0000 -0.3361 -0.9418
vn -0.7071 -0.0000 -0.7071
vn 0.0000 1.0000 0.0000
vn 0.0000 1.0000 -0.0000
vn 0.0000 1.0000 -0.0000
vn -0.0001 1.0000 -0.0001
vn 0.3536 0.8660 -0.3536
vn 0.3535 0.8661 -0.3534
vn 0.7071 0.0000 0.7071
vn 0.6122 0.5001 -0.6125
vn 0.6123 0.4999 -0.6125
vn 0.7070 0.0000 -0.7072
vn 0.7071 -0.0000 -0.7071
vn 0.7070 0.0000 -0.7072
vn 0.7071 -0.0000 -0.7071
vn 0.6122 -0.5001 -0.6125
vn 0.6125 -0.5001 -0.6121
vn 0.3536 -0.8660 -0.3536
vn 0.3536 -0.8660 -0.3536
vn 0.0000 -1.0000 0.0000
vn 0.0000 -1.0000 -0.0000
vn 0.0000 -1.0000 -0.0000
vn -0.0000 -1.0000 -0.0000
vn -0.3535 -0.8660 0.3535
vn -0.3535 -0.8660 0.3535
vn -0.6123 -0.5000 0.6125
vn -0.6125 -0.5000 0.6122
vn -0.7075 0.0000 0.7067
vn -0.7071 -0.0000 0.7071
vn -0.7071 -0.0000 0.7071
vn -0.7075 -0.0000 0.7067
vn -0.6125 0.5000 0.6122
vn -0.6125 0.5000 0.6122
vn -0.3535 0.8660 0.3535
vn -0.3535 0.8660 0.3535
vn 0.7071 0.0000 -0.7071
vn 0.0000 1.0000 -0.0000
vn -0.0000 1.0000 0.0000
vn 0.0000 1.0000 0.0000
vn -0.0000 1.0000 0.0000
vn -0.3535 0.8660 -0.3536
vn -0.3535 0.8660 -0.3536
vn -0.7071 -0.0000 0.7071
vn -0.6124 0.4999 -0.6124
vn -0.6124 0.5000 -0.6124
vn -0.7071 0.0000 -0.7071
vn -0.7071 0.0000 -0.7071
vn -0.7071 -0.0000 -0.7071
vn -0.7071 0.0000 -0.7071
vn -0.6124 -0.4999 -0.6124
vn -0.6124 -0.5000 -0.6124
vn -0.3535 -0.8660 -0.3536
vn -0.3535 -0.8660 -0.3536
vn 0.0000 -1.0000 -0.0000
vn -0.0000 -1.0000 0.0000
vn -0.0000 -1.0000 0.0000
vn -0.0000 -1.0000 -0.0000
vn 0.3535 -0.8660 0.3536
vn 0.3534 -0.8660 0.3536
vn 0.6124 -0.5000 0.6124
vn 0.6125 -0.5001 0.6122
vn 0.7070 0.0000 0.7072
vn 0.7071 0.0000 0.7071
vn 0.7071 -0.0000 0.7071
vn 0.7071 0.0000 0.7071
vn 0.6124 0.5000 0.6124
vn 0.6124 0.4999 0.6124
vn 0.3536 0.8660 0.3536
vn 0.3535 0.8660 0.3536
f 1//1 2//2 13//3
f 1//1 13//3 3//4
f 5//5 7//6 2//2
f 5//5 2//2 1//1
f 224//7 4//8 1//1
f 224//7 1//1 3//4
f 4//8 6//9 5//5
f 4//8 5//5 1//1
f 6//10 223//10 221//10
f 6//10 221//10 77//10
f 6//10 77//10 81//10
f 6//10 81//10 82//10
f 6//10 82//10 83//10
f 6//10 83//10 84//10
f 6//10 84//10 206//10
f 6//10 206//10 205//10
f 6//10 205//10 126//10
f 6//10 126//10 129//10
f 6//10 129//10 132//10
f 6//10 132//10 133//10
f 6//10 133//10 134//10
f 6//10 134//10 135//10
f 6//10 135//10 172//10
f 6//10 172//10 170//10
f 6//10 170//10 173//10
f 6//10 173//10 174//10
f 6//10 174//10 176//10
f 6//10 176//10 177//10
f 6//10 177//10 203//10
f 6//10 203//10 33//10
f 6//10 33//10 32//10
f 6//10 32//10 31//10
f 6//10 31//10 29//10
f 6//10 29//10 30//10
f 6//10 30//10 9//10
f 6//10 9//10 8//10
f 6//10 8//10 7//10
f 6//10 7//10 5//10
f 7//6 8//11 10//12
f 7//6 10//12 2//2
f 8//11 9//13 11//14
f 8//11 11//14 10//12
f 2//2 10//12 12//15
f 2//2 12//15 13//3
f 10//12 11//14 14//16
f 10//12 14//16 12//15
f 13//3 12//15 15//17
f 13//3 15//17 16//18
f 12//15 14//16 18//19
f 12//15 18//19 15//17
f 16//18 15//17 17//20
f 16//18 17//20 57//21
f 15//17 18//19 19//22
f 15//17 19//22 17//20
f 18//19 20//23 21//24
f 18//19 21//24 19//22
f 14//16 23//25 20//23
f 14//16 20//23 18//19
f 20//23 22//26 44//27
f 20//23 44//27 21//24
f 23//25 25//28 22//26
f 23//25 22//26 20//23
f 11//14 24//29 23//25
f 11//14 23//25 14//16
f 24//29 27//30 25//28
f 24//29 25//28 23//25
f 25//28 26//31 41//32
f 25//28 41//32 22//26
f 27//30 28//33 26//31
f 27//30 26//31 25//28
f 30//34 29//35 27//30
f 30//34 27//30 24//29
f 29//35 31//36 28//33
f 29//35 28//33 27//30
f 31//36 32//37 34//38
f 31//36 34//38 28//33
f 32//37 33//39 35//40
f 32//37 35//40 34//38
f 28//33 34//38 36//41
f 28//33 36//41 26//31
f 34//38 35//40 37//42
f 34//38 37//42 36//41
f 26//31 36//41 38//43
f 26//31 38//43 41//32
f 36//41 37//42 39//44
f 36//41 39//44 38//43
f 38//43 39//44 190//45
f 38//43 190//45 40//46
f 41//32 38//43 40//46
f 41//32 40//46 42//47
f 22//26 41//32 42//47
f 22//26 42//47 44//27
f 42//47 40//46 200//48
f 42//47 200//48 43//49
f 44//27 42//47 43//49
f 44//27 43//49 45//50
f 21//24 44//27 45//50
f 21//24 45//50 46//51
f 47//52 49//53 46//51
f 47//52 46//51 45//50
f 48//54 47//52 45//50
f 48//54 45//50 43//49
f 153//55 151//55 150//55
f 153//55 150//55 152//55
f 153//55 152//55 108//55
f 153//55 108//55 107//55
f 153//55 107//55 106//55
f 153//55 106//55 105//55
f 153//55 105//55 102//55
f 153//55 102//55 208//55
f 153//55 208//55 209//55
f 153//55 209//55 210//55
f 153//55 210//55 211//55
f 153//55 211//55 217//55
f 153//55 217//55 218//55
f 153//55 218//55 219//55
f 153//55 219//55 220//55
f 153//55 220//55 55//55
f 153//55 55//55 54//55
f 153//55 54//55 52//55
f 153//55 52//55 50//55
f 153//55 50//55 49//55
f 153//55 49//55 47//55
f 153//55 47//55 48//55
f 153//55 48//55 199//55
f 153//55 199//55 195//55
f 153//55 195//55 194//55
f 153//55 194//55 196//55
f 153//55 196//55 197//55
f 153//55 197//55 198//55
f 153//55 198//55 160//55
f 153//55 160//55 154//55
f 49//53 50//56 51//57
f 49//53 51//57 46//51
f 50//56 52//58 53//59
f 50//56 53//59 51//57
f 52//58 54//60 56//61
f 52//58 56//61 53//59
f 54//60 55//62 58//63
f 54//60 58//63 56//61
f 57//21 17//20 53//59
f 57//21 53//59 56//61
f 60//64 57//21 56//61
f 60//64 56//61 58//63
f 59//65 62//66 60//64
f 59//65 60//64 58//63
f 55//62 220//67 59//65
f 55//62 59//65 58//63
f 61//68 16//18 57//21
f 61//68 57//21 60//64
f 62//66 63//69 61//68
f 62//66 61//68 60//64
f 64//70 67//71 63//69
f 64//70 63//69 62//66
f 65//72 64//70 62//66
f 65//72 62//66 59//65
f 65//72 216//73 66//74
f 65//72 66//74 64//70
f 64//70 66//74 69//75
f 64//70 69//75 67//71
f 67//71 69//75 70//76
f 67//71 70//76 68//77
f 67//71 68//77 224//7
f 67//71 224//7 63//69
f 69//75 71//78 74//79
f 69//75 74//79 70//76
f 66//74 73//80 71//78
f 66//74 71//78 69//75
f 71//78 72//81 75//82
f 71//78 75//82 74//79
f 73//80 215//83 72//81
f 73//80 72//81 71//78
f 70//76 74//79 76//84
f 70//76 76//84 78//85
f 74//79 75//82 79//86
f 74//79 79//86 76//84
f 76//84 79//86 81//87
f 76//84 81//87 77//88
f 78//85 76//84 77//88
f 78//85 77//88 221//89
f 75//82 88//90 80//91
f 75//82 80//91 79//86
f 79//86 80//91 82//92
f 79//86 82//92 81//87
f 80//91 85//93 83//94
f 80//91 83//94 82//92
f 85//93 86//95 84//96
f 85//93 84//96 83//94
f 88//90 87//97 85//93
f 88//90 85//93 80//91
f 87//97 89//98 86//95
f 87//97 86//95 85//93
f 91//99 90//100 87//97
f 91//99 87//97 88//90
f 90//100 92//101 89//98
f 90//100 89//98 87//97
f 95//102 93//103 90//100
f 95//102 90//100 91//99
f 93//103 96//104 92//101
f 93//103 92//101 90//100
f 212//105 94//106 93//103
f 212//105 93//103 95//102
f 94//106 97//107 96//104
f 94//106 96//104 93//103
f 97//107 101//108 98//109
f 97//107 98//109 96//104
f 96//104 98//109 100//110
f 96//104 100//110 92//101
f 98//109 99//111 121//112
f 98//109 121//112 100//110
f 101//108 103//113 99//111
f 101//108 99//111 98//109
f 103//113 101//108 102//114
f 103//113 102//114 105//115
f 101//108 97//107 208//116
f 101//108 208//116 102//114
f 104//117 103//113 105//115
f 104//117 105//115 106//118
f 103//113 104//117 122//119
f 103//113 122//119 99//111
f 109//120 104//117 106//118
f 109//120 106//118 107//121
f 111//122 109//120 107//121
f 111//122 107//121 108//123
f 104//117 109//120 110//124
f 104//117 110//124 122//119
f 109//120 111//122 113//125
f 109//120 113//125 110//124
f 112//126 111//122 108//123
f 112//126 108//123 152//127
f 111//122 112//126 114//128
f 111//122 114//128 113//125
f 113//125 114//128 116//129
f 113//125 116//129 115//130
f 110//124 113//125 115//130
f 110//124 115//130 118//131
f 115//130 116//129 140//132
f 115//130 140//132 117//133
f 118//131 115//130 117//133
f 118//131 117//133 119//134
f 120//135 118//131 119//134
f 120//135 119//134 123//136
f 122//119 110//124 118//131
f 122//119 118//131 120//135
f 99//111 122//119 120//135
f 99//111 120//135 121//112
f 121//112 120//135 123//136
f 121//112 123//136 124//137
f 124//137 123//136 125//138
f 124//137 125//138 127//139
f 123//136 119//134 128//140
f 123//136 128//140 125//138
f 127//139 125//138 126//141
f 127//139 126//141 205//142
f 125//138 128//140 129//143
f 125//138 129//143 126//141
f 128//140 130//144 132//145
f 128//140 132//145 129//143
f 119//134 117//133 130//144
f 119//134 130//144 128//140
f 117//133 140//132 131//146
f 117//133 131//146 130//144
f 130//144 131//146 133//147
f 130//144 133//147 132//145
f 131//146 136//148 134//149
f 131//146 134//149 133//147
f 136//148 137//150 135//151
f 136//148 135//151 134//149
f 140//132 138//152 136//148
f 140//132 136//148 131//146
f 138//152 141//153 137//150
f 138//152 137//150 136//148
f 139//154 143//155 141//153
f 139//154 141//153 138//152
f 116//129 139//154 138//152
f 116//129 138//152 140//132
f 141//153 143//155 144//156
f 141//153 144//156 142//157
f 137//150 141//153 142//157
f 137//150 142//157 171//158
f 143//155 145//159 146//160
f 143//155 146//160 144//156
f 148//161 145//159 143//155
f 148//161 143//155 139//154
f 145//159 147//162 155//163
f 145//159 155//163 146//160
f 149//164 147//162 145//159
f 149//164 145//159 148//161
f 112//126 149//164 148//161
f 112//126 148//161 114//128
f 114//128 148//161 139//154
f 114//128 139//154 116//129
f 149//164 112//126 152//127
f 149//164 152//127 150//165
f 147//162 149//164 150//165
f 147//162 150//165 151//166
f 147//162 151//166 153//167
f 147//162 153//167 155//163
f 155//163 153//167 154//168
f 155//163 154//168 156//169
f 146//160 155//163 156//169
f 146//160 156//169 157//170
f 161//171 157//170 156//169
f 161//171 156//169 158//172
f 154//168 160//173 158//172
f 154//168 158//172 156//169
f 162//174 161//171 158//172
f 162//174 158//172 159//175
f 160//173 198//176 159//175
f 160//173 159//175 158//172
f 163//177 166//178 157//170
f 163//177 157//170 161//171
f 165//179 163//177 161//171
f 165//179 161//171 162//174
f 182//180 164//181 163//177
f 182//180 163//177 165//179
f 164//181 167//182 166//178
f 164//181 166//178 163//177
f 142//157 144//156 166//178
f 142//157 166//178 167//182
f 144//156 146//160 157//170
f 144//156 157//170 166//178
f 171//158 142//157 167//182
f 171//158 167//182 168//183
f 169//184 168//183 167//182
f 169//184 167//182 164//181
f 173//185 170//186 168//183
f 173//185 168//183 169//184
f 170//186 172//187 171//158
f 170//186 171//158 168//183
f 137//150 171//158 172//187
f 137//150 172//187 135//151
f 174//188 173//185 169//184
f 174//188 169//184 175//189
f 176//190 174//188 175//189
f 176//190 175//189 178//191
f 177//192 176//190 178//191
f 177//192 178//191 179//193
f 179//193 178//191 180//194
f 179//193 180//194 181//195
f 178//191 175//189 182//180
f 178//191 182//180 180//194
f 181//195 180//194 183//196
f 181//195 183//196 184//197
f 180//194 182//180 165//179
f 180//194 165//179 183//196
f 184//197 183//196 185//198
f 184//197 185//198 187//199
f 183//196 165//179 162//174
f 183//196 162//174 185//198
f 187//199 185//198 186//200
f 187//199 186//200 188//201
f 185//198 162//174 159//175
f 185//198 159//175 186//200
f 189//202 187//199 188//201
f 189//202 188//201 192//203
f 191//204 184//197 187//199
f 191//204 187//199 189//202
f 190//45 189//202 192//203
f 190//45 192//203 193//205
f 39//44 191//204 189//202
f 39//44 189//202 190//45
f 194//206 195//207 193//205
f 194//206 193//205 192//203
f 196//208 194//206 192//203
f 196//208 192//203 188//201
f 197//209 196//208 188//201
f 197//209 188//201 186//200
f 198//176 197//209 186//200
f 198//176 186//200 159//175
f 195//207 199//210 200//48
f 195//207 200//48 193//205
f 199//210 48//54 43//49
f 199//210 43//49 200//48
f 40//46 190//45 193//205
f 40//46 193//205 200//48
f 201//211 181//195 184//197
f 201//211 184//197 191//204
f 37//42 201//211 191//204
f 37//42 191//204 39//44
f 202//212 179//193 181//195
f 202//212 181//195 201//211
f 35//40 202//212 201//211
f 35//40 201//211 37//42
f 33//39 203//213 202//212
f 33//39 202//212 35//40
f 203//213 177//192 179//193
f 203//213 179//193 202//212
f 175//189 169//184 164//181
f 175//189 164//181 182//180
f 207//214 124//137 127//139
f 207//214 127//139 204//215
f 204//215 127//139 205//142
f 204//215 205//142 206//216
f 86//95 204//215 206//216
f 86//95 206//216 84//96
f 89//98 207//214 204//215
f 89//98 204//215 86//95
f 100//110 121//112 124//137
f 100//110 124//137 207//214
f 92//101 100//110 207//214
f 92//101 207//214 89//98
f 97//107 94//106 209//217
f 97//107 209//217 208//116
f 94//106 212//105 210//218
f 94//106 210//218 209//217
f 212//105 213//219 211//220
f 212//105 211//220 210//218
f 213//219 212//105 95//102
f 213//219 95//102 215//83
f 213//219 214//221 217//222
f 213//219 217//222 211//220
f 214//221 213//219 215//83
f 214//221 215//83 73//80
f 215//83 95//102 91//99
f 215//83 91//99 72//81
f 214//221 216//73 218//223
f 214//221 218//223 217//222
f 216//73 214//221 73//80
f 216//73 73//80 66//74
f 216//73 65//72 219//224
f 216//73 219//224 218//223
f 65//72 59//65 220//67
f 65//72 220//67 219//224
f 72//81 91//99 88//90
f 72//81 88//90 75//82
f 222//225 78//85 221//89
f 222//225 221//89 223//226
f 68//77 70//76 78//85
f 68//77 78//85 222//225
f 68//77 222//225 4//8
f 68//77 4//8 224//7
f 222//225 223//226 6//9
f 222//225 6//9 4//8
f 63//69 224//7 3//4
f 63//69 3//4 61//68
f 3//4 13//3 16//18
f 3//4 16//18 61//68
f 17//20 19//22 51//57
f 17//20 51//57 53//59
f 19//22 21//24 46//51
f 19//22 46//51 51//57
f 9//13 30//34 24//29
f 9//13 24//29 11//14
f 225//227 226//228 352//228
f 225//227 352//228 227//227
f 226//229 225//230 228//230
f 226//229 228//230 230//230
f 226//229 230//230 232//230
f 226//229 232//230 234//230
f 226//229 234//230 236//230
f 226//229 236//230 238//230
f 226//229 238//230 240//230
f 226//229 240//230 242//230
f 226//229 242//230 244//230
f 226//229 244//230 246//230
f 226//229 246//230 248//230
f 226//229 248//230 250//230
f 226//229 250//230 252//230
f 226//229 252//230 254//230
f 226//229 254//230 256//231
f 226//229 256//231 259//232
f 226//229 259//232 260//230
f 226//229 260//230 322//230
f 226//229 322//230 318//230
f 226//229 318//230 317//230
f 226//229 317//230 316//230
f 226//229 316//230 315//230
f 226//229 315//230 310//230
f 226//229 310//230 309//230
f 226//229 309//230 308//230
f 226//229 308//230 307//230
f 226//229 307//230 302//230
f 226//229 302//230 301//230
f 226//229 301//230 300//230
f 226//229 300//230 299//230
f 226//229 299//230 294//230
f 226//229 294//230 293//233
f 228//234 225//227 227//227
f 228//234 227//227 229//234
f 230//235 228//234 229//234
f 230//235 229//234 231//235
f 232//236 230//235 231//235
f 232//236 231//235 233//236
f 234//237 232//236 233//236
f 234//237 233//236 235//237
f 236//238 234//237 235//237
f 236//238 235//237 237//238
f 238//239 236//238 237//238
f 238//239 237//238 239//239
f 240//240 238//239 239//239
f 240//240 239//239 241//240
f 242//241 240//240 241//240
f 242//241 241//240 243//241
f 244//242 242//241 243//241
f 244//242 243//241 245//242
f 246//243 244//242 245//242
f 246//243 245//242 247//243
f 248//244 246//243 247//243
f 248//244 247//243 249//244
f 250//245 248//244 249//244
f 250//245 249//244 251//245
f 252//246 250//245 251//245
f 252//246 251//245 253//247
f 254//248 252//246 253//247
f 254//248 253//247 255//248
f 256//249 254//248 255//248
f 256//249 255//248 257//249
f 258//250 256//249 257//249
f 258//250 257//249 323//250
f 256//231 258//251 324//251
f 256//231 324//251 326//251
f 256//231 326//251 328//251
f 256//231 328//251 330//251
f 256//231 330//251 332//251
f 256//231 332//251 334//251
f 256//231 334//251 336//251
f 256//231 336//251 338//251
f 256//231 338//251 340//251
f 256//231 340//251 342//251
f 256//231 342//251 344//251
f 256//231 344//251 346//251
f 256//231 346//251 348//251
f 256//231 348//251 350//251
f 256//231 350//251 226//229
f 256//231 226//229 293//233
f 256//231 293//233 292//251
f 256//231 292//251 291//251
f 256//231 291//251 286//251
f 256//231 286//251 285//251
f 256//231 285//251 284//251
f 256//231 284//251 283//251
f 256//231 283//251 278//251
f 256//231 278//251 277//251
f 256//231 277//251 276//251
f 256//231 276//251 275//251
f 256//231 275//251 270//251
f 256//231 270//251 269//251
f 256//231 269//251 268//251
f 256//231 268//251 267//251
f 256//231 267//251 261//251
f 256//231 261//251 259//232
f 260//252 259//253 262//253
f 260//252 262//253 263//252
f 264//254 262//253 259//253
f 264//254 259//253 261//254
f 262//255 264//255 265//255
f 262//255 265//255 266//255
f 262//255 266//255 271//255
f 262//255 271//255 272//255
f 262//255 272//255 273//255
f 262//255 273//255 274//255
f 262//255 274//255 279//255
f 262//255 279//255 280//255
f 262//255 280//255 281//255
f 262//255 281//255 282//255
f 262//255 282//255 287//255
f 262//255 287//255 288//255
f 262//255 288//255 289//255
f 262//255 289//255 290//255
f 262//255 290//255 295//255
f 262//255 295//255 296//255
f 262//255 296//255 297//255
f 262//255 297//255 298//255
f 262//255 298//255 303//255
f 262//255 303//255 304//255
f 262//255 304//255 305//255
f 262//255 305//255 306//255
f 262//255 306//255 311//255
f 262//255 311//255 312//255
f 262//255 312//255 313//255
f 262//255 313//255 314//255
f 262//255 314//255 319//255
f 262//255 319//255 320//255
f 262//255 320//255 321//255
f 262//255 321//255 263//255
f 261//254 267//256 265//256
f 261//254 265//256 264//254
f 267//256 268//257 266//257
f 267//256 266//257 265//256
f 268//257 269//258 271//258
f 268//257 271//258 266//257
f 269//258 270//259 272//259
f 269//258 272//259 271//258
f 270//259 275//260 273//260
f 270//259 273//260 272//259
f 275//260 276//261 274//261
f 275//260 274//261 273//260
f 276//261 277//262 279//262
f 276//261 279//262 274//261
f 277//262 278//263 280//263
f 277//262 280//263 279//262
f 278//263 283//264 281//264
f 278//263 281//264 280//263
f 283//264 284//265 282//265
f 283//264 282//265 281//264
f 284//265 285//266 287//266
f 284//265 287//266 282//265
f 285//266 286//267 288//267
f 285//266 288//267 287//266
f 286//267 291//268 289//268
f 286//267 289//268 288//267
f 291//268 292//269 290//269
f 291//268 290//269 289//268
f 292//269 293//270 295//270
f 292//269 295//270 290//269
f 293//270 294//271 296//271
f 293//270 296//271 295//270
f 294//271 299//272 297//272
f 294//271 297//272 296//271
f 299//272 300//273 298//274
f 299//272 298//274 297//272
f 300//273 301//275 303//275
f 300//273 303//275 298//274
f 301//275 302//276 304//276
f 301//275 304//276 303//275
f 302//276 307//277 305//277
f 302//276 305//277 304//276
f 307//277 308//278 306//278
f 307//277 306//278 305//277
f 308//278 309//279 311//279
f 308//278 311//279 306//278
f 309//279 310//280 312//280
f 309//279 312//280 311//279
f 310//280 315//281 313//281
f 310//280 313//281 312//280
f 315//281 316//282 314//282
f 315//281 314//282 313//281
f 316//282 317//283 319//283
f 316//282 319//283 314//282
f 317//283 318//284 320//284
f 317//283 320//284 319//283
f 318//284 322//285 321//285
f 318//284 321//285 320//284
f 322//285 260//252 263//252
f 322//285 263//252 321//285
f 324//286 258//250 323//250
f 324//286 323//250 325//286
f 326//287 324//286 325//286
f 326//287 325//286 327//287
f 328//288 326//287 327//287
f 328//288 327//287 329//288
f 330//289 328//288 329//288
f 330//289 329//288 331//289
f 332//290 330//289 331//289
f 332//290 331//289 333//290
f 334//291 332//290 333//290
f 334//291 333//290 335//291
f 336//292 334//291 335//291
f 336//292 335//291 337//292
f 338//293 336//292 337//292
f 338//293 337//292 339//293
f 340//294 338//293 339//293
f 340//294 339//293 341//294
f 342//295 340//294 341//294
f 342//295 341//294 343//295
f 344//296 342//295 343//295
f 344//296 343//295 345//296
f 346//297 344//296 345//296
f 346//297 345//296 347//297
f 348//298 346//297 347//297
f 348//298 347//297 349//298
f 350//299 348//298 349//298
f 350//299 349//298 351//299
f 351//299 352//228 226//228
f 351//299 226//228 350//299
f 352//300 351//300 349//300
f 352//300 349//300 347//300
f 352//300 347//300 345//300
f 352//300 345//300 343//300
f 352//300 343//300 341//300
f 352//300 341//300 339//300
f 352//300 339//300 337//300
f 352//300 337//300 335//300
f 352//300 335//300 333//300
f 352//300 333//300 331//300
f 352//300 331//300 329//300
f 352//300 329//300 327//300
f 352//300 327//300 325//300
f 352//300 325//300 323//300
f 352//300 323//300 257//300
f 352//300 257//300 255//300
f 352//300 255//300 253//300
f 352//300 253//300 251//300
f 352//300 251//300 249//300
f 352//300 249//300 247//300
f 352//300 247//300 245//300
f 352//300 245//300 243//300
f 352//300 243//300 241//300
f 352//300 241//300 239//300
f 352//300 239//300 237//300
f 352//300 237//300 235//300
f 352//300 235//300 233//300
f 352//300 233//300 231//300
f 352//300 231//300 229//300
f 352//300 229//300 227//300
f 355//301 480//302 354//302
f 355//301 354//302 353//301
f 406//303 404//304 402//304
f 406//303 402//304 400//304
f 406//303 400//304 398//304
f 406//303 398//304 394//304
f 406//303 394//304 393//304
f 406//303 393//304 392//304
f 406//303 392//304 391//304
f 406//303 391//304 388//304
f 406//303 388//304 386//304
f 406//303 386//304 382//304
f 406//303 382//304 381//304
f 406//303 381//304 380//304
f 406//303 380//304 379//304
f 406//303 379//304 373//304
f 406//303 373//304 371//305
f 406//303 371//305 368//306
f 406//303 368//306 366//304
f 406//303 366//304 364//304
f 406//303 364//304 362//304
f 406//303 362//304 360//304
f 406//303 360//304 358//304
f 406//303 358//304 356//304
f 406//303 356//304 353//304
f 406//303 353//304 354//304
f 406//303 354//304 478//304
f 406//303 478//304 476//304
f 406//303 476//304 474//304
f 406//303 474//304 472//304
f 406//303 472//304 470//304
f 406//303 470//304 468//304
f 406//303 468//304 437//304
f 406//303 437//304 435//307
f 357//308 355//301 353//301
f 357//308 353//301 356//308
f 359//309 357//308 356//308
f 359//309 356//308 358//309
f 361//310 359//309 358//309
f 361//310 358//309 360//310
f 363//311 361//310 360//310
f 363//311 360//310 362//311
f 365//312 363//311 362//311
f 365//312 362//311 364//312
f 367//313 365//312 364//312
f 367//313 364//312 366//313
f 369//314 367//313 366//313
f 369//314 366//313 368//314
f 466//315 369//314 368//314
f 466//315 368//314 370//315
f 371//305 372//316 432//316
f 371//305 432//316 431//316
f 371//305 431//316 430//316
f 371//305 430//316 429//316
f 371//305 429//316 424//316
f 371//305 424//316 423//316
f 371//305 423//316 422//316
f 371//305 422//316 421//316
f 371//305 421//316 418//316
f 371//305 418//316 414//316
f 371//305 414//316 413//316
f 371//305 413//316 412//316
f 371//305 412//316 411//316
f 371//305 411//316 408//316
f 371//305 408//316 406//303
f 371//305 406//303 435//307
f 371//305 435//307 438//316
f 371//305 438//316 439//316
f 371//305 439//316 444//316
f 371//305 444//316 445//316
f 371//305 445//316 446//316
f 371//305 446//316 447//316
f 371//305 447//316 452//316
f 371//305 452//316 453//316
f 371//305 453//316 454//316
f 371//305 454//316 455//316
f 371//305 455//316 460//316
f 371//305 460//316 461//316
f 371//305 461//316 462//316
f 371//305 462//316 463//316
f 371//305 463//316 370//316
f 371//305 370//316 368//306
f 374//317 375//318 372//318
f 374//317 372//318 371//317
f 376//319 374//317 371//317
f 376//319 371//317 373//319
f 420//320 425//320 426//320
f 420//320 426//320 427//320
f 420//320 427//320 428//320
f 420//320 428//320 433//320
f 420//320 433//320 434//320
f 420//320 434//320 375//320
f 420//320 375//320 374//320
f 420//320 374//320 376//320
f 420//320 376//320 377//320
f 420//320 377//320 378//320
f 420//320 378//320 383//320
f 420//320 383//320 384//320
f 420//320 384//320 385//320
f 420//320 385//320 387//320
f 420//320 387//320 389//320
f 420//320 389//320 390//320
f 420//320 390//320 395//320
f 420//320 395//320 396//320
f 420//320 396//320 397//320
f 420//320 397//320 399//320
f 420//320 399//320 401//320
f 420//320 401//320 403//320
f 420//320 403//320 405//320
f 420//320 405//320 407//320
f 420//320 407//320 409//320
f 420//320 409//320 410//320
f 420//320 410//320 415//320
f 420//320 415//320 416//320
f 420//320 416//320 417//320
f 420//320 417//320 419//320
f 377//321 376//319 373//319
f 377//321 373//319 379//321
f 378//322 377//321 379//321
f 378//322 379//321 380//322
f 383//323 378//322 380//322
f 383//323 380//322 381//323
f 384//324 383//323 381//323
f 384//324 381//323 382//324
f 385//325 384//324 382//324
f 385//325 382//324 386//325
f 387//326 385//325 386//325
f 387//326 386//325 388//326
f 389//327 387//326 388//326
f 389//327 388//326 391//327
f 390//328 389//327 391//327
f 390//328 391//327 392//328
f 395//329 390//328 392//328
f 395//329 392//328 393//329
f 396//330 395//329 393//329
f 396//330 393//329 394//330
f 397//331 396//330 394//330
f 397//331 394//330 398//331
f 399//332 397//331 398//331
f 399//332 398//331 400//332
f 401//333 399//332 400//332
f 401//333 400//332 402//333
f 403//334 401//333 402//333
f 403//334 402//333 404//334
f 405//335 403//334 404//334
f 405//335 404//334 406//335
f 407//336 405//335 406//335
f 407//336 406//335 408//336
f 409//337 407//336 408//336
f 409//337 408//336 411//337
f 410//338 409//337 411//337
f 410//338 411//337 412//338
f 415//339 410//338 412//338
f 415//339 412//338 413//339
f 416//340 415//339 413//339
f 416//340 413//339 414//340
f 417//341 416//340 414//340
f 417//341 414//340 418//341
f 419//342 417//341 418//341
f 419//342 418//341 421//342
f 421//342 422//343 420//343
f 421//342 420//343 419//342
f 425//344 420//343 422//343
f 425//344 422//343 423//344
f 426//345 425//344 423//344
f 426//345 423//344 424//345
f 427//346 426//345 424//345
f 427//346 424//345 429//346
f 428//347 427//346 429//346
f 428//347 429//346 430//347
f 433//348 428//347 430//347
f 433//348 430//347 431//348
f 434//349 433//348 431//348
f 434//349 431//348 432//349
f 375//318 434//349 432//349
f 375//318 432//349 372//318
f 467//350 436//351 435//351
f 467//350 435//351 437//350
f 436//351 440//352 438//352
f 436//351 438//352 435//351
f 440//352 441//353 439//353
f 440//352 439//353 438//352
f 480//354 355//354 357//354
f 480//354 357//354 359//354
f 480//354 359//354 361//354
f 480//354 361//354 363//354
f 480//354 363//354 365//354
f 480//354 365//354 367//354
f 480//354 367//354 369//354
f 480//354 369//354 466//354
f 480//354 466//354 465//354
f 480//354 465//354 464//354
f 480//354 464//354 459//354
f 480//354 459//354 458//354
f 480//354 458//354 457//354
f 480//354 457//354 456//354
f 480//354 456//354 451//354
f 480//354 451//354 450//354
f 480//354 450//354 449//354
f 480//354 449//354 448//354
f 480//354 448//354 443//354
f 480//354 443//354 442//354
f 480//354 442//354 441//354
f 480//354 441//354 440//354
f 480//354 440//354 436//354
f 480//354 436//354 467//354
f 480//354 467//354 469//354
f 480//354 469//354 471//354
f 480//354 471//354 473//354
f 480//354 473//354 475//354
f 480//354 475//354 477//354
f 480//354 477//354 479//354
f 441//353 442//355 444//355
f 441//353 444//355 439//353
f 442//355 443//356 445//356
f 442//355 445//356 444//355
f 443//356 448//357 446//357
f 443//356 446//357 445//356
f 448//357 449//358 447//358
f 448//357 447//358 446//357
f 449//358 450//359 452//359
f 449//358 452//359 447//358
f 450//359 451//360 453//360
f 450//359 453//360 452//359
f 451//360 456//361 454//361
f 451//360 454//361 453//360
f 456//361 457//362 455//363
f 456//361 455//363 454//361
f 457//362 458//364 460//364
f 457//362 460//364 455//363
f 458//364 459//365 461//365
f 458//364 461//365 460//364
f 459//365 464//366 462//366
f 459//365 462//366 461//365
f 464//366 465//367 463//367
f 464//366 463//367 462//366
f 465//367 466//315 370//315
f 465//367 370//315 463//367
f 469//368 467//350 437//350
f 469//368 437//350 468//368
f 471//369 469//368 468//368
f 471//369 468//368 470//369
f 473//370 471//369 470//369
f 473//370 470//369 472//370
f 475//371 473//370 472//370
f 475//371 472//370 474//371
f 477//372 475//371 474//371
f 477//372 474//371 476//373
f 479//374 477//372 476//373
f 479//374 476//373 478//374
f 478//374 354//302 480//302
f 478//374 480//302 479//374
f 490//375 491//375 492//375
f 490//375 492//375 496//375
f 490//375 496//375 499//375
f 490//375 499//375 500//375
f 490//375 500//375 501//375
f 490//375 501//375 502//375
f 490//375 502//375 507//375
f 490//375 507//375 508//375
f 490//375 508//375 509//375
f 490//375 509//375 510//375
f 490//375 510//375 482//375
f 490//375 482//375 481//375
f 490//375 481//375 483//375
f 490//375 483//375 489//375
f 481//376 482//377 485//378
f 481//376 485//378 484//379
f 483//380 481//376 484//379
f 483//380 484//379 486//381
f 497//382 495//382 494//382
f 497//382 494//382 493//382
f 497//382 493//382 488//382
f 497//382 488//382 487//382
f 497//382 487//382 486//382
f 497//382 486//382 484//382
f 497//382 484//382 485//382
f 497//382 485//382 512//382
f 497//382 512//382 511//382
f 497//382 511//382 506//382
f 497//382 506//382 505//382
f 497//382 505//382 504//382
f 497//382 504//382 503//382
f 497//382 503//382 498//382
f 489//383 483//380 486//381
f 489//383 486//381 487//384
f 487//384 488//385 490//386
f 487//384 490//386 489//383
f 491//387 490//386 488//385
f 491//387 488//385 493//388
f 492//389 491//387 493//388
f 492//389 493//388 494//390
f 496//391 492//389 494//390
f 496//391 494//390 495//392
f 495//392 497//393 499//394
f 495//392 499//394 496//391
f 500//395 499//394 497//393
f 500//395 497//393 498//396
f 501//397 500//395 498//396
f 501//397 498//396 503//398
f 502//399 501//397 503//398
f 502//399 503//398 504//400
f 504//400 505//401 507//402
f 504//400 507//402 502//399
f 505//401 506//403 508//404
f 505//401 508//404 507//402
f 509//405 508//404 506//403
f 509//405 506//403 511//406
f 510//407 509//405 511//406
f 510//407 511//406 512//408
f 512//408 485//378 482//377
f 512//408 482//377 510//407
f 513//409 514//409 544//409
f 513//409 544//409 540//409
f 513//409 540//409 539//409
f 513//409 539//409 538//409
f 513//409 538//409 537//409
f 513//409 537//409 534//409
f 513//409 534//409 530//409
f 513//409 530//409 529//409
f 513//409 529//409 527//409
f 513//409 527//409 526//409
f 513//409 526//409 525//409
f 513//409 525//409 522//409
f 513//409 522//409 520//409
f 513//409 520//409 515//409
f 516//410 517//411 514//412
f 516//410 514//412 513//413
f 518//414 516//410 513//413
f 518//414 513//413 515//415
f 532//416 533//416 535//416
f 532//416 535//416 536//416
f 532//416 536//416 541//416
f 532//416 541//416 542//416
f 532//416 542//416 543//416
f 532//416 543//416 517//416
f 532//416 517//416 516//416
f 532//416 516//416 518//416
f 532//416 518//416 519//416
f 532//416 519//416 521//416
f 532//416 521//416 523//416
f 532//416 523//416 524//416
f 532//416 524//416 528//416
f 532//416 528//416 531//416
f 519//417 518//414 515//415
f 519//417 515//415 520//418
f 520//418 522//419 521//420
f 520//418 521//420 519//417
f 523//421 521//420 522//419
f 523//421 522//419 525//422
f 524//423 523//421 525//422
f 524//423 525//422 526//424
f 528//425 524//423 526//424
f 528//425 526//424 527//426
f 527//426 529//427 531//428
f 527//426 531//428 528//425
f 532//429 531//428 529//427
f 532//429 529//427 530//430
f 533//431 532//429 530//430
f 533//431 530//430 534//432
f 535//433 533//431 534//432
f 535//433 534//432 537//434
f 537//434 538//435 536//436
f 537//434 536//436 535//433
f 538//435 539//437 541//438
f 538//435 541//438 536//436
f 542//439 541//438 539//437
f 542//439 539//437 540//440
f 543//441 542//439 540//440
f 543//441 540//440 544//442
f 544//442 514//412 517//411
f 544//442 517//411 543//441
